<?xml version="1.0" encoding="utf-8"?>
<svg xmlns="http://www.w3.org/2000/svg" xmlns:xlink="http://www.w3.org/1999/xlink" width="600" height="400" viewBox="0 0 2400 1600">
<defs>
  <clipPath id="clip020">
    <rect x="0" y="0" width="2400" height="1600"/>
  </clipPath>
</defs>
<path clip-path="url(#clip020)" d="
M0 1600 L2400 1600 L2400 0 L0 0  Z
  " fill="#ffffff" fill-rule="evenodd" fill-opacity="1"/>
<defs>
  <clipPath id="clip021">
    <rect x="480" y="0" width="1681" height="1600"/>
  </clipPath>
</defs>
<path clip-path="url(#clip020)" d="
M175.445 1423.18 L2352.76 1423.18 L2352.76 47.2441 L175.445 47.2441  Z
  " fill="#ffffff" fill-rule="evenodd" fill-opacity="1"/>
<defs>
  <clipPath id="clip022">
    <rect x="175" y="47" width="2178" height="1377"/>
  </clipPath>
</defs>
<polyline clip-path="url(#clip022)" style="stroke:#000000; stroke-width:2; stroke-opacity:0.1; fill:none" points="
  530.505,1423.18 530.505,47.2441 
  "/>
<polyline clip-path="url(#clip022)" style="stroke:#000000; stroke-width:2; stroke-opacity:0.1; fill:none" points="
  1117.38,1423.18 1117.38,47.2441 
  "/>
<polyline clip-path="url(#clip022)" style="stroke:#000000; stroke-width:2; stroke-opacity:0.1; fill:none" points="
  1704.26,1423.18 1704.26,47.2441 
  "/>
<polyline clip-path="url(#clip022)" style="stroke:#000000; stroke-width:2; stroke-opacity:0.1; fill:none" points="
  2291.13,1423.18 2291.13,47.2441 
  "/>
<polyline clip-path="url(#clip020)" style="stroke:#000000; stroke-width:4; stroke-opacity:1; fill:none" points="
  175.445,1423.18 2352.76,1423.18 
  "/>
<polyline clip-path="url(#clip020)" style="stroke:#000000; stroke-width:4; stroke-opacity:1; fill:none" points="
  530.505,1423.18 530.505,1406.67 
  "/>
<polyline clip-path="url(#clip020)" style="stroke:#000000; stroke-width:4; stroke-opacity:1; fill:none" points="
  1117.38,1423.18 1117.38,1406.67 
  "/>
<polyline clip-path="url(#clip020)" style="stroke:#000000; stroke-width:4; stroke-opacity:1; fill:none" points="
  1704.26,1423.18 1704.26,1406.67 
  "/>
<polyline clip-path="url(#clip020)" style="stroke:#000000; stroke-width:4; stroke-opacity:1; fill:none" points="
  2291.13,1423.18 2291.13,1406.67 
  "/>
<path clip-path="url(#clip020)" d="M 0 0 M525.158 1479.92 L541.477 1479.92 L541.477 1483.85 L519.533 1483.85 L519.533 1479.92 Q522.195 1477.16 526.778 1472.53 Q531.385 1467.88 532.565 1466.54 Q534.811 1464.01 535.69 1462.28 Q536.593 1460.52 536.593 1458.83 Q536.593 1456.07 534.649 1454.34 Q532.728 1452.6 529.626 1452.6 Q527.427 1452.6 524.973 1453.37 Q522.542 1454.13 519.765 1455.68 L519.765 1450.96 Q522.589 1449.82 525.042 1449.25 Q527.496 1448.67 529.533 1448.67 Q534.903 1448.67 538.098 1451.35 Q541.292 1454.04 541.292 1458.53 Q541.292 1460.66 540.482 1462.58 Q539.695 1464.48 537.589 1467.07 Q537.01 1467.74 533.908 1470.96 Q530.806 1474.15 525.158 1479.92 Z" fill="#000000" fill-rule="evenodd" fill-opacity="1" /><path clip-path="url(#clip020)" d="M 0 0 M1120.39 1453.37 L1108.59 1471.81 L1120.39 1471.81 L1120.39 1453.37 M1119.16 1449.29 L1125.04 1449.29 L1125.04 1471.81 L1129.97 1471.81 L1129.97 1475.7 L1125.04 1475.7 L1125.04 1483.85 L1120.39 1483.85 L1120.39 1475.7 L1104.79 1475.7 L1104.79 1471.19 L1119.16 1449.29 Z" fill="#000000" fill-rule="evenodd" fill-opacity="1" /><path clip-path="url(#clip020)" d="M 0 0 M1704.66 1464.71 Q1701.51 1464.71 1699.66 1466.86 Q1697.83 1469.01 1697.83 1472.76 Q1697.83 1476.49 1699.66 1478.67 Q1701.51 1480.82 1704.66 1480.82 Q1707.81 1480.82 1709.64 1478.67 Q1711.49 1476.49 1711.49 1472.76 Q1711.49 1469.01 1709.64 1466.86 Q1707.81 1464.71 1704.66 1464.71 M1713.95 1450.06 L1713.95 1454.31 Q1712.19 1453.48 1710.38 1453.04 Q1708.6 1452.6 1706.84 1452.6 Q1702.21 1452.6 1699.76 1455.73 Q1697.32 1458.85 1696.98 1465.17 Q1698.34 1463.16 1700.4 1462.09 Q1702.46 1461 1704.94 1461 Q1710.15 1461 1713.16 1464.18 Q1716.19 1467.32 1716.19 1472.76 Q1716.19 1478.09 1713.04 1481.31 Q1709.89 1484.52 1704.66 1484.52 Q1698.67 1484.52 1695.5 1479.94 Q1692.32 1475.33 1692.32 1466.61 Q1692.32 1458.41 1696.21 1453.55 Q1700.1 1448.67 1706.65 1448.67 Q1708.41 1448.67 1710.2 1449.01 Q1712 1449.36 1713.95 1450.06 Z" fill="#000000" fill-rule="evenodd" fill-opacity="1" /><path clip-path="url(#clip020)" d="M 0 0 M2291.13 1467.44 Q2287.8 1467.44 2285.88 1469.22 Q2283.98 1471 2283.98 1474.13 Q2283.98 1477.25 2285.88 1479.04 Q2287.8 1480.82 2291.13 1480.82 Q2294.47 1480.82 2296.39 1479.04 Q2298.31 1477.23 2298.31 1474.13 Q2298.31 1471 2296.39 1469.22 Q2294.49 1467.44 2291.13 1467.44 M2286.46 1465.45 Q2283.45 1464.71 2281.76 1462.65 Q2280.09 1460.59 2280.09 1457.63 Q2280.09 1453.48 2283.03 1451.07 Q2286 1448.67 2291.13 1448.67 Q2296.3 1448.67 2299.24 1451.07 Q2302.18 1453.48 2302.18 1457.63 Q2302.18 1460.59 2300.49 1462.65 Q2298.82 1464.71 2295.83 1465.45 Q2299.21 1466.24 2301.09 1468.53 Q2302.99 1470.82 2302.99 1474.13 Q2302.99 1479.15 2299.91 1481.84 Q2296.85 1484.52 2291.13 1484.52 Q2285.42 1484.52 2282.34 1481.84 Q2279.28 1479.15 2279.28 1474.13 Q2279.28 1470.82 2281.18 1468.53 Q2283.08 1466.24 2286.46 1465.45 M2284.75 1458.06 Q2284.75 1460.75 2286.41 1462.25 Q2288.1 1463.76 2291.13 1463.76 Q2294.14 1463.76 2295.83 1462.25 Q2297.55 1460.75 2297.55 1458.06 Q2297.55 1455.38 2295.83 1453.88 Q2294.14 1452.37 2291.13 1452.37 Q2288.1 1452.37 2286.41 1453.88 Q2284.75 1455.38 2284.75 1458.06 Z" fill="#000000" fill-rule="evenodd" fill-opacity="1" /><path clip-path="url(#clip020)" d="M 0 0 M1059.7 1508.52 L1068.36 1508.52 L1089.43 1548.28 L1089.43 1508.52 L1095.66 1508.52 L1095.66 1556.04 L1087.01 1556.04 L1065.94 1516.29 L1065.94 1556.04 L1059.7 1556.04 L1059.7 1508.52 Z" fill="#000000" fill-rule="evenodd" fill-opacity="1" /><path clip-path="url(#clip020)" d="M 0 0 M1115.62 1524.5 Q1110.91 1524.5 1108.17 1528.19 Q1105.44 1531.85 1105.44 1538.25 Q1105.44 1544.65 1108.14 1548.34 Q1110.88 1552 1115.62 1552 Q1120.3 1552 1123.04 1548.31 Q1125.77 1544.62 1125.77 1538.25 Q1125.77 1531.92 1123.04 1528.23 Q1120.3 1524.5 1115.62 1524.5 M1115.62 1519.54 Q1123.26 1519.54 1127.62 1524.5 Q1131.98 1529.47 1131.98 1538.25 Q1131.98 1547 1127.62 1552 Q1123.26 1556.97 1115.62 1556.97 Q1107.95 1556.97 1103.59 1552 Q1099.26 1547 1099.26 1538.25 Q1099.26 1529.47 1103.59 1524.5 Q1107.95 1519.54 1115.62 1519.54 Z" fill="#000000" fill-rule="evenodd" fill-opacity="1" /><path clip-path="url(#clip020)" d="M 0 0 M1137.8 1547.96 L1144.52 1547.96 L1144.52 1556.04 L1137.8 1556.04 L1137.8 1547.96 Z" fill="#000000" fill-rule="evenodd" fill-opacity="1" /><path clip-path="url(#clip020)" d="M 0 0 M1185.2 1524.5 Q1180.49 1524.5 1177.75 1528.19 Q1175.01 1531.85 1175.01 1538.25 Q1175.01 1544.65 1177.72 1548.34 Q1180.46 1552 1185.2 1552 Q1189.88 1552 1192.61 1548.31 Q1195.35 1544.62 1195.35 1538.25 Q1195.35 1531.92 1192.61 1528.23 Q1189.88 1524.5 1185.2 1524.5 M1185.2 1519.54 Q1192.84 1519.54 1197.2 1524.5 Q1201.56 1529.47 1201.56 1538.25 Q1201.56 1547 1197.2 1552 Q1192.84 1556.97 1185.2 1556.97 Q1177.53 1556.97 1173.17 1552 Q1168.84 1547 1168.84 1538.25 Q1168.84 1529.47 1173.17 1524.5 Q1177.53 1519.54 1185.2 1519.54 Z" fill="#000000" fill-rule="evenodd" fill-opacity="1" /><path clip-path="url(#clip020)" d="M 0 0 M1225.75 1506.52 L1225.75 1511.39 L1220.15 1511.39 Q1216.99 1511.39 1215.75 1512.66 Q1214.54 1513.93 1214.54 1517.24 L1214.54 1520.4 L1224.19 1520.4 L1224.19 1524.95 L1214.54 1524.95 L1214.54 1556.04 L1208.66 1556.04 L1208.66 1524.95 L1203.05 1524.95 L1203.05 1520.4 L1208.66 1520.4 L1208.66 1517.91 Q1208.66 1511.96 1211.42 1509.26 Q1214.19 1506.52 1220.21 1506.52 L1225.75 1506.52 Z" fill="#000000" fill-rule="evenodd" fill-opacity="1" /><path clip-path="url(#clip020)" d="M 0 0 M1258.4 1510.27 L1258.4 1520.4 L1270.47 1520.4 L1270.47 1524.95 L1258.4 1524.95 L1258.4 1544.3 Q1258.4 1548.66 1259.58 1549.9 Q1260.79 1551.14 1264.45 1551.14 L1270.47 1551.14 L1270.47 1556.04 L1264.45 1556.04 Q1257.67 1556.04 1255.09 1553.53 Q1252.51 1550.98 1252.51 1544.3 L1252.51 1524.95 L1248.22 1524.95 L1248.22 1520.4 L1252.51 1520.4 L1252.51 1510.27 L1258.4 1510.27 Z" fill="#000000" fill-rule="evenodd" fill-opacity="1" /><path clip-path="url(#clip020)" d="M 0 0 M1306.24 1534.53 L1306.24 1556.04 L1300.39 1556.04 L1300.39 1534.72 Q1300.39 1529.66 1298.41 1527.14 Q1296.44 1524.63 1292.49 1524.63 Q1287.75 1524.63 1285.01 1527.65 Q1282.27 1530.68 1282.27 1535.9 L1282.27 1556.04 L1276.39 1556.04 L1276.39 1506.52 L1282.27 1506.52 L1282.27 1525.93 Q1284.38 1522.72 1287.21 1521.13 Q1290.07 1519.54 1293.8 1519.54 Q1299.94 1519.54 1303.09 1523.36 Q1306.24 1527.14 1306.24 1534.53 Z" fill="#000000" fill-rule="evenodd" fill-opacity="1" /><path clip-path="url(#clip020)" d="M 0 0 M1333.04 1525.87 Q1332.05 1525.3 1330.88 1525.04 Q1329.73 1524.76 1328.33 1524.76 Q1323.37 1524.76 1320.69 1528 Q1318.05 1531.22 1318.05 1537.27 L1318.05 1556.04 L1312.16 1556.04 L1312.16 1520.4 L1318.05 1520.4 L1318.05 1525.93 Q1319.9 1522.69 1322.86 1521.13 Q1325.82 1519.54 1330.05 1519.54 Q1330.65 1519.54 1331.39 1519.63 Q1332.12 1519.7 1333.01 1519.85 L1333.04 1525.87 Z" fill="#000000" fill-rule="evenodd" fill-opacity="1" /><path clip-path="url(#clip020)" d="M 0 0 M1368.24 1536.76 L1368.24 1539.62 L1341.32 1539.62 Q1341.7 1545.67 1344.95 1548.85 Q1348.22 1552 1354.05 1552 Q1357.42 1552 1360.57 1551.17 Q1363.76 1550.35 1366.87 1548.69 L1366.87 1554.23 Q1363.72 1555.57 1360.41 1556.27 Q1357.1 1556.97 1353.7 1556.97 Q1345.17 1556.97 1340.17 1552 Q1335.21 1547.04 1335.21 1538.57 Q1335.21 1529.82 1339.92 1524.69 Q1344.66 1519.54 1352.68 1519.54 Q1359.87 1519.54 1364.04 1524.18 Q1368.24 1528.8 1368.24 1536.76 M1362.39 1535.04 Q1362.32 1530.23 1359.68 1527.37 Q1357.07 1524.5 1352.74 1524.5 Q1347.84 1524.5 1344.88 1527.27 Q1341.95 1530.04 1341.51 1535.07 L1362.39 1535.04 Z" fill="#000000" fill-rule="evenodd" fill-opacity="1" /><path clip-path="url(#clip020)" d="M 0 0 M1390.59 1538.12 Q1383.49 1538.12 1380.75 1539.75 Q1378.01 1541.37 1378.01 1545.29 Q1378.01 1548.4 1380.05 1550.25 Q1382.12 1552.07 1385.65 1552.07 Q1390.52 1552.07 1393.45 1548.63 Q1396.41 1545.16 1396.41 1539.43 L1396.41 1538.12 L1390.59 1538.12 M1402.27 1535.71 L1402.27 1556.04 L1396.41 1556.04 L1396.41 1550.63 Q1394.41 1553.88 1391.41 1555.44 Q1388.42 1556.97 1384.09 1556.97 Q1378.62 1556.97 1375.37 1553.91 Q1372.16 1550.82 1372.16 1545.67 Q1372.16 1539.65 1376.17 1536.6 Q1380.21 1533.54 1388.2 1533.54 L1396.41 1533.54 L1396.41 1532.97 Q1396.41 1528.93 1393.74 1526.73 Q1391.1 1524.5 1386.29 1524.5 Q1383.23 1524.5 1380.34 1525.23 Q1377.44 1525.97 1374.77 1527.43 L1374.77 1522.02 Q1377.98 1520.78 1381.01 1520.17 Q1384.03 1519.54 1386.9 1519.54 Q1394.63 1519.54 1398.45 1523.55 Q1402.27 1527.56 1402.27 1535.71 Z" fill="#000000" fill-rule="evenodd" fill-opacity="1" /><path clip-path="url(#clip020)" d="M 0 0 M1431.87 1525.81 L1431.87 1506.52 L1437.73 1506.52 L1437.73 1556.04 L1431.87 1556.04 L1431.87 1550.7 Q1430.02 1553.88 1427.19 1555.44 Q1424.39 1556.97 1420.44 1556.97 Q1413.98 1556.97 1409.91 1551.81 Q1405.86 1546.65 1405.86 1538.25 Q1405.86 1529.85 1409.91 1524.69 Q1413.98 1519.54 1420.44 1519.54 Q1424.39 1519.54 1427.19 1521.1 Q1430.02 1522.62 1431.87 1525.81 M1411.91 1538.25 Q1411.91 1544.71 1414.55 1548.4 Q1417.23 1552.07 1421.87 1552.07 Q1426.52 1552.07 1429.2 1548.4 Q1431.87 1544.71 1431.87 1538.25 Q1431.87 1531.79 1429.2 1528.13 Q1426.52 1524.44 1421.87 1524.44 Q1417.23 1524.44 1414.55 1528.13 Q1411.91 1531.79 1411.91 1538.25 Z" fill="#000000" fill-rule="evenodd" fill-opacity="1" /><path clip-path="url(#clip020)" d="M 0 0 M1466.59 1521.45 L1466.59 1526.98 Q1464.11 1525.71 1461.44 1525.07 Q1458.76 1524.44 1455.9 1524.44 Q1451.54 1524.44 1449.34 1525.77 Q1447.18 1527.11 1447.18 1529.79 Q1447.18 1531.82 1448.74 1533 Q1450.3 1534.15 1455.01 1535.2 L1457.01 1535.64 Q1463.25 1536.98 1465.86 1539.43 Q1468.5 1541.85 1468.5 1546.21 Q1468.5 1551.17 1464.56 1554.07 Q1460.64 1556.97 1453.77 1556.97 Q1450.9 1556.97 1447.78 1556.39 Q1444.7 1555.85 1441.26 1554.74 L1441.26 1548.69 Q1444.5 1550.38 1447.66 1551.24 Q1450.81 1552.07 1453.89 1552.07 Q1458.03 1552.07 1460.26 1550.66 Q1462.49 1549.23 1462.49 1546.65 Q1462.49 1544.27 1460.86 1542.99 Q1459.27 1541.72 1453.83 1540.54 L1451.79 1540.07 Q1446.35 1538.92 1443.93 1536.56 Q1441.51 1534.18 1441.51 1530.04 Q1441.51 1525.01 1445.08 1522.27 Q1448.64 1519.54 1455.2 1519.54 Q1458.45 1519.54 1461.31 1520.01 Q1464.17 1520.49 1466.59 1521.45 Z" fill="#000000" fill-rule="evenodd" fill-opacity="1" /><polyline clip-path="url(#clip022)" style="stroke:#000000; stroke-width:2; stroke-opacity:0.1; fill:none" points="
  175.445,1344.84 2352.76,1344.84 
  "/>
<polyline clip-path="url(#clip022)" style="stroke:#000000; stroke-width:2; stroke-opacity:0.1; fill:none" points="
  175.445,1002.07 2352.76,1002.07 
  "/>
<polyline clip-path="url(#clip022)" style="stroke:#000000; stroke-width:2; stroke-opacity:0.1; fill:none" points="
  175.445,659.306 2352.76,659.306 
  "/>
<polyline clip-path="url(#clip022)" style="stroke:#000000; stroke-width:2; stroke-opacity:0.1; fill:none" points="
  175.445,316.538 2352.76,316.538 
  "/>
<polyline clip-path="url(#clip020)" style="stroke:#000000; stroke-width:4; stroke-opacity:1; fill:none" points="
  175.445,1423.18 175.445,47.2441 
  "/>
<polyline clip-path="url(#clip020)" style="stroke:#000000; stroke-width:4; stroke-opacity:1; fill:none" points="
  175.445,1344.84 201.573,1344.84 
  "/>
<polyline clip-path="url(#clip020)" style="stroke:#000000; stroke-width:4; stroke-opacity:1; fill:none" points="
  175.445,1002.07 201.573,1002.07 
  "/>
<polyline clip-path="url(#clip020)" style="stroke:#000000; stroke-width:4; stroke-opacity:1; fill:none" points="
  175.445,659.306 201.573,659.306 
  "/>
<polyline clip-path="url(#clip020)" style="stroke:#000000; stroke-width:4; stroke-opacity:1; fill:none" points="
  175.445,316.538 201.573,316.538 
  "/>
<path clip-path="url(#clip020)" d="M 0 0 M119.538 1358.19 L127.177 1358.19 L127.177 1331.82 L118.867 1333.49 L118.867 1329.23 L127.13 1327.56 L131.806 1327.56 L131.806 1358.19 L139.445 1358.19 L139.445 1362.12 L119.538 1362.12 L119.538 1358.19 Z" fill="#000000" fill-rule="evenodd" fill-opacity="1" /><path clip-path="url(#clip020)" d="M 0 0 M123.126 1015.42 L139.445 1015.42 L139.445 1019.35 L117.501 1019.35 L117.501 1015.42 Q120.163 1012.66 124.746 1008.04 Q129.353 1003.38 130.533 1002.04 Q132.779 999.517 133.658 997.781 Q134.561 996.021 134.561 994.331 Q134.561 991.577 132.617 989.841 Q130.695 988.105 127.593 988.105 Q125.394 988.105 122.941 988.869 Q120.51 989.632 117.732 991.183 L117.732 986.461 Q120.556 985.327 123.01 984.748 Q125.464 984.17 127.501 984.17 Q132.871 984.17 136.066 986.855 Q139.26 989.54 139.26 994.031 Q139.26 996.16 138.45 998.081 Q137.663 999.98 135.556 1002.57 Q134.978 1003.24 131.876 1006.46 Q128.774 1009.66 123.126 1015.42 Z" fill="#000000" fill-rule="evenodd" fill-opacity="1" /><path clip-path="url(#clip020)" d="M 0 0 M132.316 657.952 Q135.672 658.67 137.547 660.938 Q139.445 663.207 139.445 666.54 Q139.445 671.656 135.927 674.456 Q132.408 677.257 125.927 677.257 Q123.751 677.257 121.436 676.818 Q119.144 676.401 116.691 675.544 L116.691 671.031 Q118.635 672.165 120.95 672.744 Q123.265 673.322 125.788 673.322 Q130.186 673.322 132.478 671.586 Q134.792 669.85 134.792 666.54 Q134.792 663.484 132.64 661.771 Q130.51 660.035 126.691 660.035 L122.663 660.035 L122.663 656.193 L126.876 656.193 Q130.325 656.193 132.154 654.827 Q133.982 653.438 133.982 650.846 Q133.982 648.183 132.084 646.771 Q130.209 645.336 126.691 645.336 Q124.769 645.336 122.57 645.753 Q120.371 646.17 117.732 647.049 L117.732 642.883 Q120.394 642.142 122.709 641.771 Q125.047 641.401 127.107 641.401 Q132.431 641.401 135.533 643.832 Q138.635 646.239 138.635 650.359 Q138.635 653.23 136.992 655.22 Q135.348 657.188 132.316 657.952 Z" fill="#000000" fill-rule="evenodd" fill-opacity="1" /><path clip-path="url(#clip020)" d="M 0 0 M129.862 303.332 L118.056 321.781 L129.862 321.781 L129.862 303.332 M128.635 299.258 L134.515 299.258 L134.515 321.781 L139.445 321.781 L139.445 325.67 L134.515 325.67 L134.515 333.818 L129.862 333.818 L129.862 325.67 L114.26 325.67 L114.26 321.156 L128.635 299.258 Z" fill="#000000" fill-rule="evenodd" fill-opacity="1" /><path clip-path="url(#clip020)" d="M 0 0 M42.0438 831.223 L48.314 831.223 Q46.5634 834.883 45.704 838.13 Q44.8447 841.376 44.8447 844.4 Q44.8447 849.651 46.8817 852.516 Q48.9187 855.349 52.6745 855.349 Q55.8255 855.349 57.4488 853.471 Q59.0402 851.561 60.0269 846.278 L60.8226 842.395 Q62.1912 835.201 65.6605 831.796 Q69.098 828.358 74.8908 828.358 Q81.7976 828.358 85.3624 833.005 Q88.9272 837.62 88.9272 846.564 Q88.9272 849.938 88.1633 853.757 Q87.3994 857.545 85.9035 861.619 L79.2831 861.619 Q81.4793 857.704 82.5933 853.948 Q83.7073 850.193 83.7073 846.564 Q83.7073 841.058 81.543 838.066 Q79.3786 835.074 75.3682 835.074 Q71.8671 835.074 69.8937 837.238 Q67.9204 839.371 66.9337 844.272 L66.1698 848.187 Q64.7375 855.381 61.682 858.595 Q58.6264 861.81 53.1837 861.81 Q46.8817 861.81 43.2532 857.386 Q39.6248 852.93 39.6248 845.132 Q39.6248 841.79 40.2295 838.321 Q40.8343 834.851 42.0438 831.223 Z" fill="#000000" fill-rule="evenodd" fill-opacity="1" /><path clip-path="url(#clip020)" d="M 0 0 M82.657 816.55 L101.563 816.55 L101.563 822.438 L52.3562 822.438 L52.3562 816.55 L57.7671 816.55 Q54.5842 814.704 53.0564 811.903 Q51.4968 809.07 51.4968 805.155 Q51.4968 798.662 56.6531 794.62 Q61.8093 790.546 70.212 790.546 Q78.6147 790.546 83.771 794.62 Q88.9272 798.662 88.9272 805.155 Q88.9272 809.07 87.3994 811.903 Q85.8398 814.704 82.657 816.55 M70.212 796.625 Q63.7508 796.625 60.0905 799.299 Q56.3984 801.94 56.3984 806.587 Q56.3984 811.234 60.0905 813.908 Q63.7508 816.55 70.212 816.55 Q76.6732 816.55 80.3653 813.908 Q84.0256 811.234 84.0256 806.587 Q84.0256 801.94 80.3653 799.299 Q76.6732 796.625 70.212 796.625 Z" fill="#000000" fill-rule="evenodd" fill-opacity="1" /><path clip-path="url(#clip020)" d="M 0 0 M68.7161 753.911 L71.5806 753.911 L71.5806 780.838 Q77.6281 780.456 80.8109 777.21 Q83.9619 773.931 83.9619 768.107 Q83.9619 764.733 83.1344 761.582 Q82.3069 758.399 80.6518 755.28 L86.1899 755.28 Q87.5267 758.431 88.227 761.741 Q88.9272 765.051 88.9272 768.457 Q88.9272 776.987 83.9619 781.984 Q78.9967 786.949 70.5303 786.949 Q61.7774 786.949 56.6531 782.239 Q51.4968 777.496 51.4968 769.475 Q51.4968 762.282 56.1438 758.113 Q60.7589 753.911 68.7161 753.911 M66.9973 759.768 Q62.1912 759.831 59.3266 762.473 Q56.4621 765.083 56.4621 769.412 Q56.4621 774.313 59.2312 777.273 Q62.0002 780.202 67.0292 780.647 L66.9973 759.768 Z" fill="#000000" fill-rule="evenodd" fill-opacity="1" /><path clip-path="url(#clip020)" d="M 0 0 M68.7161 717.277 L71.5806 717.277 L71.5806 744.204 Q77.6281 743.822 80.8109 740.575 Q83.9619 737.297 83.9619 731.472 Q83.9619 728.098 83.1344 724.947 Q82.3069 721.764 80.6518 718.645 L86.1899 718.645 Q87.5267 721.796 88.227 725.106 Q88.9272 728.417 88.9272 731.822 Q88.9272 740.352 83.9619 745.349 Q78.9967 750.315 70.5303 750.315 Q61.7774 750.315 56.6531 745.604 Q51.4968 740.862 51.4968 732.841 Q51.4968 725.647 56.1438 721.478 Q60.7589 717.277 68.7161 717.277 M66.9973 723.133 Q62.1912 723.197 59.3266 725.838 Q56.4621 728.448 56.4621 732.777 Q56.4621 737.679 59.2312 740.639 Q62.0002 743.567 67.0292 744.013 L66.9973 723.133 Z" fill="#000000" fill-rule="evenodd" fill-opacity="1" /><path clip-path="url(#clip020)" d="M 0 0 M57.7671 687.676 L38.479 687.676 L38.479 681.82 L88.0042 681.82 L88.0042 687.676 L82.657 687.676 Q85.8398 689.522 87.3994 692.355 Q88.9272 695.156 88.9272 699.102 Q88.9272 705.564 83.771 709.638 Q78.6147 713.68 70.212 713.68 Q61.8093 713.68 56.6531 709.638 Q51.4968 705.564 51.4968 699.102 Q51.4968 695.156 53.0564 692.355 Q54.5842 689.522 57.7671 687.676 M70.212 707.633 Q76.6732 707.633 80.3653 704.991 Q84.0256 702.317 84.0256 697.67 Q84.0256 693.023 80.3653 690.35 Q76.6732 687.676 70.212 687.676 Q63.7508 687.676 60.0905 690.35 Q56.3984 693.023 56.3984 697.67 Q56.3984 702.317 60.0905 704.991 Q63.7508 707.633 70.212 707.633 Z" fill="#000000" fill-rule="evenodd" fill-opacity="1" /><path clip-path="url(#clip020)" d="M 0 0 M73.9359 676.281 L52.3562 676.281 L52.3562 670.425 L73.7131 670.425 Q78.7739 670.425 81.3202 668.452 Q83.8346 666.478 83.8346 662.532 Q83.8346 657.789 80.8109 655.052 Q77.7872 652.283 72.5673 652.283 L52.3562 652.283 L52.3562 646.426 L88.0042 646.426 L88.0042 652.283 L82.5296 652.283 Q85.7762 654.415 87.3676 657.248 Q88.9272 660.049 88.9272 663.773 Q88.9272 669.916 85.1078 673.099 Q81.2883 676.281 73.9359 676.281 M51.4968 661.545 L51.4968 661.545 Z" fill="#000000" fill-rule="evenodd" fill-opacity="1" /><path clip-path="url(#clip020)" d="M 0 0 M82.657 634.618 L101.563 634.618 L101.563 640.506 L52.3562 640.506 L52.3562 634.618 L57.7671 634.618 Q54.5842 632.772 53.0564 629.971 Q51.4968 627.138 51.4968 623.223 Q51.4968 616.73 56.6531 612.688 Q61.8093 608.614 70.212 608.614 Q78.6147 608.614 83.771 612.688 Q88.9272 616.73 88.9272 623.223 Q88.9272 627.138 87.3994 629.971 Q85.8398 632.772 82.657 634.618 M70.212 614.693 Q63.7508 614.693 60.0905 617.367 Q56.3984 620.009 56.3984 624.656 Q56.3984 629.303 60.0905 631.976 Q63.7508 634.618 70.212 634.618 Q76.6732 634.618 80.3653 631.976 Q84.0256 629.303 84.0256 624.656 Q84.0256 620.009 80.3653 617.367 Q76.6732 614.693 70.212 614.693 Z" fill="#000000" fill-rule="evenodd" fill-opacity="1" /><polyline clip-path="url(#clip022)" style="stroke:#0000ff; stroke-width:8; stroke-opacity:1; fill:none" points="
  237.067,1344.84 530.505,1014.97 823.943,711.788 1117.38,488.901 1410.82,469.147 1704.26,250.455 1997.7,149.208 2291.13,130.625 
  "/>
<polyline clip-path="url(#clip022)" style="stroke:#000000; stroke-width:4; stroke-opacity:1; fill:none" points="
  237.067,1370.31 237.067,1319.37 
  "/>
<polyline clip-path="url(#clip022)" style="stroke:#000000; stroke-width:4; stroke-opacity:1; fill:none" points="
  530.505,1035.4 530.505,994.547 
  "/>
<polyline clip-path="url(#clip022)" style="stroke:#000000; stroke-width:4; stroke-opacity:1; fill:none" points="
  823.943,731.814 823.943,691.763 
  "/>
<polyline clip-path="url(#clip022)" style="stroke:#000000; stroke-width:4; stroke-opacity:1; fill:none" points="
  1117.38,527.784 1117.38,450.018 
  "/>
<polyline clip-path="url(#clip022)" style="stroke:#000000; stroke-width:4; stroke-opacity:1; fill:none" points="
  1410.82,511.886 1410.82,426.407 
  "/>
<polyline clip-path="url(#clip022)" style="stroke:#000000; stroke-width:4; stroke-opacity:1; fill:none" points="
  1704.26,262.37 1704.26,238.541 
  "/>
<polyline clip-path="url(#clip022)" style="stroke:#000000; stroke-width:4; stroke-opacity:1; fill:none" points="
  1997.7,166.053 1997.7,132.362 
  "/>
<polyline clip-path="url(#clip022)" style="stroke:#000000; stroke-width:4; stroke-opacity:1; fill:none" points="
  2291.13,175.063 2291.13,86.1857 
  "/>
<line clip-path="url(#clip022)" x1="253.067" y1="1370.31" x2="221.067" y2="1370.31" style="stroke:#000000; stroke-width:3.2; stroke-opacity:1"/>
<line clip-path="url(#clip022)" x1="253.067" y1="1319.37" x2="221.067" y2="1319.37" style="stroke:#000000; stroke-width:3.2; stroke-opacity:1"/>
<line clip-path="url(#clip022)" x1="546.505" y1="1035.4" x2="514.505" y2="1035.4" style="stroke:#000000; stroke-width:3.2; stroke-opacity:1"/>
<line clip-path="url(#clip022)" x1="546.505" y1="994.547" x2="514.505" y2="994.547" style="stroke:#000000; stroke-width:3.2; stroke-opacity:1"/>
<line clip-path="url(#clip022)" x1="839.943" y1="731.814" x2="807.943" y2="731.814" style="stroke:#000000; stroke-width:3.2; stroke-opacity:1"/>
<line clip-path="url(#clip022)" x1="839.943" y1="691.763" x2="807.943" y2="691.763" style="stroke:#000000; stroke-width:3.2; stroke-opacity:1"/>
<line clip-path="url(#clip022)" x1="1133.38" y1="527.784" x2="1101.38" y2="527.784" style="stroke:#000000; stroke-width:3.2; stroke-opacity:1"/>
<line clip-path="url(#clip022)" x1="1133.38" y1="450.018" x2="1101.38" y2="450.018" style="stroke:#000000; stroke-width:3.2; stroke-opacity:1"/>
<line clip-path="url(#clip022)" x1="1426.82" y1="511.886" x2="1394.82" y2="511.886" style="stroke:#000000; stroke-width:3.2; stroke-opacity:1"/>
<line clip-path="url(#clip022)" x1="1426.82" y1="426.407" x2="1394.82" y2="426.407" style="stroke:#000000; stroke-width:3.2; stroke-opacity:1"/>
<line clip-path="url(#clip022)" x1="1720.26" y1="262.37" x2="1688.26" y2="262.37" style="stroke:#000000; stroke-width:3.2; stroke-opacity:1"/>
<line clip-path="url(#clip022)" x1="1720.26" y1="238.541" x2="1688.26" y2="238.541" style="stroke:#000000; stroke-width:3.2; stroke-opacity:1"/>
<line clip-path="url(#clip022)" x1="2013.7" y1="166.053" x2="1981.7" y2="166.053" style="stroke:#000000; stroke-width:3.2; stroke-opacity:1"/>
<line clip-path="url(#clip022)" x1="2013.7" y1="132.362" x2="1981.7" y2="132.362" style="stroke:#000000; stroke-width:3.2; stroke-opacity:1"/>
<line clip-path="url(#clip022)" x1="2307.13" y1="175.063" x2="2275.13" y2="175.063" style="stroke:#000000; stroke-width:3.2; stroke-opacity:1"/>
<line clip-path="url(#clip022)" x1="2307.13" y1="86.1857" x2="2275.13" y2="86.1857" style="stroke:#000000; stroke-width:3.2; stroke-opacity:1"/>
<polyline clip-path="url(#clip022)" style="stroke:#ff0000; stroke-width:8; stroke-opacity:1; fill:none" points="
  237.067,1344.84 530.505,1060.98 823.943,808.509 1117.38,614.023 1410.82,638.304 1704.26,610.485 1997.7,547.796 2291.13,536.181 
  "/>
<polyline clip-path="url(#clip022)" style="stroke:#000000; stroke-width:4; stroke-opacity:1; fill:none" points="
  237.067,1384.24 237.067,1305.45 
  "/>
<polyline clip-path="url(#clip022)" style="stroke:#000000; stroke-width:4; stroke-opacity:1; fill:none" points="
  530.505,1086.88 530.505,1035.08 
  "/>
<polyline clip-path="url(#clip022)" style="stroke:#000000; stroke-width:4; stroke-opacity:1; fill:none" points="
  823.943,855.067 823.943,761.95 
  "/>
<polyline clip-path="url(#clip022)" style="stroke:#000000; stroke-width:4; stroke-opacity:1; fill:none" points="
  1117.38,661.031 1117.38,567.014 
  "/>
<polyline clip-path="url(#clip022)" style="stroke:#000000; stroke-width:4; stroke-opacity:1; fill:none" points="
  1410.82,687.859 1410.82,588.75 
  "/>
<polyline clip-path="url(#clip022)" style="stroke:#000000; stroke-width:4; stroke-opacity:1; fill:none" points="
  1704.26,625.637 1704.26,595.332 
  "/>
<polyline clip-path="url(#clip022)" style="stroke:#000000; stroke-width:4; stroke-opacity:1; fill:none" points="
  1997.7,563.271 1997.7,532.322 
  "/>
<polyline clip-path="url(#clip022)" style="stroke:#000000; stroke-width:4; stroke-opacity:1; fill:none" points="
  2291.13,566.476 2291.13,505.885 
  "/>
<line clip-path="url(#clip022)" x1="253.067" y1="1384.24" x2="221.067" y2="1384.24" style="stroke:#000000; stroke-width:3.2; stroke-opacity:1"/>
<line clip-path="url(#clip022)" x1="253.067" y1="1305.45" x2="221.067" y2="1305.45" style="stroke:#000000; stroke-width:3.2; stroke-opacity:1"/>
<line clip-path="url(#clip022)" x1="546.505" y1="1086.88" x2="514.505" y2="1086.88" style="stroke:#000000; stroke-width:3.2; stroke-opacity:1"/>
<line clip-path="url(#clip022)" x1="546.505" y1="1035.08" x2="514.505" y2="1035.08" style="stroke:#000000; stroke-width:3.2; stroke-opacity:1"/>
<line clip-path="url(#clip022)" x1="839.943" y1="855.067" x2="807.943" y2="855.067" style="stroke:#000000; stroke-width:3.2; stroke-opacity:1"/>
<line clip-path="url(#clip022)" x1="839.943" y1="761.95" x2="807.943" y2="761.95" style="stroke:#000000; stroke-width:3.2; stroke-opacity:1"/>
<line clip-path="url(#clip022)" x1="1133.38" y1="661.031" x2="1101.38" y2="661.031" style="stroke:#000000; stroke-width:3.2; stroke-opacity:1"/>
<line clip-path="url(#clip022)" x1="1133.38" y1="567.014" x2="1101.38" y2="567.014" style="stroke:#000000; stroke-width:3.2; stroke-opacity:1"/>
<line clip-path="url(#clip022)" x1="1426.82" y1="687.859" x2="1394.82" y2="687.859" style="stroke:#000000; stroke-width:3.2; stroke-opacity:1"/>
<line clip-path="url(#clip022)" x1="1426.82" y1="588.75" x2="1394.82" y2="588.75" style="stroke:#000000; stroke-width:3.2; stroke-opacity:1"/>
<line clip-path="url(#clip022)" x1="1720.26" y1="625.637" x2="1688.26" y2="625.637" style="stroke:#000000; stroke-width:3.2; stroke-opacity:1"/>
<line clip-path="url(#clip022)" x1="1720.26" y1="595.332" x2="1688.26" y2="595.332" style="stroke:#000000; stroke-width:3.2; stroke-opacity:1"/>
<line clip-path="url(#clip022)" x1="2013.7" y1="563.271" x2="1981.7" y2="563.271" style="stroke:#000000; stroke-width:3.2; stroke-opacity:1"/>
<line clip-path="url(#clip022)" x1="2013.7" y1="532.322" x2="1981.7" y2="532.322" style="stroke:#000000; stroke-width:3.2; stroke-opacity:1"/>
<line clip-path="url(#clip022)" x1="2307.13" y1="566.476" x2="2275.13" y2="566.476" style="stroke:#000000; stroke-width:3.2; stroke-opacity:1"/>
<line clip-path="url(#clip022)" x1="2307.13" y1="505.885" x2="2275.13" y2="505.885" style="stroke:#000000; stroke-width:3.2; stroke-opacity:1"/>
<path clip-path="url(#clip020)" d="
M248.022 274.549 L1128.16 274.549 L1128.16 93.1086 L248.022 93.1086  Z
  " fill="#ffffff" fill-rule="evenodd" fill-opacity="1"/>
<polyline clip-path="url(#clip020)" style="stroke:#000000; stroke-width:4; stroke-opacity:1; fill:none" points="
  248.022,274.549 1128.16,274.549 1128.16,93.1086 248.022,93.1086 248.022,274.549 
  "/>
<polyline clip-path="url(#clip020)" style="stroke:#0000ff; stroke-width:4; stroke-opacity:1; fill:none" points="
  272.215,153.589 417.369,153.589 
  "/>
<path clip-path="url(#clip020)" d="M 0 0 M463.806 137.443 L463.806 142.003 Q461.144 140.73 458.783 140.105 Q456.422 139.48 454.223 139.48 Q450.404 139.48 448.32 140.961 Q446.26 142.443 446.26 145.174 Q446.26 147.466 447.626 148.647 Q449.015 149.804 452.857 150.522 L455.681 151.1 Q460.913 152.096 463.39 154.619 Q465.89 157.119 465.89 161.332 Q465.89 166.355 462.51 168.947 Q459.153 171.54 452.649 171.54 Q450.195 171.54 447.417 170.984 Q444.663 170.429 441.7 169.341 L441.7 164.526 Q444.547 166.123 447.279 166.933 Q450.01 167.744 452.649 167.744 Q456.653 167.744 458.829 166.17 Q461.005 164.596 461.005 161.679 Q461.005 159.133 459.431 157.697 Q457.88 156.262 454.316 155.545 L451.468 154.989 Q446.237 153.947 443.899 151.725 Q441.561 149.503 441.561 145.545 Q441.561 140.961 444.779 138.322 Q448.019 135.684 453.691 135.684 Q456.121 135.684 458.644 136.123 Q461.167 136.563 463.806 137.443 Z" fill="#000000" fill-rule="evenodd" fill-opacity="1" /><path clip-path="url(#clip020)" d="M 0 0 M474.477 166.98 L474.477 180.73 L470.195 180.73 L470.195 144.943 L474.477 144.943 L474.477 148.878 Q475.82 146.563 477.857 145.452 Q479.917 144.318 482.764 144.318 Q487.487 144.318 490.426 148.068 Q493.389 151.818 493.389 157.929 Q493.389 164.04 490.426 167.79 Q487.487 171.54 482.764 171.54 Q479.917 171.54 477.857 170.429 Q475.82 169.295 474.477 166.98 M488.968 157.929 Q488.968 153.23 487.024 150.568 Q485.102 147.883 481.723 147.883 Q478.343 147.883 476.399 150.568 Q474.477 153.23 474.477 157.929 Q474.477 162.628 476.399 165.313 Q478.343 167.975 481.723 167.975 Q485.102 167.975 487.024 165.313 Q488.968 162.628 488.968 157.929 Z" fill="#000000" fill-rule="evenodd" fill-opacity="1" /><path clip-path="url(#clip020)" d="M 0 0 M520.033 156.841 L520.033 158.924 L500.45 158.924 Q500.727 163.322 503.088 165.637 Q505.473 167.929 509.709 167.929 Q512.162 167.929 514.454 167.327 Q516.769 166.725 519.037 165.521 L519.037 169.549 Q516.746 170.521 514.338 171.031 Q511.931 171.54 509.454 171.54 Q503.25 171.54 499.616 167.929 Q496.005 164.318 496.005 158.16 Q496.005 151.795 499.431 148.068 Q502.88 144.318 508.713 144.318 Q513.945 144.318 516.977 147.697 Q520.033 151.054 520.033 156.841 M515.774 155.591 Q515.727 152.096 513.806 150.012 Q511.908 147.929 508.76 147.929 Q505.195 147.929 503.042 149.943 Q500.912 151.957 500.588 155.614 L515.774 155.591 Z" fill="#000000" fill-rule="evenodd" fill-opacity="1" /><path clip-path="url(#clip020)" d="M 0 0 M546.676 156.841 L546.676 158.924 L527.093 158.924 Q527.371 163.322 529.732 165.637 Q532.116 167.929 536.352 167.929 Q538.806 167.929 541.097 167.327 Q543.412 166.725 545.681 165.521 L545.681 169.549 Q543.389 170.521 540.982 171.031 Q538.574 171.54 536.097 171.54 Q529.894 171.54 526.26 167.929 Q522.648 164.318 522.648 158.16 Q522.648 151.795 526.074 148.068 Q529.523 144.318 535.357 144.318 Q540.588 144.318 543.621 147.697 Q546.676 151.054 546.676 156.841 M542.417 155.591 Q542.371 152.096 540.449 150.012 Q538.551 147.929 535.403 147.929 Q531.838 147.929 529.685 149.943 Q527.556 151.957 527.232 155.614 L542.417 155.591 Z" fill="#000000" fill-rule="evenodd" fill-opacity="1" /><path clip-path="url(#clip020)" d="M 0 0 M568.204 148.878 L568.204 134.85 L572.463 134.85 L572.463 170.869 L568.204 170.869 L568.204 166.98 Q566.861 169.295 564.801 170.429 Q562.764 171.54 559.894 171.54 Q555.195 171.54 552.232 167.79 Q549.292 164.04 549.292 157.929 Q549.292 151.818 552.232 148.068 Q555.195 144.318 559.894 144.318 Q562.764 144.318 564.801 145.452 Q566.861 146.563 568.204 148.878 M553.69 157.929 Q553.69 162.628 555.611 165.313 Q557.556 167.975 560.935 167.975 Q564.315 167.975 566.259 165.313 Q568.204 162.628 568.204 157.929 Q568.204 153.23 566.259 150.568 Q564.315 147.883 560.935 147.883 Q557.556 147.883 555.611 150.568 Q553.69 153.23 553.69 157.929 Z" fill="#000000" fill-rule="evenodd" fill-opacity="1" /><path clip-path="url(#clip020)" d="M 0 0 M576.491 160.637 L576.491 144.943 L580.75 144.943 L580.75 160.475 Q580.75 164.156 582.185 166.008 Q583.62 167.836 586.491 167.836 Q589.94 167.836 591.931 165.637 Q593.944 163.438 593.944 159.642 L593.944 144.943 L598.204 144.943 L598.204 170.869 L593.944 170.869 L593.944 166.887 Q592.393 169.248 590.333 170.406 Q588.296 171.54 585.588 171.54 Q581.12 171.54 578.806 168.762 Q576.491 165.984 576.491 160.637 M587.208 144.318 L587.208 144.318 Z" fill="#000000" fill-rule="evenodd" fill-opacity="1" /><path clip-path="url(#clip020)" d="M 0 0 M606.792 166.98 L606.792 180.73 L602.509 180.73 L602.509 144.943 L606.792 144.943 L606.792 148.878 Q608.134 146.563 610.171 145.452 Q612.231 144.318 615.079 144.318 Q619.801 144.318 622.741 148.068 Q625.703 151.818 625.703 157.929 Q625.703 164.04 622.741 167.79 Q619.801 171.54 615.079 171.54 Q612.231 171.54 610.171 170.429 Q608.134 169.295 606.792 166.98 M621.282 157.929 Q621.282 153.23 619.338 150.568 Q617.416 147.883 614.037 147.883 Q610.657 147.883 608.713 150.568 Q606.792 153.23 606.792 157.929 Q606.792 162.628 608.713 165.313 Q610.657 167.975 614.037 167.975 Q617.416 167.975 619.338 165.313 Q621.282 162.628 621.282 157.929 Z" fill="#000000" fill-rule="evenodd" fill-opacity="1" /><path clip-path="url(#clip020)" d="M 0 0 M645.24 144.943 L649.5 144.943 L649.5 170.869 L645.24 170.869 L645.24 144.943 M645.24 134.85 L649.5 134.85 L649.5 140.244 L645.24 140.244 L645.24 134.85 Z" fill="#000000" fill-rule="evenodd" fill-opacity="1" /><path clip-path="url(#clip020)" d="M 0 0 M675.518 155.221 L675.518 170.869 L671.259 170.869 L671.259 155.359 Q671.259 151.679 669.824 149.85 Q668.388 148.022 665.518 148.022 Q662.069 148.022 660.078 150.221 Q658.088 152.42 658.088 156.216 L658.088 170.869 L653.805 170.869 L653.805 144.943 L658.088 144.943 L658.088 148.971 Q659.615 146.633 661.676 145.475 Q663.759 144.318 666.467 144.318 Q670.935 144.318 673.226 147.096 Q675.518 149.85 675.518 155.221 Z" fill="#000000" fill-rule="evenodd" fill-opacity="1" /><path clip-path="url(#clip020)" d="M 0 0 M695.24 136.309 L699.916 136.309 L699.916 168.461 Q699.916 174.711 697.532 177.535 Q695.171 180.359 689.916 180.359 L688.134 180.359 L688.134 176.424 L689.592 176.424 Q692.694 176.424 693.967 174.688 Q695.24 172.952 695.24 168.461 L695.24 136.309 Z" fill="#000000" fill-rule="evenodd" fill-opacity="1" /><path clip-path="url(#clip020)" d="M 0 0 M703.944 160.637 L703.944 144.943 L708.203 144.943 L708.203 160.475 Q708.203 164.156 709.638 166.008 Q711.073 167.836 713.944 167.836 Q717.393 167.836 719.384 165.637 Q721.397 163.438 721.397 159.642 L721.397 144.943 L725.657 144.943 L725.657 170.869 L721.397 170.869 L721.397 166.887 Q719.847 169.248 717.786 170.406 Q715.749 171.54 713.041 171.54 Q708.573 171.54 706.259 168.762 Q703.944 165.984 703.944 160.637 M714.661 144.318 L714.661 144.318 Z" fill="#000000" fill-rule="evenodd" fill-opacity="1" /><path clip-path="url(#clip020)" d="M 0 0 M730.124 134.85 L734.383 134.85 L734.383 170.869 L730.124 170.869 L730.124 134.85 Z" fill="#000000" fill-rule="evenodd" fill-opacity="1" /><path clip-path="url(#clip020)" d="M 0 0 M738.851 144.943 L743.11 144.943 L743.11 170.869 L738.851 170.869 L738.851 144.943 M738.851 134.85 L743.11 134.85 L743.11 140.244 L738.851 140.244 L738.851 134.85 Z" fill="#000000" fill-rule="evenodd" fill-opacity="1" /><path clip-path="url(#clip020)" d="M 0 0 M759.36 157.836 Q754.198 157.836 752.207 159.017 Q750.217 160.197 750.217 163.045 Q750.217 165.313 751.698 166.656 Q753.203 167.975 755.772 167.975 Q759.314 167.975 761.444 165.475 Q763.596 162.952 763.596 158.785 L763.596 157.836 L759.36 157.836 M767.856 156.077 L767.856 170.869 L763.596 170.869 L763.596 166.933 Q762.138 169.295 759.962 170.429 Q757.786 171.54 754.638 171.54 Q750.657 171.54 748.295 169.318 Q745.957 167.072 745.957 163.322 Q745.957 158.947 748.874 156.725 Q751.814 154.503 757.624 154.503 L763.596 154.503 L763.596 154.086 Q763.596 151.147 761.652 149.549 Q759.731 147.929 756.235 147.929 Q754.013 147.929 751.907 148.461 Q749.8 148.994 747.856 150.059 L747.856 146.123 Q750.194 145.221 752.393 144.781 Q754.592 144.318 756.675 144.318 Q762.3 144.318 765.078 147.234 Q767.856 150.151 767.856 156.077 Z" fill="#000000" fill-rule="evenodd" fill-opacity="1" /><path clip-path="url(#clip020)" d="M 0 0 M786.953 160.637 L786.953 144.943 L791.212 144.943 L791.212 160.475 Q791.212 164.156 792.647 166.008 Q794.082 167.836 796.953 167.836 Q800.402 167.836 802.392 165.637 Q804.406 163.438 804.406 159.642 L804.406 144.943 L808.665 144.943 L808.665 170.869 L804.406 170.869 L804.406 166.887 Q802.855 169.248 800.795 170.406 Q798.758 171.54 796.05 171.54 Q791.582 171.54 789.267 168.762 Q786.953 165.984 786.953 160.637 M797.67 144.318 L797.67 144.318 Z" fill="#000000" fill-rule="evenodd" fill-opacity="1" /><path clip-path="url(#clip020)" d="M 0 0 M829.661 145.707 L829.661 149.734 Q827.855 148.809 825.911 148.346 Q823.966 147.883 821.883 147.883 Q818.712 147.883 817.115 148.855 Q815.54 149.827 815.54 151.771 Q815.54 153.253 816.675 154.109 Q817.809 154.943 821.235 155.707 L822.693 156.031 Q827.23 157.003 829.128 158.785 Q831.05 160.545 831.05 163.716 Q831.05 167.327 828.179 169.433 Q825.332 171.54 820.332 171.54 Q818.249 171.54 815.98 171.123 Q813.735 170.73 811.235 169.92 L811.235 165.521 Q813.596 166.748 815.888 167.373 Q818.179 167.975 820.425 167.975 Q823.434 167.975 825.054 166.957 Q826.675 165.915 826.675 164.04 Q826.675 162.304 825.494 161.378 Q824.337 160.452 820.378 159.596 L818.897 159.248 Q814.939 158.415 813.179 156.702 Q811.42 154.966 811.42 151.957 Q811.42 148.299 814.013 146.309 Q816.605 144.318 821.374 144.318 Q823.735 144.318 825.818 144.665 Q827.901 145.012 829.661 145.707 Z" fill="#000000" fill-rule="evenodd" fill-opacity="1" /><path clip-path="url(#clip020)" d="M 0 0 M835.517 144.943 L839.776 144.943 L839.776 170.869 L835.517 170.869 L835.517 144.943 M835.517 134.85 L839.776 134.85 L839.776 140.244 L835.517 140.244 L835.517 134.85 Z" fill="#000000" fill-rule="evenodd" fill-opacity="1" /><path clip-path="url(#clip020)" d="M 0 0 M865.795 155.221 L865.795 170.869 L861.536 170.869 L861.536 155.359 Q861.536 151.679 860.1 149.85 Q858.665 148.022 855.795 148.022 Q852.346 148.022 850.355 150.221 Q848.364 152.42 848.364 156.216 L848.364 170.869 L844.082 170.869 L844.082 144.943 L848.364 144.943 L848.364 148.971 Q849.892 146.633 851.952 145.475 Q854.036 144.318 856.744 144.318 Q861.211 144.318 863.503 147.096 Q865.795 149.85 865.795 155.221 Z" fill="#000000" fill-rule="evenodd" fill-opacity="1" /><path clip-path="url(#clip020)" d="M 0 0 M887.322 157.605 Q887.322 152.975 885.401 150.429 Q883.503 147.883 880.054 147.883 Q876.628 147.883 874.707 150.429 Q872.809 152.975 872.809 157.605 Q872.809 162.211 874.707 164.758 Q876.628 167.304 880.054 167.304 Q883.503 167.304 885.401 164.758 Q887.322 162.211 887.322 157.605 M891.582 167.651 Q891.582 174.271 888.642 177.489 Q885.702 180.73 879.637 180.73 Q877.392 180.73 875.401 180.382 Q873.41 180.058 871.536 179.364 L871.536 175.22 Q873.41 176.239 875.239 176.725 Q877.068 177.211 878.966 177.211 Q883.156 177.211 885.239 175.012 Q887.322 172.836 887.322 168.415 L887.322 166.308 Q886.003 168.6 883.943 169.734 Q881.883 170.869 879.012 170.869 Q874.244 170.869 871.327 167.234 Q868.411 163.6 868.411 157.605 Q868.411 151.586 871.327 147.952 Q874.244 144.318 879.012 144.318 Q881.883 144.318 883.943 145.452 Q886.003 146.586 887.322 148.878 L887.322 144.943 L891.582 144.943 L891.582 167.651 Z" fill="#000000" fill-rule="evenodd" fill-opacity="1" /><path clip-path="url(#clip020)" d="M 0 0 M906.512 136.309 L935.748 136.309 L935.748 140.244 L923.48 140.244 L923.48 170.869 L918.781 170.869 L918.781 140.244 L906.512 140.244 L906.512 136.309 Z" fill="#000000" fill-rule="evenodd" fill-opacity="1" /><path clip-path="url(#clip020)" d="M 0 0 M961.767 155.221 L961.767 170.869 L957.507 170.869 L957.507 155.359 Q957.507 151.679 956.072 149.85 Q954.637 148.022 951.767 148.022 Q948.318 148.022 946.327 150.221 Q944.336 152.42 944.336 156.216 L944.336 170.869 L940.054 170.869 L940.054 134.85 L944.336 134.85 L944.336 148.971 Q945.864 146.633 947.924 145.475 Q950.007 144.318 952.716 144.318 Q957.183 144.318 959.475 147.096 Q961.767 149.85 961.767 155.221 Z" fill="#000000" fill-rule="evenodd" fill-opacity="1" /><path clip-path="url(#clip020)" d="M 0 0 M981.257 148.924 Q980.54 148.508 979.683 148.322 Q978.85 148.114 977.831 148.114 Q974.22 148.114 972.276 150.475 Q970.354 152.813 970.354 157.211 L970.354 170.869 L966.072 170.869 L966.072 144.943 L970.354 144.943 L970.354 148.971 Q971.697 146.609 973.85 145.475 Q976.003 144.318 979.081 144.318 Q979.521 144.318 980.053 144.387 Q980.586 144.434 981.234 144.549 L981.257 148.924 Z" fill="#000000" fill-rule="evenodd" fill-opacity="1" /><path clip-path="url(#clip020)" d="M 0 0 M1006.86 156.841 L1006.86 158.924 L987.276 158.924 Q987.553 163.322 989.915 165.637 Q992.299 167.929 996.535 167.929 Q998.989 167.929 1001.28 167.327 Q1003.59 166.725 1005.86 165.521 L1005.86 169.549 Q1003.57 170.521 1001.16 171.031 Q998.757 171.54 996.28 171.54 Q990.077 171.54 986.442 167.929 Q982.831 164.318 982.831 158.16 Q982.831 151.795 986.257 148.068 Q989.706 144.318 995.539 144.318 Q1000.77 144.318 1003.8 147.697 Q1006.86 151.054 1006.86 156.841 M1002.6 155.591 Q1002.55 152.096 1000.63 150.012 Q998.734 147.929 995.586 147.929 Q992.021 147.929 989.868 149.943 Q987.739 151.957 987.415 155.614 L1002.6 155.591 Z" fill="#000000" fill-rule="evenodd" fill-opacity="1" /><path clip-path="url(#clip020)" d="M 0 0 M1023.11 157.836 Q1017.95 157.836 1015.96 159.017 Q1013.97 160.197 1013.97 163.045 Q1013.97 165.313 1015.45 166.656 Q1016.95 167.975 1019.52 167.975 Q1023.06 167.975 1025.19 165.475 Q1027.34 162.952 1027.34 158.785 L1027.34 157.836 L1023.11 157.836 M1031.6 156.077 L1031.6 170.869 L1027.34 170.869 L1027.34 166.933 Q1025.89 169.295 1023.71 170.429 Q1021.53 171.54 1018.39 171.54 Q1014.41 171.54 1012.04 169.318 Q1009.71 167.072 1009.71 163.322 Q1009.71 158.947 1012.62 156.725 Q1015.56 154.503 1021.37 154.503 L1027.34 154.503 L1027.34 154.086 Q1027.34 151.147 1025.4 149.549 Q1023.48 147.929 1019.98 147.929 Q1017.76 147.929 1015.66 148.461 Q1013.55 148.994 1011.6 150.059 L1011.6 146.123 Q1013.94 145.221 1016.14 144.781 Q1018.34 144.318 1020.42 144.318 Q1026.05 144.318 1028.83 147.234 Q1031.6 150.151 1031.6 156.077 Z" fill="#000000" fill-rule="evenodd" fill-opacity="1" /><path clip-path="url(#clip020)" d="M 0 0 M1053.13 148.878 L1053.13 134.85 L1057.39 134.85 L1057.39 170.869 L1053.13 170.869 L1053.13 166.98 Q1051.79 169.295 1049.73 170.429 Q1047.69 171.54 1044.82 171.54 Q1040.12 171.54 1037.16 167.79 Q1034.22 164.04 1034.22 157.929 Q1034.22 151.818 1037.16 148.068 Q1040.12 144.318 1044.82 144.318 Q1047.69 144.318 1049.73 145.452 Q1051.79 146.563 1053.13 148.878 M1038.62 157.929 Q1038.62 162.628 1040.54 165.313 Q1042.48 167.975 1045.86 167.975 Q1049.24 167.975 1051.19 165.313 Q1053.13 162.628 1053.13 157.929 Q1053.13 153.23 1051.19 150.568 Q1049.24 147.883 1045.86 147.883 Q1042.48 147.883 1040.54 150.568 Q1038.62 153.23 1038.62 157.929 Z" fill="#000000" fill-rule="evenodd" fill-opacity="1" /><path clip-path="url(#clip020)" d="M 0 0 M1078.39 145.707 L1078.39 149.734 Q1076.58 148.809 1074.64 148.346 Q1072.69 147.883 1070.61 147.883 Q1067.44 147.883 1065.84 148.855 Q1064.27 149.827 1064.27 151.771 Q1064.27 153.253 1065.4 154.109 Q1066.53 154.943 1069.96 155.707 L1071.42 156.031 Q1075.96 157.003 1077.85 158.785 Q1079.78 160.545 1079.78 163.716 Q1079.78 167.327 1076.9 169.433 Q1074.06 171.54 1069.06 171.54 Q1066.97 171.54 1064.71 171.123 Q1062.46 170.73 1059.96 169.92 L1059.96 165.521 Q1062.32 166.748 1064.61 167.373 Q1066.9 167.975 1069.15 167.975 Q1072.16 167.975 1073.78 166.957 Q1075.4 165.915 1075.4 164.04 Q1075.4 162.304 1074.22 161.378 Q1073.06 160.452 1069.1 159.596 L1067.62 159.248 Q1063.66 158.415 1061.9 156.702 Q1060.15 154.966 1060.15 151.957 Q1060.15 148.299 1062.74 146.309 Q1065.33 144.318 1070.1 144.318 Q1072.46 144.318 1074.54 144.665 Q1076.63 145.012 1078.39 145.707 Z" fill="#000000" fill-rule="evenodd" fill-opacity="1" /><polyline clip-path="url(#clip020)" style="stroke:#ff0000; stroke-width:4; stroke-opacity:1; fill:none" points="
  272.215,214.069 417.369,214.069 
  "/>
<path clip-path="url(#clip020)" d="M 0 0 M463.806 197.923 L463.806 202.483 Q461.144 201.21 458.783 200.585 Q456.422 199.96 454.223 199.96 Q450.404 199.96 448.32 201.441 Q446.26 202.923 446.26 205.654 Q446.26 207.946 447.626 209.127 Q449.015 210.284 452.857 211.002 L455.681 211.58 Q460.913 212.576 463.39 215.099 Q465.89 217.599 465.89 221.812 Q465.89 226.835 462.51 229.427 Q459.153 232.02 452.649 232.02 Q450.195 232.02 447.417 231.464 Q444.663 230.909 441.7 229.821 L441.7 225.006 Q444.547 226.603 447.279 227.413 Q450.01 228.224 452.649 228.224 Q456.653 228.224 458.829 226.65 Q461.005 225.076 461.005 222.159 Q461.005 219.613 459.431 218.177 Q457.88 216.742 454.316 216.025 L451.468 215.469 Q446.237 214.427 443.899 212.205 Q441.561 209.983 441.561 206.025 Q441.561 201.441 444.779 198.802 Q448.019 196.164 453.691 196.164 Q456.121 196.164 458.644 196.603 Q461.167 197.043 463.806 197.923 Z" fill="#000000" fill-rule="evenodd" fill-opacity="1" /><path clip-path="url(#clip020)" d="M 0 0 M474.477 227.46 L474.477 241.21 L470.195 241.21 L470.195 205.423 L474.477 205.423 L474.477 209.358 Q475.82 207.043 477.857 205.932 Q479.917 204.798 482.764 204.798 Q487.487 204.798 490.426 208.548 Q493.389 212.298 493.389 218.409 Q493.389 224.52 490.426 228.27 Q487.487 232.02 482.764 232.02 Q479.917 232.02 477.857 230.909 Q475.82 229.775 474.477 227.46 M488.968 218.409 Q488.968 213.71 487.024 211.048 Q485.102 208.363 481.723 208.363 Q478.343 208.363 476.399 211.048 Q474.477 213.71 474.477 218.409 Q474.477 223.108 476.399 225.793 Q478.343 228.455 481.723 228.455 Q485.102 228.455 487.024 225.793 Q488.968 223.108 488.968 218.409 Z" fill="#000000" fill-rule="evenodd" fill-opacity="1" /><path clip-path="url(#clip020)" d="M 0 0 M520.033 217.321 L520.033 219.404 L500.45 219.404 Q500.727 223.802 503.088 226.117 Q505.473 228.409 509.709 228.409 Q512.162 228.409 514.454 227.807 Q516.769 227.205 519.037 226.001 L519.037 230.029 Q516.746 231.001 514.338 231.511 Q511.931 232.02 509.454 232.02 Q503.25 232.02 499.616 228.409 Q496.005 224.798 496.005 218.64 Q496.005 212.275 499.431 208.548 Q502.88 204.798 508.713 204.798 Q513.945 204.798 516.977 208.177 Q520.033 211.534 520.033 217.321 M515.774 216.071 Q515.727 212.576 513.806 210.492 Q511.908 208.409 508.76 208.409 Q505.195 208.409 503.042 210.423 Q500.912 212.437 500.588 216.094 L515.774 216.071 Z" fill="#000000" fill-rule="evenodd" fill-opacity="1" /><path clip-path="url(#clip020)" d="M 0 0 M546.676 217.321 L546.676 219.404 L527.093 219.404 Q527.371 223.802 529.732 226.117 Q532.116 228.409 536.352 228.409 Q538.806 228.409 541.097 227.807 Q543.412 227.205 545.681 226.001 L545.681 230.029 Q543.389 231.001 540.982 231.511 Q538.574 232.02 536.097 232.02 Q529.894 232.02 526.26 228.409 Q522.648 224.798 522.648 218.64 Q522.648 212.275 526.074 208.548 Q529.523 204.798 535.357 204.798 Q540.588 204.798 543.621 208.177 Q546.676 211.534 546.676 217.321 M542.417 216.071 Q542.371 212.576 540.449 210.492 Q538.551 208.409 535.403 208.409 Q531.838 208.409 529.685 210.423 Q527.556 212.437 527.232 216.094 L542.417 216.071 Z" fill="#000000" fill-rule="evenodd" fill-opacity="1" /><path clip-path="url(#clip020)" d="M 0 0 M568.204 209.358 L568.204 195.33 L572.463 195.33 L572.463 231.349 L568.204 231.349 L568.204 227.46 Q566.861 229.775 564.801 230.909 Q562.764 232.02 559.894 232.02 Q555.195 232.02 552.232 228.27 Q549.292 224.52 549.292 218.409 Q549.292 212.298 552.232 208.548 Q555.195 204.798 559.894 204.798 Q562.764 204.798 564.801 205.932 Q566.861 207.043 568.204 209.358 M553.69 218.409 Q553.69 223.108 555.611 225.793 Q557.556 228.455 560.935 228.455 Q564.315 228.455 566.259 225.793 Q568.204 223.108 568.204 218.409 Q568.204 213.71 566.259 211.048 Q564.315 208.363 560.935 208.363 Q557.556 208.363 555.611 211.048 Q553.69 213.71 553.69 218.409 Z" fill="#000000" fill-rule="evenodd" fill-opacity="1" /><path clip-path="url(#clip020)" d="M 0 0 M576.491 221.117 L576.491 205.423 L580.75 205.423 L580.75 220.955 Q580.75 224.636 582.185 226.488 Q583.62 228.316 586.491 228.316 Q589.94 228.316 591.931 226.117 Q593.944 223.918 593.944 220.122 L593.944 205.423 L598.204 205.423 L598.204 231.349 L593.944 231.349 L593.944 227.367 Q592.393 229.728 590.333 230.886 Q588.296 232.02 585.588 232.02 Q581.12 232.02 578.806 229.242 Q576.491 226.464 576.491 221.117 M587.208 204.798 L587.208 204.798 Z" fill="#000000" fill-rule="evenodd" fill-opacity="1" /><path clip-path="url(#clip020)" d="M 0 0 M606.792 227.46 L606.792 241.21 L602.509 241.21 L602.509 205.423 L606.792 205.423 L606.792 209.358 Q608.134 207.043 610.171 205.932 Q612.231 204.798 615.079 204.798 Q619.801 204.798 622.741 208.548 Q625.703 212.298 625.703 218.409 Q625.703 224.52 622.741 228.27 Q619.801 232.02 615.079 232.02 Q612.231 232.02 610.171 230.909 Q608.134 229.775 606.792 227.46 M621.282 218.409 Q621.282 213.71 619.338 211.048 Q617.416 208.363 614.037 208.363 Q610.657 208.363 608.713 211.048 Q606.792 213.71 606.792 218.409 Q606.792 223.108 608.713 225.793 Q610.657 228.455 614.037 228.455 Q617.416 228.455 619.338 225.793 Q621.282 223.108 621.282 218.409 Z" fill="#000000" fill-rule="evenodd" fill-opacity="1" /><path clip-path="url(#clip020)" d="M 0 0 M645.24 205.423 L649.5 205.423 L649.5 231.349 L645.24 231.349 L645.24 205.423 M645.24 195.33 L649.5 195.33 L649.5 200.724 L645.24 200.724 L645.24 195.33 Z" fill="#000000" fill-rule="evenodd" fill-opacity="1" /><path clip-path="url(#clip020)" d="M 0 0 M675.518 215.701 L675.518 231.349 L671.259 231.349 L671.259 215.839 Q671.259 212.159 669.824 210.33 Q668.388 208.502 665.518 208.502 Q662.069 208.502 660.078 210.701 Q658.088 212.9 658.088 216.696 L658.088 231.349 L653.805 231.349 L653.805 205.423 L658.088 205.423 L658.088 209.451 Q659.615 207.113 661.676 205.955 Q663.759 204.798 666.467 204.798 Q670.935 204.798 673.226 207.576 Q675.518 210.33 675.518 215.701 Z" fill="#000000" fill-rule="evenodd" fill-opacity="1" /><path clip-path="url(#clip020)" d="M 0 0 M721.12 199.451 L721.12 204.381 Q718.759 202.182 716.073 201.094 Q713.411 200.006 710.402 200.006 Q704.476 200.006 701.328 203.64 Q698.18 207.252 698.18 214.103 Q698.18 220.932 701.328 224.566 Q704.476 228.177 710.402 228.177 Q713.411 228.177 716.073 227.089 Q718.759 226.001 721.12 223.802 L721.12 228.687 Q718.666 230.353 715.911 231.187 Q713.18 232.02 710.124 232.02 Q702.277 232.02 697.763 227.228 Q693.249 222.413 693.249 214.103 Q693.249 205.77 697.763 200.978 Q702.277 196.164 710.124 196.164 Q713.226 196.164 715.958 196.997 Q718.712 197.807 721.12 199.451 Z" fill="#000000" fill-rule="evenodd" fill-opacity="1" /><path clip-path="url(#clip020)" d="M 0 0 M740.217 221.117 L740.217 205.423 L744.476 205.423 L744.476 220.955 Q744.476 224.636 745.911 226.488 Q747.346 228.316 750.217 228.316 Q753.666 228.316 755.656 226.117 Q757.67 223.918 757.67 220.122 L757.67 205.423 L761.93 205.423 L761.93 231.349 L757.67 231.349 L757.67 227.367 Q756.119 229.728 754.059 230.886 Q752.022 232.02 749.314 232.02 Q744.846 232.02 742.532 229.242 Q740.217 226.464 740.217 221.117 M750.934 204.798 L750.934 204.798 Z" fill="#000000" fill-rule="evenodd" fill-opacity="1" /><path clip-path="url(#clip020)" d="M 0 0 M782.925 206.187 L782.925 210.214 Q781.119 209.289 779.175 208.826 Q777.23 208.363 775.147 208.363 Q771.976 208.363 770.379 209.335 Q768.805 210.307 768.805 212.251 Q768.805 213.733 769.939 214.589 Q771.073 215.423 774.499 216.187 L775.957 216.511 Q780.494 217.483 782.392 219.265 Q784.314 221.025 784.314 224.196 Q784.314 227.807 781.443 229.913 Q778.596 232.02 773.596 232.02 Q771.513 232.02 769.244 231.603 Q766.999 231.21 764.499 230.4 L764.499 226.001 Q766.86 227.228 769.152 227.853 Q771.443 228.455 773.689 228.455 Q776.698 228.455 778.318 227.437 Q779.939 226.395 779.939 224.52 Q779.939 222.784 778.758 221.858 Q777.601 220.932 773.643 220.076 L772.161 219.728 Q768.203 218.895 766.443 217.182 Q764.684 215.446 764.684 212.437 Q764.684 208.779 767.277 206.789 Q769.869 204.798 774.638 204.798 Q776.999 204.798 779.082 205.145 Q781.166 205.492 782.925 206.187 Z" fill="#000000" fill-rule="evenodd" fill-opacity="1" /><path clip-path="url(#clip020)" d="M 0 0 M788.781 205.423 L793.041 205.423 L793.041 231.349 L788.781 231.349 L788.781 205.423 M788.781 195.33 L793.041 195.33 L793.041 200.724 L788.781 200.724 L788.781 195.33 Z" fill="#000000" fill-rule="evenodd" fill-opacity="1" /><path clip-path="url(#clip020)" d="M 0 0 M819.059 215.701 L819.059 231.349 L814.8 231.349 L814.8 215.839 Q814.8 212.159 813.365 210.33 Q811.929 208.502 809.059 208.502 Q805.61 208.502 803.619 210.701 Q801.628 212.9 801.628 216.696 L801.628 231.349 L797.346 231.349 L797.346 205.423 L801.628 205.423 L801.628 209.451 Q803.156 207.113 805.216 205.955 Q807.3 204.798 810.008 204.798 Q814.476 204.798 816.767 207.576 Q819.059 210.33 819.059 215.701 Z" fill="#000000" fill-rule="evenodd" fill-opacity="1" /><path clip-path="url(#clip020)" d="M 0 0 M840.587 218.085 Q840.587 213.455 838.665 210.909 Q836.767 208.363 833.318 208.363 Q829.892 208.363 827.971 210.909 Q826.073 213.455 826.073 218.085 Q826.073 222.691 827.971 225.238 Q829.892 227.784 833.318 227.784 Q836.767 227.784 838.665 225.238 Q840.587 222.691 840.587 218.085 M844.846 228.131 Q844.846 234.751 841.906 237.969 Q838.966 241.21 832.901 241.21 Q830.656 241.21 828.665 240.862 Q826.675 240.538 824.8 239.844 L824.8 235.7 Q826.675 236.719 828.503 237.205 Q830.332 237.691 832.23 237.691 Q836.42 237.691 838.503 235.492 Q840.587 233.316 840.587 228.895 L840.587 226.788 Q839.267 229.08 837.207 230.214 Q835.147 231.349 832.276 231.349 Q827.508 231.349 824.591 227.714 Q821.675 224.08 821.675 218.085 Q821.675 212.066 824.591 208.432 Q827.508 204.798 832.276 204.798 Q835.147 204.798 837.207 205.932 Q839.267 207.066 840.587 209.358 L840.587 205.423 L844.846 205.423 L844.846 228.131 Z" fill="#000000" fill-rule="evenodd" fill-opacity="1" /><path clip-path="url(#clip020)" d="M 0 0 M878.596 199.96 Q873.503 199.96 870.494 203.756 Q867.508 207.552 867.508 214.103 Q867.508 220.631 870.494 224.427 Q873.503 228.224 878.596 228.224 Q883.688 228.224 886.651 224.427 Q889.637 220.631 889.637 214.103 Q889.637 207.552 886.651 203.756 Q883.688 199.96 878.596 199.96 M878.596 196.164 Q885.864 196.164 890.216 201.048 Q894.568 205.909 894.568 214.103 Q894.568 222.275 890.216 227.159 Q885.864 232.02 878.596 232.02 Q871.304 232.02 866.929 227.159 Q862.577 222.298 862.577 214.103 Q862.577 205.909 866.929 201.048 Q871.304 196.164 878.596 196.164 Z" fill="#000000" fill-rule="evenodd" fill-opacity="1" /><path clip-path="url(#clip020)" d="M 0 0 M903.156 227.46 L903.156 241.21 L898.873 241.21 L898.873 205.423 L903.156 205.423 L903.156 209.358 Q904.498 207.043 906.535 205.932 Q908.595 204.798 911.443 204.798 Q916.165 204.798 919.105 208.548 Q922.068 212.298 922.068 218.409 Q922.068 224.52 919.105 228.27 Q916.165 232.02 911.443 232.02 Q908.595 232.02 906.535 230.909 Q904.498 229.775 903.156 227.46 M917.646 218.409 Q917.646 213.71 915.702 211.048 Q913.781 208.363 910.401 208.363 Q907.021 208.363 905.077 211.048 Q903.156 213.71 903.156 218.409 Q903.156 223.108 905.077 225.793 Q907.021 228.455 910.401 228.455 Q913.781 228.455 915.702 225.793 Q917.646 223.108 917.646 218.409 Z" fill="#000000" fill-rule="evenodd" fill-opacity="1" /><path clip-path="url(#clip020)" d="M 0 0 M948.711 217.321 L948.711 219.404 L929.128 219.404 Q929.406 223.802 931.767 226.117 Q934.151 228.409 938.387 228.409 Q940.841 228.409 943.132 227.807 Q945.447 227.205 947.716 226.001 L947.716 230.029 Q945.424 231.001 943.017 231.511 Q940.609 232.02 938.132 232.02 Q931.929 232.02 928.294 228.409 Q924.683 224.798 924.683 218.64 Q924.683 212.275 928.109 208.548 Q931.558 204.798 937.392 204.798 Q942.623 204.798 945.655 208.177 Q948.711 211.534 948.711 217.321 M944.452 216.071 Q944.405 212.576 942.484 210.492 Q940.586 208.409 937.438 208.409 Q933.873 208.409 931.72 210.423 Q929.591 212.437 929.267 216.094 L944.452 216.071 Z" fill="#000000" fill-rule="evenodd" fill-opacity="1" /><path clip-path="url(#clip020)" d="M 0 0 M974.729 215.701 L974.729 231.349 L970.47 231.349 L970.47 215.839 Q970.47 212.159 969.035 210.33 Q967.6 208.502 964.729 208.502 Q961.28 208.502 959.29 210.701 Q957.299 212.9 957.299 216.696 L957.299 231.349 L953.017 231.349 L953.017 205.423 L957.299 205.423 L957.299 209.451 Q958.827 207.113 960.887 205.955 Q962.97 204.798 965.679 204.798 Q970.146 204.798 972.438 207.576 Q974.729 210.33 974.729 215.701 Z" fill="#000000" fill-rule="evenodd" fill-opacity="1" /><path clip-path="url(#clip020)" d="M 0 0 M979.382 196.789 L986.35 196.789 L995.169 220.307 L1004.03 196.789 L1011 196.789 L1011 231.349 L1006.44 231.349 L1006.44 201.002 L997.53 224.705 L992.831 224.705 L983.919 201.002 L983.919 231.349 L979.382 231.349 L979.382 196.789 Z" fill="#000000" fill-rule="evenodd" fill-opacity="1" /><path clip-path="url(#clip020)" d="M 0 0 M1020.33 200.631 L1020.33 213.617 L1026.21 213.617 Q1029.47 213.617 1031.26 211.927 Q1033.04 210.238 1033.04 207.113 Q1033.04 204.011 1031.26 202.321 Q1029.47 200.631 1026.21 200.631 L1020.33 200.631 M1015.66 196.789 L1026.21 196.789 Q1032.02 196.789 1034.98 199.427 Q1037.97 202.043 1037.97 207.113 Q1037.97 212.228 1034.98 214.844 Q1032.02 217.46 1026.21 217.46 L1020.33 217.46 L1020.33 231.349 L1015.66 231.349 L1015.66 196.789 Z" fill="#000000" fill-rule="evenodd" fill-opacity="1" /></svg>
