<?xml version="1.0" encoding="utf-8"?>
<svg xmlns="http://www.w3.org/2000/svg" xmlns:xlink="http://www.w3.org/1999/xlink" width="600" height="400" viewBox="0 0 2400 1600">
<defs>
  <clipPath id="clip660">
    <rect x="0" y="0" width="2400" height="1600"/>
  </clipPath>
</defs>
<path clip-path="url(#clip660)" d="
M0 1600 L2400 1600 L2400 0 L0 0  Z
  " fill="#ffffff" fill-rule="evenodd" fill-opacity="1"/>
<defs>
  <clipPath id="clip661">
    <rect x="480" y="0" width="1681" height="1600"/>
  </clipPath>
</defs>
<path clip-path="url(#clip660)" d="
M175.445 1423.18 L2352.76 1423.18 L2352.76 47.2441 L175.445 47.2441  Z
  " fill="#ffffff" fill-rule="evenodd" fill-opacity="1"/>
<defs>
  <clipPath id="clip662">
    <rect x="175" y="47" width="2178" height="1377"/>
  </clipPath>
</defs>
<polyline clip-path="url(#clip662)" style="stroke:#000000; stroke-width:2; stroke-opacity:0.1; fill:none" points="
  530.505,1423.18 530.505,47.2441 
  "/>
<polyline clip-path="url(#clip662)" style="stroke:#000000; stroke-width:2; stroke-opacity:0.1; fill:none" points="
  1117.38,1423.18 1117.38,47.2441 
  "/>
<polyline clip-path="url(#clip662)" style="stroke:#000000; stroke-width:2; stroke-opacity:0.1; fill:none" points="
  1704.26,1423.18 1704.26,47.2441 
  "/>
<polyline clip-path="url(#clip662)" style="stroke:#000000; stroke-width:2; stroke-opacity:0.1; fill:none" points="
  2291.13,1423.18 2291.13,47.2441 
  "/>
<polyline clip-path="url(#clip660)" style="stroke:#000000; stroke-width:4; stroke-opacity:1; fill:none" points="
  175.445,1423.18 2352.76,1423.18 
  "/>
<polyline clip-path="url(#clip660)" style="stroke:#000000; stroke-width:4; stroke-opacity:1; fill:none" points="
  530.505,1423.18 530.505,1406.67 
  "/>
<polyline clip-path="url(#clip660)" style="stroke:#000000; stroke-width:4; stroke-opacity:1; fill:none" points="
  1117.38,1423.18 1117.38,1406.67 
  "/>
<polyline clip-path="url(#clip660)" style="stroke:#000000; stroke-width:4; stroke-opacity:1; fill:none" points="
  1704.26,1423.18 1704.26,1406.67 
  "/>
<polyline clip-path="url(#clip660)" style="stroke:#000000; stroke-width:4; stroke-opacity:1; fill:none" points="
  2291.13,1423.18 2291.13,1406.67 
  "/>
<path clip-path="url(#clip660)" d="M 0 0 M525.158 1479.92 L541.477 1479.92 L541.477 1483.85 L519.533 1483.85 L519.533 1479.92 Q522.195 1477.16 526.778 1472.53 Q531.385 1467.88 532.565 1466.54 Q534.811 1464.01 535.69 1462.28 Q536.593 1460.52 536.593 1458.83 Q536.593 1456.07 534.649 1454.34 Q532.728 1452.6 529.626 1452.6 Q527.427 1452.6 524.973 1453.37 Q522.542 1454.13 519.765 1455.68 L519.765 1450.96 Q522.589 1449.82 525.042 1449.25 Q527.496 1448.67 529.533 1448.67 Q534.903 1448.67 538.098 1451.35 Q541.292 1454.04 541.292 1458.53 Q541.292 1460.66 540.482 1462.58 Q539.695 1464.48 537.589 1467.07 Q537.01 1467.74 533.908 1470.96 Q530.806 1474.15 525.158 1479.92 Z" fill="#000000" fill-rule="evenodd" fill-opacity="1" /><path clip-path="url(#clip660)" d="M 0 0 M1120.39 1453.37 L1108.59 1471.81 L1120.39 1471.81 L1120.39 1453.37 M1119.16 1449.29 L1125.04 1449.29 L1125.04 1471.81 L1129.97 1471.81 L1129.97 1475.7 L1125.04 1475.7 L1125.04 1483.85 L1120.39 1483.85 L1120.39 1475.7 L1104.79 1475.7 L1104.79 1471.19 L1119.16 1449.29 Z" fill="#000000" fill-rule="evenodd" fill-opacity="1" /><path clip-path="url(#clip660)" d="M 0 0 M1704.66 1464.71 Q1701.51 1464.71 1699.66 1466.86 Q1697.83 1469.01 1697.83 1472.76 Q1697.83 1476.49 1699.66 1478.67 Q1701.51 1480.82 1704.66 1480.82 Q1707.81 1480.82 1709.64 1478.67 Q1711.49 1476.49 1711.49 1472.76 Q1711.49 1469.01 1709.64 1466.86 Q1707.81 1464.71 1704.66 1464.71 M1713.95 1450.06 L1713.95 1454.31 Q1712.19 1453.48 1710.38 1453.04 Q1708.6 1452.6 1706.84 1452.6 Q1702.21 1452.6 1699.76 1455.73 Q1697.32 1458.85 1696.98 1465.17 Q1698.34 1463.16 1700.4 1462.09 Q1702.46 1461 1704.94 1461 Q1710.15 1461 1713.16 1464.18 Q1716.19 1467.32 1716.19 1472.76 Q1716.19 1478.09 1713.04 1481.31 Q1709.89 1484.52 1704.66 1484.52 Q1698.67 1484.52 1695.5 1479.94 Q1692.32 1475.33 1692.32 1466.61 Q1692.32 1458.41 1696.21 1453.55 Q1700.1 1448.67 1706.65 1448.67 Q1708.41 1448.67 1710.2 1449.01 Q1712 1449.36 1713.95 1450.06 Z" fill="#000000" fill-rule="evenodd" fill-opacity="1" /><path clip-path="url(#clip660)" d="M 0 0 M2291.13 1467.44 Q2287.8 1467.44 2285.88 1469.22 Q2283.98 1471 2283.98 1474.13 Q2283.98 1477.25 2285.88 1479.04 Q2287.8 1480.82 2291.13 1480.82 Q2294.47 1480.82 2296.39 1479.04 Q2298.31 1477.23 2298.31 1474.13 Q2298.31 1471 2296.39 1469.22 Q2294.49 1467.44 2291.13 1467.44 M2286.46 1465.45 Q2283.45 1464.71 2281.76 1462.65 Q2280.09 1460.59 2280.09 1457.63 Q2280.09 1453.48 2283.03 1451.07 Q2286 1448.67 2291.13 1448.67 Q2296.3 1448.67 2299.24 1451.07 Q2302.18 1453.48 2302.18 1457.63 Q2302.18 1460.59 2300.49 1462.65 Q2298.82 1464.71 2295.83 1465.45 Q2299.21 1466.24 2301.09 1468.53 Q2302.99 1470.82 2302.99 1474.13 Q2302.99 1479.15 2299.91 1481.84 Q2296.85 1484.52 2291.13 1484.52 Q2285.42 1484.52 2282.34 1481.84 Q2279.28 1479.15 2279.28 1474.13 Q2279.28 1470.82 2281.18 1468.53 Q2283.08 1466.24 2286.46 1465.45 M2284.75 1458.06 Q2284.75 1460.75 2286.41 1462.25 Q2288.1 1463.76 2291.13 1463.76 Q2294.14 1463.76 2295.83 1462.25 Q2297.55 1460.75 2297.55 1458.06 Q2297.55 1455.38 2295.83 1453.88 Q2294.14 1452.37 2291.13 1452.37 Q2288.1 1452.37 2286.41 1453.88 Q2284.75 1455.38 2284.75 1458.06 Z" fill="#000000" fill-rule="evenodd" fill-opacity="1" /><path clip-path="url(#clip660)" d="M 0 0 M1059.7 1508.52 L1068.36 1508.52 L1089.43 1548.28 L1089.43 1508.52 L1095.66 1508.52 L1095.66 1556.04 L1087.01 1556.04 L1065.94 1516.29 L1065.94 1556.04 L1059.7 1556.04 L1059.7 1508.52 Z" fill="#000000" fill-rule="evenodd" fill-opacity="1" /><path clip-path="url(#clip660)" d="M 0 0 M1115.62 1524.5 Q1110.91 1524.5 1108.17 1528.19 Q1105.44 1531.85 1105.44 1538.25 Q1105.44 1544.65 1108.14 1548.34 Q1110.88 1552 1115.62 1552 Q1120.3 1552 1123.04 1548.31 Q1125.77 1544.62 1125.77 1538.25 Q1125.77 1531.92 1123.04 1528.23 Q1120.3 1524.5 1115.62 1524.5 M1115.62 1519.54 Q1123.26 1519.54 1127.62 1524.5 Q1131.98 1529.47 1131.98 1538.25 Q1131.98 1547 1127.62 1552 Q1123.26 1556.97 1115.62 1556.97 Q1107.95 1556.97 1103.59 1552 Q1099.26 1547 1099.26 1538.25 Q1099.26 1529.47 1103.59 1524.5 Q1107.95 1519.54 1115.62 1519.54 Z" fill="#000000" fill-rule="evenodd" fill-opacity="1" /><path clip-path="url(#clip660)" d="M 0 0 M1137.8 1547.96 L1144.52 1547.96 L1144.52 1556.04 L1137.8 1556.04 L1137.8 1547.96 Z" fill="#000000" fill-rule="evenodd" fill-opacity="1" /><path clip-path="url(#clip660)" d="M 0 0 M1185.2 1524.5 Q1180.49 1524.5 1177.75 1528.19 Q1175.01 1531.85 1175.01 1538.25 Q1175.01 1544.65 1177.72 1548.34 Q1180.46 1552 1185.2 1552 Q1189.88 1552 1192.61 1548.31 Q1195.35 1544.62 1195.35 1538.25 Q1195.35 1531.92 1192.61 1528.23 Q1189.88 1524.5 1185.2 1524.5 M1185.2 1519.54 Q1192.84 1519.54 1197.2 1524.5 Q1201.56 1529.47 1201.56 1538.25 Q1201.56 1547 1197.2 1552 Q1192.84 1556.97 1185.2 1556.97 Q1177.53 1556.97 1173.17 1552 Q1168.84 1547 1168.84 1538.25 Q1168.84 1529.47 1173.17 1524.5 Q1177.53 1519.54 1185.2 1519.54 Z" fill="#000000" fill-rule="evenodd" fill-opacity="1" /><path clip-path="url(#clip660)" d="M 0 0 M1225.75 1506.52 L1225.75 1511.39 L1220.15 1511.39 Q1216.99 1511.39 1215.75 1512.66 Q1214.54 1513.93 1214.54 1517.24 L1214.54 1520.4 L1224.19 1520.4 L1224.19 1524.95 L1214.54 1524.95 L1214.54 1556.04 L1208.66 1556.04 L1208.66 1524.95 L1203.05 1524.95 L1203.05 1520.4 L1208.66 1520.4 L1208.66 1517.91 Q1208.66 1511.96 1211.42 1509.26 Q1214.19 1506.52 1220.21 1506.52 L1225.75 1506.52 Z" fill="#000000" fill-rule="evenodd" fill-opacity="1" /><path clip-path="url(#clip660)" d="M 0 0 M1258.4 1510.27 L1258.4 1520.4 L1270.47 1520.4 L1270.47 1524.95 L1258.4 1524.95 L1258.4 1544.3 Q1258.4 1548.66 1259.58 1549.9 Q1260.79 1551.14 1264.45 1551.14 L1270.47 1551.14 L1270.47 1556.04 L1264.45 1556.04 Q1257.67 1556.04 1255.09 1553.53 Q1252.51 1550.98 1252.51 1544.3 L1252.51 1524.95 L1248.22 1524.95 L1248.22 1520.4 L1252.51 1520.4 L1252.51 1510.27 L1258.4 1510.27 Z" fill="#000000" fill-rule="evenodd" fill-opacity="1" /><path clip-path="url(#clip660)" d="M 0 0 M1306.24 1534.53 L1306.24 1556.04 L1300.39 1556.04 L1300.39 1534.72 Q1300.39 1529.66 1298.41 1527.14 Q1296.44 1524.63 1292.49 1524.63 Q1287.75 1524.63 1285.01 1527.65 Q1282.27 1530.68 1282.27 1535.9 L1282.27 1556.04 L1276.39 1556.04 L1276.39 1506.52 L1282.27 1506.52 L1282.27 1525.93 Q1284.38 1522.72 1287.21 1521.13 Q1290.07 1519.54 1293.8 1519.54 Q1299.94 1519.54 1303.09 1523.36 Q1306.24 1527.14 1306.24 1534.53 Z" fill="#000000" fill-rule="evenodd" fill-opacity="1" /><path clip-path="url(#clip660)" d="M 0 0 M1333.04 1525.87 Q1332.05 1525.3 1330.88 1525.04 Q1329.73 1524.76 1328.33 1524.76 Q1323.37 1524.76 1320.69 1528 Q1318.05 1531.22 1318.05 1537.27 L1318.05 1556.04 L1312.16 1556.04 L1312.16 1520.4 L1318.05 1520.4 L1318.05 1525.93 Q1319.9 1522.69 1322.86 1521.13 Q1325.82 1519.54 1330.05 1519.54 Q1330.65 1519.54 1331.39 1519.63 Q1332.12 1519.7 1333.01 1519.85 L1333.04 1525.87 Z" fill="#000000" fill-rule="evenodd" fill-opacity="1" /><path clip-path="url(#clip660)" d="M 0 0 M1368.24 1536.76 L1368.24 1539.62 L1341.32 1539.62 Q1341.7 1545.67 1344.95 1548.85 Q1348.22 1552 1354.05 1552 Q1357.42 1552 1360.57 1551.17 Q1363.76 1550.35 1366.87 1548.69 L1366.87 1554.23 Q1363.72 1555.57 1360.41 1556.27 Q1357.1 1556.97 1353.7 1556.97 Q1345.17 1556.97 1340.17 1552 Q1335.21 1547.04 1335.21 1538.57 Q1335.21 1529.82 1339.92 1524.69 Q1344.66 1519.54 1352.68 1519.54 Q1359.87 1519.54 1364.04 1524.18 Q1368.24 1528.8 1368.24 1536.76 M1362.39 1535.04 Q1362.32 1530.23 1359.68 1527.37 Q1357.07 1524.5 1352.74 1524.5 Q1347.84 1524.5 1344.88 1527.27 Q1341.95 1530.04 1341.51 1535.07 L1362.39 1535.04 Z" fill="#000000" fill-rule="evenodd" fill-opacity="1" /><path clip-path="url(#clip660)" d="M 0 0 M1390.59 1538.12 Q1383.49 1538.12 1380.75 1539.75 Q1378.01 1541.37 1378.01 1545.29 Q1378.01 1548.4 1380.05 1550.25 Q1382.12 1552.07 1385.65 1552.07 Q1390.52 1552.07 1393.45 1548.63 Q1396.41 1545.16 1396.41 1539.43 L1396.41 1538.12 L1390.59 1538.12 M1402.27 1535.71 L1402.27 1556.04 L1396.41 1556.04 L1396.41 1550.63 Q1394.41 1553.88 1391.41 1555.44 Q1388.42 1556.97 1384.09 1556.97 Q1378.62 1556.97 1375.37 1553.91 Q1372.16 1550.82 1372.16 1545.67 Q1372.16 1539.65 1376.17 1536.6 Q1380.21 1533.54 1388.2 1533.54 L1396.41 1533.54 L1396.41 1532.97 Q1396.41 1528.93 1393.74 1526.73 Q1391.1 1524.5 1386.29 1524.5 Q1383.23 1524.5 1380.34 1525.23 Q1377.44 1525.97 1374.77 1527.43 L1374.77 1522.02 Q1377.98 1520.78 1381.01 1520.17 Q1384.03 1519.54 1386.9 1519.54 Q1394.63 1519.54 1398.45 1523.55 Q1402.27 1527.56 1402.27 1535.71 Z" fill="#000000" fill-rule="evenodd" fill-opacity="1" /><path clip-path="url(#clip660)" d="M 0 0 M1431.87 1525.81 L1431.87 1506.52 L1437.73 1506.52 L1437.73 1556.04 L1431.87 1556.04 L1431.87 1550.7 Q1430.02 1553.88 1427.19 1555.44 Q1424.39 1556.97 1420.44 1556.97 Q1413.98 1556.97 1409.91 1551.81 Q1405.86 1546.65 1405.86 1538.25 Q1405.86 1529.85 1409.91 1524.69 Q1413.98 1519.54 1420.44 1519.54 Q1424.39 1519.54 1427.19 1521.1 Q1430.02 1522.62 1431.87 1525.81 M1411.91 1538.25 Q1411.91 1544.71 1414.55 1548.4 Q1417.23 1552.07 1421.87 1552.07 Q1426.52 1552.07 1429.2 1548.4 Q1431.87 1544.71 1431.87 1538.25 Q1431.87 1531.79 1429.2 1528.13 Q1426.52 1524.44 1421.87 1524.44 Q1417.23 1524.44 1414.55 1528.13 Q1411.91 1531.79 1411.91 1538.25 Z" fill="#000000" fill-rule="evenodd" fill-opacity="1" /><path clip-path="url(#clip660)" d="M 0 0 M1466.59 1521.45 L1466.59 1526.98 Q1464.11 1525.71 1461.44 1525.07 Q1458.76 1524.44 1455.9 1524.44 Q1451.54 1524.44 1449.34 1525.77 Q1447.18 1527.11 1447.18 1529.79 Q1447.18 1531.82 1448.74 1533 Q1450.3 1534.15 1455.01 1535.2 L1457.01 1535.64 Q1463.25 1536.98 1465.86 1539.43 Q1468.5 1541.85 1468.5 1546.21 Q1468.5 1551.17 1464.56 1554.07 Q1460.64 1556.97 1453.77 1556.97 Q1450.9 1556.97 1447.78 1556.39 Q1444.7 1555.85 1441.26 1554.74 L1441.26 1548.69 Q1444.5 1550.38 1447.66 1551.24 Q1450.81 1552.07 1453.89 1552.07 Q1458.03 1552.07 1460.26 1550.66 Q1462.49 1549.23 1462.49 1546.65 Q1462.49 1544.27 1460.86 1542.99 Q1459.27 1541.72 1453.83 1540.54 L1451.79 1540.07 Q1446.35 1538.92 1443.93 1536.56 Q1441.51 1534.18 1441.51 1530.04 Q1441.51 1525.01 1445.08 1522.27 Q1448.64 1519.54 1455.2 1519.54 Q1458.45 1519.54 1461.31 1520.01 Q1464.17 1520.49 1466.59 1521.45 Z" fill="#000000" fill-rule="evenodd" fill-opacity="1" /><polyline clip-path="url(#clip662)" style="stroke:#000000; stroke-width:2; stroke-opacity:0.1; fill:none" points="
  175.445,1414.77 2352.76,1414.77 
  "/>
<polyline clip-path="url(#clip662)" style="stroke:#000000; stroke-width:2; stroke-opacity:0.1; fill:none" points="
  175.445,1132.55 2352.76,1132.55 
  "/>
<polyline clip-path="url(#clip662)" style="stroke:#000000; stroke-width:2; stroke-opacity:0.1; fill:none" points="
  175.445,850.322 2352.76,850.322 
  "/>
<polyline clip-path="url(#clip662)" style="stroke:#000000; stroke-width:2; stroke-opacity:0.1; fill:none" points="
  175.445,568.096 2352.76,568.096 
  "/>
<polyline clip-path="url(#clip662)" style="stroke:#000000; stroke-width:2; stroke-opacity:0.1; fill:none" points="
  175.445,285.87 2352.76,285.87 
  "/>
<polyline clip-path="url(#clip660)" style="stroke:#000000; stroke-width:4; stroke-opacity:1; fill:none" points="
  175.445,1423.18 175.445,47.2441 
  "/>
<polyline clip-path="url(#clip660)" style="stroke:#000000; stroke-width:4; stroke-opacity:1; fill:none" points="
  175.445,1414.77 201.573,1414.77 
  "/>
<polyline clip-path="url(#clip660)" style="stroke:#000000; stroke-width:4; stroke-opacity:1; fill:none" points="
  175.445,1132.55 201.573,1132.55 
  "/>
<polyline clip-path="url(#clip660)" style="stroke:#000000; stroke-width:4; stroke-opacity:1; fill:none" points="
  175.445,850.322 201.573,850.322 
  "/>
<polyline clip-path="url(#clip660)" style="stroke:#000000; stroke-width:4; stroke-opacity:1; fill:none" points="
  175.445,568.096 201.573,568.096 
  "/>
<polyline clip-path="url(#clip660)" style="stroke:#000000; stroke-width:4; stroke-opacity:1; fill:none" points="
  175.445,285.87 201.573,285.87 
  "/>
<path clip-path="url(#clip660)" d="M 0 0 M127.501 1400.57 Q123.89 1400.57 122.061 1404.14 Q120.255 1407.68 120.255 1414.81 Q120.255 1421.91 122.061 1425.48 Q123.89 1429.02 127.501 1429.02 Q131.135 1429.02 132.941 1425.48 Q134.769 1421.91 134.769 1414.81 Q134.769 1407.68 132.941 1404.14 Q131.135 1400.57 127.501 1400.57 M127.501 1396.87 Q133.311 1396.87 136.367 1401.47 Q139.445 1406.06 139.445 1414.81 Q139.445 1423.53 136.367 1428.14 Q133.311 1432.72 127.501 1432.72 Q121.691 1432.72 118.612 1428.14 Q115.556 1423.53 115.556 1414.81 Q115.556 1406.06 118.612 1401.47 Q121.691 1396.87 127.501 1396.87 Z" fill="#000000" fill-rule="evenodd" fill-opacity="1" /><path clip-path="url(#clip660)" d="M 0 0 M123.126 1145.89 L139.445 1145.89 L139.445 1149.83 L117.501 1149.83 L117.501 1145.89 Q120.163 1143.14 124.746 1138.51 Q129.353 1133.86 130.533 1132.51 Q132.779 1129.99 133.658 1128.25 Q134.561 1126.49 134.561 1124.8 Q134.561 1122.05 132.617 1120.31 Q130.695 1118.58 127.593 1118.58 Q125.394 1118.58 122.941 1119.34 Q120.51 1120.11 117.732 1121.66 L117.732 1116.93 Q120.556 1115.8 123.01 1115.22 Q125.464 1114.64 127.501 1114.64 Q132.871 1114.64 136.066 1117.33 Q139.26 1120.01 139.26 1124.5 Q139.26 1126.63 138.45 1128.55 Q137.663 1130.45 135.556 1133.05 Q134.978 1133.72 131.876 1136.93 Q128.774 1140.13 123.126 1145.89 Z" fill="#000000" fill-rule="evenodd" fill-opacity="1" /><path clip-path="url(#clip660)" d="M 0 0 M129.862 837.116 L118.056 855.565 L129.862 855.565 L129.862 837.116 M128.635 833.042 L134.515 833.042 L134.515 855.565 L139.445 855.565 L139.445 859.454 L134.515 859.454 L134.515 867.602 L129.862 867.602 L129.862 859.454 L114.26 859.454 L114.26 854.94 L128.635 833.042 Z" fill="#000000" fill-rule="evenodd" fill-opacity="1" /><path clip-path="url(#clip660)" d="M 0 0 M127.917 566.233 Q124.769 566.233 122.918 568.385 Q121.089 570.538 121.089 574.288 Q121.089 578.015 122.918 580.191 Q124.769 582.344 127.917 582.344 Q131.066 582.344 132.894 580.191 Q134.746 578.015 134.746 574.288 Q134.746 570.538 132.894 568.385 Q131.066 566.233 127.917 566.233 M137.2 551.58 L137.2 555.839 Q135.441 555.006 133.635 554.566 Q131.853 554.126 130.093 554.126 Q125.464 554.126 123.01 557.251 Q120.58 560.376 120.232 566.696 Q121.598 564.682 123.658 563.617 Q125.718 562.529 128.195 562.529 Q133.404 562.529 136.413 565.7 Q139.445 568.848 139.445 574.288 Q139.445 579.612 136.297 582.83 Q133.149 586.047 127.917 586.047 Q121.922 586.047 118.751 581.464 Q115.58 576.858 115.58 568.131 Q115.58 559.936 119.468 555.075 Q123.357 550.191 129.908 550.191 Q131.667 550.191 133.45 550.538 Q135.255 550.885 137.2 551.58 Z" fill="#000000" fill-rule="evenodd" fill-opacity="1" /><path clip-path="url(#clip660)" d="M 0 0 M127.593 286.738 Q124.26 286.738 122.339 288.521 Q120.441 290.303 120.441 293.428 Q120.441 296.553 122.339 298.336 Q124.26 300.118 127.593 300.118 Q130.927 300.118 132.848 298.336 Q134.769 296.53 134.769 293.428 Q134.769 290.303 132.848 288.521 Q130.95 286.738 127.593 286.738 M122.918 284.748 Q119.908 284.007 118.218 281.947 Q116.552 279.887 116.552 276.924 Q116.552 272.78 119.492 270.373 Q122.455 267.965 127.593 267.965 Q132.755 267.965 135.695 270.373 Q138.635 272.78 138.635 276.924 Q138.635 279.887 136.945 281.947 Q135.279 284.007 132.292 284.748 Q135.672 285.535 137.547 287.826 Q139.445 290.118 139.445 293.428 Q139.445 298.451 136.367 301.136 Q133.311 303.822 127.593 303.822 Q121.876 303.822 118.797 301.136 Q115.742 298.451 115.742 293.428 Q115.742 290.118 117.64 287.826 Q119.538 285.535 122.918 284.748 M121.205 277.363 Q121.205 280.049 122.871 281.553 Q124.561 283.058 127.593 283.058 Q130.603 283.058 132.292 281.553 Q134.005 280.049 134.005 277.363 Q134.005 274.678 132.292 273.174 Q130.603 271.669 127.593 271.669 Q124.561 271.669 122.871 273.174 Q121.205 274.678 121.205 277.363 Z" fill="#000000" fill-rule="evenodd" fill-opacity="1" /><path clip-path="url(#clip660)" d="M 0 0 M42.0438 831.223 L48.314 831.223 Q46.5634 834.883 45.704 838.13 Q44.8447 841.376 44.8447 844.4 Q44.8447 849.651 46.8817 852.516 Q48.9187 855.349 52.6745 855.349 Q55.8255 855.349 57.4488 853.471 Q59.0402 851.561 60.0269 846.278 L60.8226 842.395 Q62.1912 835.201 65.6605 831.796 Q69.098 828.358 74.8908 828.358 Q81.7976 828.358 85.3624 833.005 Q88.9272 837.62 88.9272 846.564 Q88.9272 849.938 88.1633 853.757 Q87.3994 857.545 85.9035 861.619 L79.2831 861.619 Q81.4793 857.704 82.5933 853.948 Q83.7073 850.193 83.7073 846.564 Q83.7073 841.058 81.543 838.066 Q79.3786 835.074 75.3682 835.074 Q71.8671 835.074 69.8937 837.238 Q67.9204 839.371 66.9337 844.272 L66.1698 848.187 Q64.7375 855.381 61.682 858.595 Q58.6264 861.81 53.1837 861.81 Q46.8817 861.81 43.2532 857.386 Q39.6248 852.93 39.6248 845.132 Q39.6248 841.79 40.2295 838.321 Q40.8343 834.851 42.0438 831.223 Z" fill="#000000" fill-rule="evenodd" fill-opacity="1" /><path clip-path="url(#clip660)" d="M 0 0 M82.657 816.55 L101.563 816.55 L101.563 822.438 L52.3562 822.438 L52.3562 816.55 L57.7671 816.55 Q54.5842 814.704 53.0564 811.903 Q51.4968 809.07 51.4968 805.155 Q51.4968 798.662 56.6531 794.62 Q61.8093 790.546 70.212 790.546 Q78.6147 790.546 83.771 794.62 Q88.9272 798.662 88.9272 805.155 Q88.9272 809.07 87.3994 811.903 Q85.8398 814.704 82.657 816.55 M70.212 796.625 Q63.7508 796.625 60.0905 799.299 Q56.3984 801.94 56.3984 806.587 Q56.3984 811.234 60.0905 813.908 Q63.7508 816.55 70.212 816.55 Q76.6732 816.55 80.3653 813.908 Q84.0256 811.234 84.0256 806.587 Q84.0256 801.94 80.3653 799.299 Q76.6732 796.625 70.212 796.625 Z" fill="#000000" fill-rule="evenodd" fill-opacity="1" /><path clip-path="url(#clip660)" d="M 0 0 M68.7161 753.911 L71.5806 753.911 L71.5806 780.838 Q77.6281 780.456 80.8109 777.21 Q83.9619 773.931 83.9619 768.107 Q83.9619 764.733 83.1344 761.582 Q82.3069 758.399 80.6518 755.28 L86.1899 755.28 Q87.5267 758.431 88.227 761.741 Q88.9272 765.051 88.9272 768.457 Q88.9272 776.987 83.9619 781.984 Q78.9967 786.949 70.5303 786.949 Q61.7774 786.949 56.6531 782.239 Q51.4968 777.496 51.4968 769.475 Q51.4968 762.282 56.1438 758.113 Q60.7589 753.911 68.7161 753.911 M66.9973 759.768 Q62.1912 759.831 59.3266 762.473 Q56.4621 765.083 56.4621 769.412 Q56.4621 774.313 59.2312 777.273 Q62.0002 780.202 67.0292 780.647 L66.9973 759.768 Z" fill="#000000" fill-rule="evenodd" fill-opacity="1" /><path clip-path="url(#clip660)" d="M 0 0 M68.7161 717.277 L71.5806 717.277 L71.5806 744.204 Q77.6281 743.822 80.8109 740.575 Q83.9619 737.297 83.9619 731.472 Q83.9619 728.098 83.1344 724.947 Q82.3069 721.764 80.6518 718.645 L86.1899 718.645 Q87.5267 721.796 88.227 725.106 Q88.9272 728.417 88.9272 731.822 Q88.9272 740.352 83.9619 745.349 Q78.9967 750.315 70.5303 750.315 Q61.7774 750.315 56.6531 745.604 Q51.4968 740.862 51.4968 732.841 Q51.4968 725.647 56.1438 721.478 Q60.7589 717.277 68.7161 717.277 M66.9973 723.133 Q62.1912 723.197 59.3266 725.838 Q56.4621 728.448 56.4621 732.777 Q56.4621 737.679 59.2312 740.639 Q62.0002 743.567 67.0292 744.013 L66.9973 723.133 Z" fill="#000000" fill-rule="evenodd" fill-opacity="1" /><path clip-path="url(#clip660)" d="M 0 0 M57.7671 687.676 L38.479 687.676 L38.479 681.82 L88.0042 681.82 L88.0042 687.676 L82.657 687.676 Q85.8398 689.522 87.3994 692.355 Q88.9272 695.156 88.9272 699.102 Q88.9272 705.564 83.771 709.638 Q78.6147 713.68 70.212 713.68 Q61.8093 713.68 56.6531 709.638 Q51.4968 705.564 51.4968 699.102 Q51.4968 695.156 53.0564 692.355 Q54.5842 689.522 57.7671 687.676 M70.212 707.633 Q76.6732 707.633 80.3653 704.991 Q84.0256 702.317 84.0256 697.67 Q84.0256 693.023 80.3653 690.35 Q76.6732 687.676 70.212 687.676 Q63.7508 687.676 60.0905 690.35 Q56.3984 693.023 56.3984 697.67 Q56.3984 702.317 60.0905 704.991 Q63.7508 707.633 70.212 707.633 Z" fill="#000000" fill-rule="evenodd" fill-opacity="1" /><path clip-path="url(#clip660)" d="M 0 0 M73.9359 676.281 L52.3562 676.281 L52.3562 670.425 L73.7131 670.425 Q78.7739 670.425 81.3202 668.452 Q83.8346 666.478 83.8346 662.532 Q83.8346 657.789 80.8109 655.052 Q77.7872 652.283 72.5673 652.283 L52.3562 652.283 L52.3562 646.426 L88.0042 646.426 L88.0042 652.283 L82.5296 652.283 Q85.7762 654.415 87.3676 657.248 Q88.9272 660.049 88.9272 663.773 Q88.9272 669.916 85.1078 673.099 Q81.2883 676.281 73.9359 676.281 M51.4968 661.545 L51.4968 661.545 Z" fill="#000000" fill-rule="evenodd" fill-opacity="1" /><path clip-path="url(#clip660)" d="M 0 0 M82.657 634.618 L101.563 634.618 L101.563 640.506 L52.3562 640.506 L52.3562 634.618 L57.7671 634.618 Q54.5842 632.772 53.0564 629.971 Q51.4968 627.138 51.4968 623.223 Q51.4968 616.73 56.6531 612.688 Q61.8093 608.614 70.212 608.614 Q78.6147 608.614 83.771 612.688 Q88.9272 616.73 88.9272 623.223 Q88.9272 627.138 87.3994 629.971 Q85.8398 632.772 82.657 634.618 M70.212 614.693 Q63.7508 614.693 60.0905 617.367 Q56.3984 620.009 56.3984 624.656 Q56.3984 629.303 60.0905 631.976 Q63.7508 634.618 70.212 634.618 Q76.6732 634.618 80.3653 631.976 Q84.0256 629.303 84.0256 624.656 Q84.0256 620.009 80.3653 617.367 Q76.6732 614.693 70.212 614.693 Z" fill="#000000" fill-rule="evenodd" fill-opacity="1" /><polyline clip-path="url(#clip662)" style="stroke:#0000ff; stroke-width:12; stroke-opacity:1; fill:none" points="
  237.067,1382.07 530.505,1286.27 823.943,1130.12 1117.38,983.692 1410.82,799.811 1704.26,562.004 1997.7,321.175 2291.13,86.1857 
  "/>
<circle clip-path="url(#clip662)" cx="237.067" cy="1382.07" r="14" fill="#0000ff" fill-rule="evenodd" fill-opacity="1" stroke="#000000" stroke-opacity="1" stroke-width="3.2"/>
<circle clip-path="url(#clip662)" cx="530.505" cy="1286.27" r="14" fill="#0000ff" fill-rule="evenodd" fill-opacity="1" stroke="#000000" stroke-opacity="1" stroke-width="3.2"/>
<circle clip-path="url(#clip662)" cx="823.943" cy="1130.12" r="14" fill="#0000ff" fill-rule="evenodd" fill-opacity="1" stroke="#000000" stroke-opacity="1" stroke-width="3.2"/>
<circle clip-path="url(#clip662)" cx="1117.38" cy="983.692" r="14" fill="#0000ff" fill-rule="evenodd" fill-opacity="1" stroke="#000000" stroke-opacity="1" stroke-width="3.2"/>
<circle clip-path="url(#clip662)" cx="1410.82" cy="799.811" r="14" fill="#0000ff" fill-rule="evenodd" fill-opacity="1" stroke="#000000" stroke-opacity="1" stroke-width="3.2"/>
<circle clip-path="url(#clip662)" cx="1704.26" cy="562.004" r="14" fill="#0000ff" fill-rule="evenodd" fill-opacity="1" stroke="#000000" stroke-opacity="1" stroke-width="3.2"/>
<circle clip-path="url(#clip662)" cx="1997.7" cy="321.175" r="14" fill="#0000ff" fill-rule="evenodd" fill-opacity="1" stroke="#000000" stroke-opacity="1" stroke-width="3.2"/>
<circle clip-path="url(#clip662)" cx="2291.13" cy="86.1857" r="14" fill="#0000ff" fill-rule="evenodd" fill-opacity="1" stroke="#000000" stroke-opacity="1" stroke-width="3.2"/>
<polyline clip-path="url(#clip662)" style="stroke:#ff0000; stroke-width:12; stroke-opacity:1; fill:none" points="
  237.067,1384.24 530.505,1303.36 823.943,1201.46 1117.38,1051.1 1410.82,941.182 1704.26,835.223 1997.7,700.313 2291.13,577.672 
  "/>
<circle clip-path="url(#clip662)" cx="237.067" cy="1384.24" r="14" fill="#ff0000" fill-rule="evenodd" fill-opacity="1" stroke="#000000" stroke-opacity="1" stroke-width="3.2"/>
<circle clip-path="url(#clip662)" cx="530.505" cy="1303.36" r="14" fill="#ff0000" fill-rule="evenodd" fill-opacity="1" stroke="#000000" stroke-opacity="1" stroke-width="3.2"/>
<circle clip-path="url(#clip662)" cx="823.943" cy="1201.46" r="14" fill="#ff0000" fill-rule="evenodd" fill-opacity="1" stroke="#000000" stroke-opacity="1" stroke-width="3.2"/>
<circle clip-path="url(#clip662)" cx="1117.38" cy="1051.1" r="14" fill="#ff0000" fill-rule="evenodd" fill-opacity="1" stroke="#000000" stroke-opacity="1" stroke-width="3.2"/>
<circle clip-path="url(#clip662)" cx="1410.82" cy="941.182" r="14" fill="#ff0000" fill-rule="evenodd" fill-opacity="1" stroke="#000000" stroke-opacity="1" stroke-width="3.2"/>
<circle clip-path="url(#clip662)" cx="1704.26" cy="835.223" r="14" fill="#ff0000" fill-rule="evenodd" fill-opacity="1" stroke="#000000" stroke-opacity="1" stroke-width="3.2"/>
<circle clip-path="url(#clip662)" cx="1997.7" cy="700.313" r="14" fill="#ff0000" fill-rule="evenodd" fill-opacity="1" stroke="#000000" stroke-opacity="1" stroke-width="3.2"/>
<circle clip-path="url(#clip662)" cx="2291.13" cy="577.672" r="14" fill="#ff0000" fill-rule="evenodd" fill-opacity="1" stroke="#000000" stroke-opacity="1" stroke-width="3.2"/>
<path clip-path="url(#clip660)" d="
M248.022 274.549 L1108.48 274.549 L1108.48 93.1086 L248.022 93.1086  Z
  " fill="#ffffff" fill-rule="evenodd" fill-opacity="1"/>
<polyline clip-path="url(#clip660)" style="stroke:#000000; stroke-width:4; stroke-opacity:1; fill:none" points="
  248.022,274.549 1108.48,274.549 1108.48,93.1086 248.022,93.1086 248.022,274.549 
  "/>
<polyline clip-path="url(#clip660)" style="stroke:#0000ff; stroke-width:4; stroke-opacity:1; fill:none" points="
  272.215,153.589 417.369,153.589 
  "/>
<path clip-path="url(#clip660)" d="M 0 0 M463.806 137.443 L463.806 142.003 Q461.144 140.73 458.783 140.105 Q456.422 139.48 454.223 139.48 Q450.404 139.48 448.32 140.961 Q446.26 142.443 446.26 145.174 Q446.26 147.466 447.626 148.647 Q449.015 149.804 452.857 150.522 L455.681 151.1 Q460.913 152.096 463.39 154.619 Q465.89 157.119 465.89 161.332 Q465.89 166.355 462.51 168.947 Q459.153 171.54 452.649 171.54 Q450.195 171.54 447.417 170.984 Q444.663 170.429 441.7 169.341 L441.7 164.526 Q444.547 166.123 447.279 166.933 Q450.01 167.744 452.649 167.744 Q456.653 167.744 458.829 166.17 Q461.005 164.596 461.005 161.679 Q461.005 159.133 459.431 157.697 Q457.88 156.262 454.316 155.545 L451.468 154.989 Q446.237 153.947 443.899 151.725 Q441.561 149.503 441.561 145.545 Q441.561 140.961 444.779 138.322 Q448.019 135.684 453.691 135.684 Q456.121 135.684 458.644 136.123 Q461.167 136.563 463.806 137.443 Z" fill="#000000" fill-rule="evenodd" fill-opacity="1" /><path clip-path="url(#clip660)" d="M 0 0 M474.477 166.98 L474.477 180.73 L470.195 180.73 L470.195 144.943 L474.477 144.943 L474.477 148.878 Q475.82 146.563 477.857 145.452 Q479.917 144.318 482.764 144.318 Q487.487 144.318 490.426 148.068 Q493.389 151.818 493.389 157.929 Q493.389 164.04 490.426 167.79 Q487.487 171.54 482.764 171.54 Q479.917 171.54 477.857 170.429 Q475.82 169.295 474.477 166.98 M488.968 157.929 Q488.968 153.23 487.024 150.568 Q485.102 147.883 481.723 147.883 Q478.343 147.883 476.399 150.568 Q474.477 153.23 474.477 157.929 Q474.477 162.628 476.399 165.313 Q478.343 167.975 481.723 167.975 Q485.102 167.975 487.024 165.313 Q488.968 162.628 488.968 157.929 Z" fill="#000000" fill-rule="evenodd" fill-opacity="1" /><path clip-path="url(#clip660)" d="M 0 0 M520.033 156.841 L520.033 158.924 L500.45 158.924 Q500.727 163.322 503.088 165.637 Q505.473 167.929 509.709 167.929 Q512.162 167.929 514.454 167.327 Q516.769 166.725 519.037 165.521 L519.037 169.549 Q516.746 170.521 514.338 171.031 Q511.931 171.54 509.454 171.54 Q503.25 171.54 499.616 167.929 Q496.005 164.318 496.005 158.16 Q496.005 151.795 499.431 148.068 Q502.88 144.318 508.713 144.318 Q513.945 144.318 516.977 147.697 Q520.033 151.054 520.033 156.841 M515.774 155.591 Q515.727 152.096 513.806 150.012 Q511.908 147.929 508.76 147.929 Q505.195 147.929 503.042 149.943 Q500.912 151.957 500.588 155.614 L515.774 155.591 Z" fill="#000000" fill-rule="evenodd" fill-opacity="1" /><path clip-path="url(#clip660)" d="M 0 0 M546.676 156.841 L546.676 158.924 L527.093 158.924 Q527.371 163.322 529.732 165.637 Q532.116 167.929 536.352 167.929 Q538.806 167.929 541.097 167.327 Q543.412 166.725 545.681 165.521 L545.681 169.549 Q543.389 170.521 540.982 171.031 Q538.574 171.54 536.097 171.54 Q529.894 171.54 526.26 167.929 Q522.648 164.318 522.648 158.16 Q522.648 151.795 526.074 148.068 Q529.523 144.318 535.357 144.318 Q540.588 144.318 543.621 147.697 Q546.676 151.054 546.676 156.841 M542.417 155.591 Q542.371 152.096 540.449 150.012 Q538.551 147.929 535.403 147.929 Q531.838 147.929 529.685 149.943 Q527.556 151.957 527.232 155.614 L542.417 155.591 Z" fill="#000000" fill-rule="evenodd" fill-opacity="1" /><path clip-path="url(#clip660)" d="M 0 0 M568.204 148.878 L568.204 134.85 L572.463 134.85 L572.463 170.869 L568.204 170.869 L568.204 166.98 Q566.861 169.295 564.801 170.429 Q562.764 171.54 559.894 171.54 Q555.195 171.54 552.232 167.79 Q549.292 164.04 549.292 157.929 Q549.292 151.818 552.232 148.068 Q555.195 144.318 559.894 144.318 Q562.764 144.318 564.801 145.452 Q566.861 146.563 568.204 148.878 M553.69 157.929 Q553.69 162.628 555.611 165.313 Q557.556 167.975 560.935 167.975 Q564.315 167.975 566.259 165.313 Q568.204 162.628 568.204 157.929 Q568.204 153.23 566.259 150.568 Q564.315 147.883 560.935 147.883 Q557.556 147.883 555.611 150.568 Q553.69 153.23 553.69 157.929 Z" fill="#000000" fill-rule="evenodd" fill-opacity="1" /><path clip-path="url(#clip660)" d="M 0 0 M576.491 160.637 L576.491 144.943 L580.75 144.943 L580.75 160.475 Q580.75 164.156 582.185 166.008 Q583.62 167.836 586.491 167.836 Q589.94 167.836 591.931 165.637 Q593.944 163.438 593.944 159.642 L593.944 144.943 L598.204 144.943 L598.204 170.869 L593.944 170.869 L593.944 166.887 Q592.393 169.248 590.333 170.406 Q588.296 171.54 585.588 171.54 Q581.12 171.54 578.806 168.762 Q576.491 165.984 576.491 160.637 M587.208 144.318 L587.208 144.318 Z" fill="#000000" fill-rule="evenodd" fill-opacity="1" /><path clip-path="url(#clip660)" d="M 0 0 M606.792 166.98 L606.792 180.73 L602.509 180.73 L602.509 144.943 L606.792 144.943 L606.792 148.878 Q608.134 146.563 610.171 145.452 Q612.231 144.318 615.079 144.318 Q619.801 144.318 622.741 148.068 Q625.703 151.818 625.703 157.929 Q625.703 164.04 622.741 167.79 Q619.801 171.54 615.079 171.54 Q612.231 171.54 610.171 170.429 Q608.134 169.295 606.792 166.98 M621.282 157.929 Q621.282 153.23 619.338 150.568 Q617.416 147.883 614.037 147.883 Q610.657 147.883 608.713 150.568 Q606.792 153.23 606.792 157.929 Q606.792 162.628 608.713 165.313 Q610.657 167.975 614.037 167.975 Q617.416 167.975 619.338 165.313 Q621.282 162.628 621.282 157.929 Z" fill="#000000" fill-rule="evenodd" fill-opacity="1" /><path clip-path="url(#clip660)" d="M 0 0 M645.24 144.943 L649.5 144.943 L649.5 170.869 L645.24 170.869 L645.24 144.943 M645.24 134.85 L649.5 134.85 L649.5 140.244 L645.24 140.244 L645.24 134.85 Z" fill="#000000" fill-rule="evenodd" fill-opacity="1" /><path clip-path="url(#clip660)" d="M 0 0 M675.518 155.221 L675.518 170.869 L671.259 170.869 L671.259 155.359 Q671.259 151.679 669.824 149.85 Q668.388 148.022 665.518 148.022 Q662.069 148.022 660.078 150.221 Q658.088 152.42 658.088 156.216 L658.088 170.869 L653.805 170.869 L653.805 144.943 L658.088 144.943 L658.088 148.971 Q659.615 146.633 661.676 145.475 Q663.759 144.318 666.467 144.318 Q670.935 144.318 673.226 147.096 Q675.518 149.85 675.518 155.221 Z" fill="#000000" fill-rule="evenodd" fill-opacity="1" /><path clip-path="url(#clip660)" d="M 0 0 M695.24 136.309 L699.916 136.309 L699.916 168.461 Q699.916 174.711 697.532 177.535 Q695.171 180.359 689.916 180.359 L688.134 180.359 L688.134 176.424 L689.592 176.424 Q692.694 176.424 693.967 174.688 Q695.24 172.952 695.24 168.461 L695.24 136.309 Z" fill="#000000" fill-rule="evenodd" fill-opacity="1" /><path clip-path="url(#clip660)" d="M 0 0 M703.944 160.637 L703.944 144.943 L708.203 144.943 L708.203 160.475 Q708.203 164.156 709.638 166.008 Q711.073 167.836 713.944 167.836 Q717.393 167.836 719.384 165.637 Q721.397 163.438 721.397 159.642 L721.397 144.943 L725.657 144.943 L725.657 170.869 L721.397 170.869 L721.397 166.887 Q719.847 169.248 717.786 170.406 Q715.749 171.54 713.041 171.54 Q708.573 171.54 706.259 168.762 Q703.944 165.984 703.944 160.637 M714.661 144.318 L714.661 144.318 Z" fill="#000000" fill-rule="evenodd" fill-opacity="1" /><path clip-path="url(#clip660)" d="M 0 0 M730.124 134.85 L734.383 134.85 L734.383 170.869 L730.124 170.869 L730.124 134.85 Z" fill="#000000" fill-rule="evenodd" fill-opacity="1" /><path clip-path="url(#clip660)" d="M 0 0 M738.851 144.943 L743.11 144.943 L743.11 170.869 L738.851 170.869 L738.851 144.943 M738.851 134.85 L743.11 134.85 L743.11 140.244 L738.851 140.244 L738.851 134.85 Z" fill="#000000" fill-rule="evenodd" fill-opacity="1" /><path clip-path="url(#clip660)" d="M 0 0 M759.36 157.836 Q754.198 157.836 752.207 159.017 Q750.217 160.197 750.217 163.045 Q750.217 165.313 751.698 166.656 Q753.203 167.975 755.772 167.975 Q759.314 167.975 761.444 165.475 Q763.596 162.952 763.596 158.785 L763.596 157.836 L759.36 157.836 M767.856 156.077 L767.856 170.869 L763.596 170.869 L763.596 166.933 Q762.138 169.295 759.962 170.429 Q757.786 171.54 754.638 171.54 Q750.657 171.54 748.295 169.318 Q745.957 167.072 745.957 163.322 Q745.957 158.947 748.874 156.725 Q751.814 154.503 757.624 154.503 L763.596 154.503 L763.596 154.086 Q763.596 151.147 761.652 149.549 Q759.731 147.929 756.235 147.929 Q754.013 147.929 751.907 148.461 Q749.8 148.994 747.856 150.059 L747.856 146.123 Q750.194 145.221 752.393 144.781 Q754.592 144.318 756.675 144.318 Q762.3 144.318 765.078 147.234 Q767.856 150.151 767.856 156.077 Z" fill="#000000" fill-rule="evenodd" fill-opacity="1" /><path clip-path="url(#clip660)" d="M 0 0 M784.916 144.943 L789.175 144.943 L794.499 165.174 L799.8 144.943 L804.823 144.943 L810.147 165.174 L815.448 144.943 L819.707 144.943 L812.925 170.869 L807.902 170.869 L802.323 149.619 L796.721 170.869 L791.698 170.869 L784.916 144.943 Z" fill="#000000" fill-rule="evenodd" fill-opacity="1" /><path clip-path="url(#clip660)" d="M 0 0 M824.175 144.943 L828.434 144.943 L828.434 170.869 L824.175 170.869 L824.175 144.943 M824.175 134.85 L828.434 134.85 L828.434 140.244 L824.175 140.244 L824.175 134.85 Z" fill="#000000" fill-rule="evenodd" fill-opacity="1" /><path clip-path="url(#clip660)" d="M 0 0 M837.114 137.582 L837.114 144.943 L845.887 144.943 L845.887 148.253 L837.114 148.253 L837.114 162.327 Q837.114 165.498 837.971 166.401 Q838.85 167.304 841.513 167.304 L845.887 167.304 L845.887 170.869 L841.513 170.869 Q836.582 170.869 834.707 169.04 Q832.832 167.188 832.832 162.327 L832.832 148.253 L829.707 148.253 L829.707 144.943 L832.832 144.943 L832.832 137.582 L837.114 137.582 Z" fill="#000000" fill-rule="evenodd" fill-opacity="1" /><path clip-path="url(#clip660)" d="M 0 0 M871.906 155.221 L871.906 170.869 L867.647 170.869 L867.647 155.359 Q867.647 151.679 866.211 149.85 Q864.776 148.022 861.906 148.022 Q858.457 148.022 856.466 150.221 Q854.475 152.42 854.475 156.216 L854.475 170.869 L850.193 170.869 L850.193 134.85 L854.475 134.85 L854.475 148.971 Q856.003 146.633 858.063 145.475 Q860.147 144.318 862.855 144.318 Q867.323 144.318 869.614 147.096 Q871.906 149.85 871.906 155.221 Z" fill="#000000" fill-rule="evenodd" fill-opacity="1" /><path clip-path="url(#clip660)" d="M 0 0 M886.836 136.309 L916.072 136.309 L916.072 140.244 L903.804 140.244 L903.804 170.869 L899.105 170.869 L899.105 140.244 L886.836 140.244 L886.836 136.309 Z" fill="#000000" fill-rule="evenodd" fill-opacity="1" /><path clip-path="url(#clip660)" d="M 0 0 M942.091 155.221 L942.091 170.869 L937.831 170.869 L937.831 155.359 Q937.831 151.679 936.396 149.85 Q934.961 148.022 932.091 148.022 Q928.642 148.022 926.651 150.221 Q924.66 152.42 924.66 156.216 L924.66 170.869 L920.378 170.869 L920.378 134.85 L924.66 134.85 L924.66 148.971 Q926.188 146.633 928.248 145.475 Q930.331 144.318 933.04 144.318 Q937.507 144.318 939.799 147.096 Q942.091 149.85 942.091 155.221 Z" fill="#000000" fill-rule="evenodd" fill-opacity="1" /><path clip-path="url(#clip660)" d="M 0 0 M961.581 148.924 Q960.864 148.508 960.007 148.322 Q959.174 148.114 958.155 148.114 Q954.544 148.114 952.6 150.475 Q950.679 152.813 950.679 157.211 L950.679 170.869 L946.396 170.869 L946.396 144.943 L950.679 144.943 L950.679 148.971 Q952.021 146.609 954.174 145.475 Q956.327 144.318 959.405 144.318 Q959.845 144.318 960.378 144.387 Q960.91 144.434 961.558 144.549 L961.581 148.924 Z" fill="#000000" fill-rule="evenodd" fill-opacity="1" /><path clip-path="url(#clip660)" d="M 0 0 M987.183 156.841 L987.183 158.924 L967.6 158.924 Q967.878 163.322 970.239 165.637 Q972.623 167.929 976.859 167.929 Q979.313 167.929 981.604 167.327 Q983.919 166.725 986.188 165.521 L986.188 169.549 Q983.896 170.521 981.489 171.031 Q979.081 171.54 976.604 171.54 Q970.401 171.54 966.766 167.929 Q963.155 164.318 963.155 158.16 Q963.155 151.795 966.581 148.068 Q970.03 144.318 975.864 144.318 Q981.095 144.318 984.127 147.697 Q987.183 151.054 987.183 156.841 M982.924 155.591 Q982.878 152.096 980.956 150.012 Q979.058 147.929 975.91 147.929 Q972.345 147.929 970.192 149.943 Q968.063 151.957 967.739 155.614 L982.924 155.591 Z" fill="#000000" fill-rule="evenodd" fill-opacity="1" /><path clip-path="url(#clip660)" d="M 0 0 M1003.43 157.836 Q998.271 157.836 996.28 159.017 Q994.289 160.197 994.289 163.045 Q994.289 165.313 995.771 166.656 Q997.276 167.975 999.845 167.975 Q1003.39 167.975 1005.52 165.475 Q1007.67 162.952 1007.67 158.785 L1007.67 157.836 L1003.43 157.836 M1011.93 156.077 L1011.93 170.869 L1007.67 170.869 L1007.67 166.933 Q1006.21 169.295 1004.03 170.429 Q1001.86 171.54 998.711 171.54 Q994.729 171.54 992.368 169.318 Q990.03 167.072 990.03 163.322 Q990.03 158.947 992.947 156.725 Q995.887 154.503 1001.7 154.503 L1007.67 154.503 L1007.67 154.086 Q1007.67 151.147 1005.72 149.549 Q1003.8 147.929 1000.31 147.929 Q998.086 147.929 995.979 148.461 Q993.873 148.994 991.928 150.059 L991.928 146.123 Q994.266 145.221 996.465 144.781 Q998.664 144.318 1000.75 144.318 Q1006.37 144.318 1009.15 147.234 Q1011.93 150.151 1011.93 156.077 Z" fill="#000000" fill-rule="evenodd" fill-opacity="1" /><path clip-path="url(#clip660)" d="M 0 0 M1033.46 148.878 L1033.46 134.85 L1037.72 134.85 L1037.72 170.869 L1033.46 170.869 L1033.46 166.98 Q1032.11 169.295 1030.05 170.429 Q1028.02 171.54 1025.15 171.54 Q1020.45 171.54 1017.48 167.79 Q1014.54 164.04 1014.54 157.929 Q1014.54 151.818 1017.48 148.068 Q1020.45 144.318 1025.15 144.318 Q1028.02 144.318 1030.05 145.452 Q1032.11 146.563 1033.46 148.878 M1018.94 157.929 Q1018.94 162.628 1020.86 165.313 Q1022.81 167.975 1026.19 167.975 Q1029.57 167.975 1031.51 165.313 Q1033.46 162.628 1033.46 157.929 Q1033.46 153.23 1031.51 150.568 Q1029.57 147.883 1026.19 147.883 Q1022.81 147.883 1020.86 150.568 Q1018.94 153.23 1018.94 157.929 Z" fill="#000000" fill-rule="evenodd" fill-opacity="1" /><path clip-path="url(#clip660)" d="M 0 0 M1058.71 145.707 L1058.71 149.734 Q1056.9 148.809 1054.96 148.346 Q1053.02 147.883 1050.93 147.883 Q1047.76 147.883 1046.16 148.855 Q1044.59 149.827 1044.59 151.771 Q1044.59 153.253 1045.72 154.109 Q1046.86 154.943 1050.28 155.707 L1051.74 156.031 Q1056.28 157.003 1058.18 158.785 Q1060.1 160.545 1060.1 163.716 Q1060.1 167.327 1057.23 169.433 Q1054.38 171.54 1049.38 171.54 Q1047.3 171.54 1045.03 171.123 Q1042.78 170.73 1040.28 169.92 L1040.28 165.521 Q1042.65 166.748 1044.94 167.373 Q1047.23 167.975 1049.47 167.975 Q1052.48 167.975 1054.1 166.957 Q1055.72 165.915 1055.72 164.04 Q1055.72 162.304 1054.54 161.378 Q1053.39 160.452 1049.43 159.596 L1047.95 159.248 Q1043.99 158.415 1042.23 156.702 Q1040.47 154.966 1040.47 151.957 Q1040.47 148.299 1043.06 146.309 Q1045.65 144.318 1050.42 144.318 Q1052.78 144.318 1054.87 144.665 Q1056.95 145.012 1058.71 145.707 Z" fill="#000000" fill-rule="evenodd" fill-opacity="1" /><polyline clip-path="url(#clip660)" style="stroke:#ff0000; stroke-width:4; stroke-opacity:1; fill:none" points="
  272.215,214.069 417.369,214.069 
  "/>
<path clip-path="url(#clip660)" d="M 0 0 M463.806 197.923 L463.806 202.483 Q461.144 201.21 458.783 200.585 Q456.422 199.96 454.223 199.96 Q450.404 199.96 448.32 201.441 Q446.26 202.923 446.26 205.654 Q446.26 207.946 447.626 209.127 Q449.015 210.284 452.857 211.002 L455.681 211.58 Q460.913 212.576 463.39 215.099 Q465.89 217.599 465.89 221.812 Q465.89 226.835 462.51 229.427 Q459.153 232.02 452.649 232.02 Q450.195 232.02 447.417 231.464 Q444.663 230.909 441.7 229.821 L441.7 225.006 Q444.547 226.603 447.279 227.413 Q450.01 228.224 452.649 228.224 Q456.653 228.224 458.829 226.65 Q461.005 225.076 461.005 222.159 Q461.005 219.613 459.431 218.177 Q457.88 216.742 454.316 216.025 L451.468 215.469 Q446.237 214.427 443.899 212.205 Q441.561 209.983 441.561 206.025 Q441.561 201.441 444.779 198.802 Q448.019 196.164 453.691 196.164 Q456.121 196.164 458.644 196.603 Q461.167 197.043 463.806 197.923 Z" fill="#000000" fill-rule="evenodd" fill-opacity="1" /><path clip-path="url(#clip660)" d="M 0 0 M474.477 227.46 L474.477 241.21 L470.195 241.21 L470.195 205.423 L474.477 205.423 L474.477 209.358 Q475.82 207.043 477.857 205.932 Q479.917 204.798 482.764 204.798 Q487.487 204.798 490.426 208.548 Q493.389 212.298 493.389 218.409 Q493.389 224.52 490.426 228.27 Q487.487 232.02 482.764 232.02 Q479.917 232.02 477.857 230.909 Q475.82 229.775 474.477 227.46 M488.968 218.409 Q488.968 213.71 487.024 211.048 Q485.102 208.363 481.723 208.363 Q478.343 208.363 476.399 211.048 Q474.477 213.71 474.477 218.409 Q474.477 223.108 476.399 225.793 Q478.343 228.455 481.723 228.455 Q485.102 228.455 487.024 225.793 Q488.968 223.108 488.968 218.409 Z" fill="#000000" fill-rule="evenodd" fill-opacity="1" /><path clip-path="url(#clip660)" d="M 0 0 M520.033 217.321 L520.033 219.404 L500.45 219.404 Q500.727 223.802 503.088 226.117 Q505.473 228.409 509.709 228.409 Q512.162 228.409 514.454 227.807 Q516.769 227.205 519.037 226.001 L519.037 230.029 Q516.746 231.001 514.338 231.511 Q511.931 232.02 509.454 232.02 Q503.25 232.02 499.616 228.409 Q496.005 224.798 496.005 218.64 Q496.005 212.275 499.431 208.548 Q502.88 204.798 508.713 204.798 Q513.945 204.798 516.977 208.177 Q520.033 211.534 520.033 217.321 M515.774 216.071 Q515.727 212.576 513.806 210.492 Q511.908 208.409 508.76 208.409 Q505.195 208.409 503.042 210.423 Q500.912 212.437 500.588 216.094 L515.774 216.071 Z" fill="#000000" fill-rule="evenodd" fill-opacity="1" /><path clip-path="url(#clip660)" d="M 0 0 M546.676 217.321 L546.676 219.404 L527.093 219.404 Q527.371 223.802 529.732 226.117 Q532.116 228.409 536.352 228.409 Q538.806 228.409 541.097 227.807 Q543.412 227.205 545.681 226.001 L545.681 230.029 Q543.389 231.001 540.982 231.511 Q538.574 232.02 536.097 232.02 Q529.894 232.02 526.26 228.409 Q522.648 224.798 522.648 218.64 Q522.648 212.275 526.074 208.548 Q529.523 204.798 535.357 204.798 Q540.588 204.798 543.621 208.177 Q546.676 211.534 546.676 217.321 M542.417 216.071 Q542.371 212.576 540.449 210.492 Q538.551 208.409 535.403 208.409 Q531.838 208.409 529.685 210.423 Q527.556 212.437 527.232 216.094 L542.417 216.071 Z" fill="#000000" fill-rule="evenodd" fill-opacity="1" /><path clip-path="url(#clip660)" d="M 0 0 M568.204 209.358 L568.204 195.33 L572.463 195.33 L572.463 231.349 L568.204 231.349 L568.204 227.46 Q566.861 229.775 564.801 230.909 Q562.764 232.02 559.894 232.02 Q555.195 232.02 552.232 228.27 Q549.292 224.52 549.292 218.409 Q549.292 212.298 552.232 208.548 Q555.195 204.798 559.894 204.798 Q562.764 204.798 564.801 205.932 Q566.861 207.043 568.204 209.358 M553.69 218.409 Q553.69 223.108 555.611 225.793 Q557.556 228.455 560.935 228.455 Q564.315 228.455 566.259 225.793 Q568.204 223.108 568.204 218.409 Q568.204 213.71 566.259 211.048 Q564.315 208.363 560.935 208.363 Q557.556 208.363 555.611 211.048 Q553.69 213.71 553.69 218.409 Z" fill="#000000" fill-rule="evenodd" fill-opacity="1" /><path clip-path="url(#clip660)" d="M 0 0 M576.491 221.117 L576.491 205.423 L580.75 205.423 L580.75 220.955 Q580.75 224.636 582.185 226.488 Q583.62 228.316 586.491 228.316 Q589.94 228.316 591.931 226.117 Q593.944 223.918 593.944 220.122 L593.944 205.423 L598.204 205.423 L598.204 231.349 L593.944 231.349 L593.944 227.367 Q592.393 229.728 590.333 230.886 Q588.296 232.02 585.588 232.02 Q581.12 232.02 578.806 229.242 Q576.491 226.464 576.491 221.117 M587.208 204.798 L587.208 204.798 Z" fill="#000000" fill-rule="evenodd" fill-opacity="1" /><path clip-path="url(#clip660)" d="M 0 0 M606.792 227.46 L606.792 241.21 L602.509 241.21 L602.509 205.423 L606.792 205.423 L606.792 209.358 Q608.134 207.043 610.171 205.932 Q612.231 204.798 615.079 204.798 Q619.801 204.798 622.741 208.548 Q625.703 212.298 625.703 218.409 Q625.703 224.52 622.741 228.27 Q619.801 232.02 615.079 232.02 Q612.231 232.02 610.171 230.909 Q608.134 229.775 606.792 227.46 M621.282 218.409 Q621.282 213.71 619.338 211.048 Q617.416 208.363 614.037 208.363 Q610.657 208.363 608.713 211.048 Q606.792 213.71 606.792 218.409 Q606.792 223.108 608.713 225.793 Q610.657 228.455 614.037 228.455 Q617.416 228.455 619.338 225.793 Q621.282 223.108 621.282 218.409 Z" fill="#000000" fill-rule="evenodd" fill-opacity="1" /><path clip-path="url(#clip660)" d="M 0 0 M645.24 205.423 L649.5 205.423 L649.5 231.349 L645.24 231.349 L645.24 205.423 M645.24 195.33 L649.5 195.33 L649.5 200.724 L645.24 200.724 L645.24 195.33 Z" fill="#000000" fill-rule="evenodd" fill-opacity="1" /><path clip-path="url(#clip660)" d="M 0 0 M675.518 215.701 L675.518 231.349 L671.259 231.349 L671.259 215.839 Q671.259 212.159 669.824 210.33 Q668.388 208.502 665.518 208.502 Q662.069 208.502 660.078 210.701 Q658.088 212.9 658.088 216.696 L658.088 231.349 L653.805 231.349 L653.805 205.423 L658.088 205.423 L658.088 209.451 Q659.615 207.113 661.676 205.955 Q663.759 204.798 666.467 204.798 Q670.935 204.798 673.226 207.576 Q675.518 210.33 675.518 215.701 Z" fill="#000000" fill-rule="evenodd" fill-opacity="1" /><path clip-path="url(#clip660)" d="M 0 0 M721.12 199.451 L721.12 204.381 Q718.759 202.182 716.073 201.094 Q713.411 200.006 710.402 200.006 Q704.476 200.006 701.328 203.64 Q698.18 207.252 698.18 214.103 Q698.18 220.932 701.328 224.566 Q704.476 228.177 710.402 228.177 Q713.411 228.177 716.073 227.089 Q718.759 226.001 721.12 223.802 L721.12 228.687 Q718.666 230.353 715.911 231.187 Q713.18 232.02 710.124 232.02 Q702.277 232.02 697.763 227.228 Q693.249 222.413 693.249 214.103 Q693.249 205.77 697.763 200.978 Q702.277 196.164 710.124 196.164 Q713.226 196.164 715.958 196.997 Q718.712 197.807 721.12 199.451 Z" fill="#000000" fill-rule="evenodd" fill-opacity="1" /><path clip-path="url(#clip660)" d="M 0 0 M738.18 205.423 L742.439 205.423 L747.763 225.654 L753.064 205.423 L758.087 205.423 L763.411 225.654 L768.712 205.423 L772.971 205.423 L766.189 231.349 L761.166 231.349 L755.587 210.099 L749.985 231.349 L744.962 231.349 L738.18 205.423 Z" fill="#000000" fill-rule="evenodd" fill-opacity="1" /><path clip-path="url(#clip660)" d="M 0 0 M777.439 205.423 L781.698 205.423 L781.698 231.349 L777.439 231.349 L777.439 205.423 M777.439 195.33 L781.698 195.33 L781.698 200.724 L777.439 200.724 L777.439 195.33 Z" fill="#000000" fill-rule="evenodd" fill-opacity="1" /><path clip-path="url(#clip660)" d="M 0 0 M790.379 198.062 L790.379 205.423 L799.152 205.423 L799.152 208.733 L790.379 208.733 L790.379 222.807 Q790.379 225.978 791.235 226.881 Q792.115 227.784 794.777 227.784 L799.152 227.784 L799.152 231.349 L794.777 231.349 Q789.846 231.349 787.971 229.52 Q786.096 227.668 786.096 222.807 L786.096 208.733 L782.971 208.733 L782.971 205.423 L786.096 205.423 L786.096 198.062 L790.379 198.062 Z" fill="#000000" fill-rule="evenodd" fill-opacity="1" /><path clip-path="url(#clip660)" d="M 0 0 M825.17 215.701 L825.17 231.349 L820.911 231.349 L820.911 215.839 Q820.911 212.159 819.476 210.33 Q818.04 208.502 815.17 208.502 Q811.721 208.502 809.73 210.701 Q807.74 212.9 807.74 216.696 L807.74 231.349 L803.457 231.349 L803.457 195.33 L807.74 195.33 L807.74 209.451 Q809.267 207.113 811.327 205.955 Q813.411 204.798 816.119 204.798 Q820.587 204.798 822.878 207.576 Q825.17 210.33 825.17 215.701 Z" fill="#000000" fill-rule="evenodd" fill-opacity="1" /><path clip-path="url(#clip660)" d="M 0 0 M858.92 199.96 Q853.827 199.96 850.818 203.756 Q847.832 207.552 847.832 214.103 Q847.832 220.631 850.818 224.427 Q853.827 228.224 858.92 228.224 Q864.012 228.224 866.975 224.427 Q869.961 220.631 869.961 214.103 Q869.961 207.552 866.975 203.756 Q864.012 199.96 858.92 199.96 M858.92 196.164 Q866.188 196.164 870.54 201.048 Q874.892 205.909 874.892 214.103 Q874.892 222.275 870.54 227.159 Q866.188 232.02 858.92 232.02 Q851.628 232.02 847.253 227.159 Q842.901 222.298 842.901 214.103 Q842.901 205.909 847.253 201.048 Q851.628 196.164 858.92 196.164 Z" fill="#000000" fill-rule="evenodd" fill-opacity="1" /><path clip-path="url(#clip660)" d="M 0 0 M883.48 227.46 L883.48 241.21 L879.198 241.21 L879.198 205.423 L883.48 205.423 L883.48 209.358 Q884.822 207.043 886.859 205.932 Q888.92 204.798 891.767 204.798 Q896.489 204.798 899.429 208.548 Q902.392 212.298 902.392 218.409 Q902.392 224.52 899.429 228.27 Q896.489 232.02 891.767 232.02 Q888.92 232.02 886.859 230.909 Q884.822 229.775 883.48 227.46 M897.971 218.409 Q897.971 213.71 896.026 211.048 Q894.105 208.363 890.725 208.363 Q887.346 208.363 885.401 211.048 Q883.48 213.71 883.48 218.409 Q883.48 223.108 885.401 225.793 Q887.346 228.455 890.725 228.455 Q894.105 228.455 896.026 225.793 Q897.971 223.108 897.971 218.409 Z" fill="#000000" fill-rule="evenodd" fill-opacity="1" /><path clip-path="url(#clip660)" d="M 0 0 M929.035 217.321 L929.035 219.404 L909.452 219.404 Q909.73 223.802 912.091 226.117 Q914.475 228.409 918.711 228.409 Q921.165 228.409 923.457 227.807 Q925.771 227.205 928.04 226.001 L928.04 230.029 Q925.748 231.001 923.341 231.511 Q920.933 232.02 918.457 232.02 Q912.253 232.02 908.619 228.409 Q905.008 224.798 905.008 218.64 Q905.008 212.275 908.433 208.548 Q911.883 204.798 917.716 204.798 Q922.947 204.798 925.98 208.177 Q929.035 211.534 929.035 217.321 M924.776 216.071 Q924.73 212.576 922.808 210.492 Q920.91 208.409 917.762 208.409 Q914.197 208.409 912.045 210.423 Q909.915 212.437 909.591 216.094 L924.776 216.071 Z" fill="#000000" fill-rule="evenodd" fill-opacity="1" /><path clip-path="url(#clip660)" d="M 0 0 M955.054 215.701 L955.054 231.349 L950.794 231.349 L950.794 215.839 Q950.794 212.159 949.359 210.33 Q947.924 208.502 945.054 208.502 Q941.605 208.502 939.614 210.701 Q937.623 212.9 937.623 216.696 L937.623 231.349 L933.341 231.349 L933.341 205.423 L937.623 205.423 L937.623 209.451 Q939.151 207.113 941.211 205.955 Q943.294 204.798 946.003 204.798 Q950.47 204.798 952.762 207.576 Q955.054 210.33 955.054 215.701 Z" fill="#000000" fill-rule="evenodd" fill-opacity="1" /><path clip-path="url(#clip660)" d="M 0 0 M959.706 196.789 L966.674 196.789 L975.493 220.307 L984.359 196.789 L991.327 196.789 L991.327 231.349 L986.766 231.349 L986.766 201.002 L977.854 224.705 L973.155 224.705 L964.243 201.002 L964.243 231.349 L959.706 231.349 L959.706 196.789 Z" fill="#000000" fill-rule="evenodd" fill-opacity="1" /><path clip-path="url(#clip660)" d="M 0 0 M1000.66 200.631 L1000.66 213.617 L1006.53 213.617 Q1009.8 213.617 1011.58 211.927 Q1013.36 210.238 1013.36 207.113 Q1013.36 204.011 1011.58 202.321 Q1009.8 200.631 1006.53 200.631 L1000.66 200.631 M995.979 196.789 L1006.53 196.789 Q1012.34 196.789 1015.31 199.427 Q1018.29 202.043 1018.29 207.113 Q1018.29 212.228 1015.31 214.844 Q1012.34 217.46 1006.53 217.46 L1000.66 217.46 L1000.66 231.349 L995.979 231.349 L995.979 196.789 Z" fill="#000000" fill-rule="evenodd" fill-opacity="1" /></svg>
