<?xml version="1.0" encoding="utf-8"?>
<svg xmlns="http://www.w3.org/2000/svg" xmlns:xlink="http://www.w3.org/1999/xlink" width="600" height="400" viewBox="0 0 2400 1600">
<defs>
  <clipPath id="clip630">
    <rect x="0" y="0" width="2400" height="1600"/>
  </clipPath>
</defs>
<path clip-path="url(#clip630)" d="
M0 1600 L2400 1600 L2400 0 L0 0  Z
  " fill="#ffffff" fill-rule="evenodd" fill-opacity="1"/>
<defs>
  <clipPath id="clip631">
    <rect x="480" y="0" width="1681" height="1600"/>
  </clipPath>
</defs>
<path clip-path="url(#clip630)" d="
M173.861 1423.18 L2352.76 1423.18 L2352.76 47.2441 L173.861 47.2441  Z
  " fill="#ffffff" fill-rule="evenodd" fill-opacity="1"/>
<defs>
  <clipPath id="clip632">
    <rect x="173" y="47" width="2180" height="1377"/>
  </clipPath>
</defs>
<polyline clip-path="url(#clip632)" style="stroke:#000000; stroke-width:2; stroke-opacity:0.1; fill:none" points="
  529.18,1423.18 529.18,47.2441 
  "/>
<polyline clip-path="url(#clip632)" style="stroke:#000000; stroke-width:2; stroke-opacity:0.1; fill:none" points="
  1116.48,1423.18 1116.48,47.2441 
  "/>
<polyline clip-path="url(#clip632)" style="stroke:#000000; stroke-width:2; stroke-opacity:0.1; fill:none" points="
  1703.79,1423.18 1703.79,47.2441 
  "/>
<polyline clip-path="url(#clip632)" style="stroke:#000000; stroke-width:2; stroke-opacity:0.1; fill:none" points="
  2291.09,1423.18 2291.09,47.2441 
  "/>
<polyline clip-path="url(#clip630)" style="stroke:#000000; stroke-width:4; stroke-opacity:1; fill:none" points="
  173.861,1423.18 2352.76,1423.18 
  "/>
<polyline clip-path="url(#clip630)" style="stroke:#000000; stroke-width:4; stroke-opacity:1; fill:none" points="
  529.18,1423.18 529.18,1406.67 
  "/>
<polyline clip-path="url(#clip630)" style="stroke:#000000; stroke-width:4; stroke-opacity:1; fill:none" points="
  1116.48,1423.18 1116.48,1406.67 
  "/>
<polyline clip-path="url(#clip630)" style="stroke:#000000; stroke-width:4; stroke-opacity:1; fill:none" points="
  1703.79,1423.18 1703.79,1406.67 
  "/>
<polyline clip-path="url(#clip630)" style="stroke:#000000; stroke-width:4; stroke-opacity:1; fill:none" points="
  2291.09,1423.18 2291.09,1406.67 
  "/>
<path clip-path="url(#clip630)" d="M 0 0 M523.832 1479.92 L540.152 1479.92 L540.152 1483.85 L518.207 1483.85 L518.207 1479.92 Q520.869 1477.16 525.453 1472.53 Q530.059 1467.88 531.24 1466.54 Q533.485 1464.01 534.365 1462.28 Q535.268 1460.52 535.268 1458.83 Q535.268 1456.07 533.323 1454.34 Q531.402 1452.6 528.3 1452.6 Q526.101 1452.6 523.647 1453.37 Q521.217 1454.13 518.439 1455.68 L518.439 1450.96 Q521.263 1449.82 523.717 1449.25 Q526.17 1448.67 528.207 1448.67 Q533.578 1448.67 536.772 1451.35 Q539.967 1454.04 539.967 1458.53 Q539.967 1460.66 539.156 1462.58 Q538.369 1464.48 536.263 1467.07 Q535.684 1467.74 532.582 1470.96 Q529.481 1474.15 523.832 1479.92 Z" fill="#000000" fill-rule="evenodd" fill-opacity="1" /><path clip-path="url(#clip630)" d="M 0 0 M1119.49 1453.37 L1107.69 1471.81 L1119.49 1471.81 L1119.49 1453.37 M1118.27 1449.29 L1124.14 1449.29 L1124.14 1471.81 L1129.08 1471.81 L1129.08 1475.7 L1124.14 1475.7 L1124.14 1483.85 L1119.49 1483.85 L1119.49 1475.7 L1103.89 1475.7 L1103.89 1471.19 L1118.27 1449.29 Z" fill="#000000" fill-rule="evenodd" fill-opacity="1" /><path clip-path="url(#clip630)" d="M 0 0 M1704.19 1464.71 Q1701.04 1464.71 1699.19 1466.86 Q1697.36 1469.01 1697.36 1472.76 Q1697.36 1476.49 1699.19 1478.67 Q1701.04 1480.82 1704.19 1480.82 Q1707.34 1480.82 1709.17 1478.67 Q1711.02 1476.49 1711.02 1472.76 Q1711.02 1469.01 1709.17 1466.86 Q1707.34 1464.71 1704.19 1464.71 M1713.47 1450.06 L1713.47 1454.31 Q1711.71 1453.48 1709.91 1453.04 Q1708.13 1452.6 1706.37 1452.6 Q1701.74 1452.6 1699.28 1455.73 Q1696.85 1458.85 1696.51 1465.17 Q1697.87 1463.16 1699.93 1462.09 Q1701.99 1461 1704.47 1461 Q1709.68 1461 1712.69 1464.18 Q1715.72 1467.32 1715.72 1472.76 Q1715.72 1478.09 1712.57 1481.31 Q1709.42 1484.52 1704.19 1484.52 Q1698.2 1484.52 1695.02 1479.94 Q1691.85 1475.33 1691.85 1466.61 Q1691.85 1458.41 1695.74 1453.55 Q1699.63 1448.67 1706.18 1448.67 Q1707.94 1448.67 1709.72 1449.01 Q1711.53 1449.36 1713.47 1450.06 Z" fill="#000000" fill-rule="evenodd" fill-opacity="1" /><path clip-path="url(#clip630)" d="M 0 0 M2291.09 1467.44 Q2287.76 1467.44 2285.83 1469.22 Q2283.94 1471 2283.94 1474.13 Q2283.94 1477.25 2285.83 1479.04 Q2287.76 1480.82 2291.09 1480.82 Q2294.42 1480.82 2296.34 1479.04 Q2298.26 1477.23 2298.26 1474.13 Q2298.26 1471 2296.34 1469.22 Q2294.45 1467.44 2291.09 1467.44 M2286.41 1465.45 Q2283.4 1464.71 2281.71 1462.65 Q2280.05 1460.59 2280.05 1457.63 Q2280.05 1453.48 2282.99 1451.07 Q2285.95 1448.67 2291.09 1448.67 Q2296.25 1448.67 2299.19 1451.07 Q2302.13 1453.48 2302.13 1457.63 Q2302.13 1460.59 2300.44 1462.65 Q2298.77 1464.71 2295.79 1465.45 Q2299.17 1466.24 2301.04 1468.53 Q2302.94 1470.82 2302.94 1474.13 Q2302.94 1479.15 2299.86 1481.84 Q2296.81 1484.52 2291.09 1484.52 Q2285.37 1484.52 2282.29 1481.84 Q2279.24 1479.15 2279.24 1474.13 Q2279.24 1470.82 2281.14 1468.53 Q2283.03 1466.24 2286.41 1465.45 M2284.7 1458.06 Q2284.7 1460.75 2286.37 1462.25 Q2288.06 1463.76 2291.09 1463.76 Q2294.1 1463.76 2295.79 1462.25 Q2297.5 1460.75 2297.5 1458.06 Q2297.5 1455.38 2295.79 1453.88 Q2294.1 1452.37 2291.09 1452.37 Q2288.06 1452.37 2286.37 1453.88 Q2284.7 1455.38 2284.7 1458.06 Z" fill="#000000" fill-rule="evenodd" fill-opacity="1" /><path clip-path="url(#clip630)" d="M 0 0 M1058.91 1508.52 L1067.56 1508.52 L1088.63 1548.28 L1088.63 1508.52 L1094.87 1508.52 L1094.87 1556.04 L1086.21 1556.04 L1065.14 1516.29 L1065.14 1556.04 L1058.91 1556.04 L1058.91 1508.52 Z" fill="#000000" fill-rule="evenodd" fill-opacity="1" /><path clip-path="url(#clip630)" d="M 0 0 M1114.83 1524.5 Q1110.12 1524.5 1107.38 1528.19 Q1104.64 1531.85 1104.64 1538.25 Q1104.64 1544.65 1107.35 1548.34 Q1110.09 1552 1114.83 1552 Q1119.51 1552 1122.24 1548.31 Q1124.98 1544.62 1124.98 1538.25 Q1124.98 1531.92 1122.24 1528.23 Q1119.51 1524.5 1114.83 1524.5 M1114.83 1519.54 Q1122.47 1519.54 1126.83 1524.5 Q1131.19 1529.47 1131.19 1538.25 Q1131.19 1547 1126.83 1552 Q1122.47 1556.97 1114.83 1556.97 Q1107.16 1556.97 1102.8 1552 Q1098.47 1547 1098.47 1538.25 Q1098.47 1529.47 1102.8 1524.5 Q1107.16 1519.54 1114.83 1519.54 Z" fill="#000000" fill-rule="evenodd" fill-opacity="1" /><path clip-path="url(#clip630)" d="M 0 0 M1137.01 1547.96 L1143.73 1547.96 L1143.73 1556.04 L1137.01 1556.04 L1137.01 1547.96 Z" fill="#000000" fill-rule="evenodd" fill-opacity="1" /><path clip-path="url(#clip630)" d="M 0 0 M1184.41 1524.5 Q1179.7 1524.5 1176.96 1528.19 Q1174.22 1531.85 1174.22 1538.25 Q1174.22 1544.65 1176.93 1548.34 Q1179.66 1552 1184.41 1552 Q1189.08 1552 1191.82 1548.31 Q1194.56 1544.62 1194.56 1538.25 Q1194.56 1531.92 1191.82 1528.23 Q1189.08 1524.5 1184.41 1524.5 M1184.41 1519.54 Q1192.04 1519.54 1196.4 1524.5 Q1200.77 1529.47 1200.77 1538.25 Q1200.77 1547 1196.4 1552 Q1192.04 1556.97 1184.41 1556.97 Q1176.73 1556.97 1172.37 1552 Q1168.05 1547 1168.05 1538.25 Q1168.05 1529.47 1172.37 1524.5 Q1176.73 1519.54 1184.41 1519.54 Z" fill="#000000" fill-rule="evenodd" fill-opacity="1" /><path clip-path="url(#clip630)" d="M 0 0 M1224.96 1506.52 L1224.96 1511.39 L1219.35 1511.39 Q1216.2 1511.39 1214.96 1512.66 Q1213.75 1513.93 1213.75 1517.24 L1213.75 1520.4 L1223.4 1520.4 L1223.4 1524.95 L1213.75 1524.95 L1213.75 1556.04 L1207.86 1556.04 L1207.86 1524.95 L1202.26 1524.95 L1202.26 1520.4 L1207.86 1520.4 L1207.86 1517.91 Q1207.86 1511.96 1210.63 1509.26 Q1213.4 1506.52 1219.42 1506.52 L1224.96 1506.52 Z" fill="#000000" fill-rule="evenodd" fill-opacity="1" /><path clip-path="url(#clip630)" d="M 0 0 M1257.61 1510.27 L1257.61 1520.4 L1269.67 1520.4 L1269.67 1524.95 L1257.61 1524.95 L1257.61 1544.3 Q1257.61 1548.66 1258.79 1549.9 Q1260 1551.14 1263.66 1551.14 L1269.67 1551.14 L1269.67 1556.04 L1263.66 1556.04 Q1256.88 1556.04 1254.3 1553.53 Q1251.72 1550.98 1251.72 1544.3 L1251.72 1524.95 L1247.43 1524.95 L1247.43 1520.4 L1251.72 1520.4 L1251.72 1510.27 L1257.61 1510.27 Z" fill="#000000" fill-rule="evenodd" fill-opacity="1" /><path clip-path="url(#clip630)" d="M 0 0 M1305.45 1534.53 L1305.45 1556.04 L1299.59 1556.04 L1299.59 1534.72 Q1299.59 1529.66 1297.62 1527.14 Q1295.65 1524.63 1291.7 1524.63 Q1286.96 1524.63 1284.22 1527.65 Q1281.48 1530.68 1281.48 1535.9 L1281.48 1556.04 L1275.59 1556.04 L1275.59 1506.52 L1281.48 1506.52 L1281.48 1525.93 Q1283.58 1522.72 1286.42 1521.13 Q1289.28 1519.54 1293 1519.54 Q1299.15 1519.54 1302.3 1523.36 Q1305.45 1527.14 1305.45 1534.53 Z" fill="#000000" fill-rule="evenodd" fill-opacity="1" /><path clip-path="url(#clip630)" d="M 0 0 M1332.25 1525.87 Q1331.26 1525.3 1330.08 1525.04 Q1328.94 1524.76 1327.54 1524.76 Q1322.57 1524.76 1319.9 1528 Q1317.26 1531.22 1317.26 1537.27 L1317.26 1556.04 L1311.37 1556.04 L1311.37 1520.4 L1317.26 1520.4 L1317.26 1525.93 Q1319.1 1522.69 1322.06 1521.13 Q1325.02 1519.54 1329.26 1519.54 Q1329.86 1519.54 1330.59 1519.63 Q1331.33 1519.7 1332.22 1519.85 L1332.25 1525.87 Z" fill="#000000" fill-rule="evenodd" fill-opacity="1" /><path clip-path="url(#clip630)" d="M 0 0 M1367.45 1536.76 L1367.45 1539.62 L1340.52 1539.62 Q1340.91 1545.67 1344.15 1548.85 Q1347.43 1552 1353.26 1552 Q1356.63 1552 1359.78 1551.17 Q1362.96 1550.35 1366.08 1548.69 L1366.08 1554.23 Q1362.93 1555.57 1359.62 1556.27 Q1356.31 1556.97 1352.91 1556.97 Q1344.38 1556.97 1339.38 1552 Q1334.41 1547.04 1334.41 1538.57 Q1334.41 1529.82 1339.12 1524.69 Q1343.87 1519.54 1351.89 1519.54 Q1359.08 1519.54 1363.25 1524.18 Q1367.45 1528.8 1367.45 1536.76 M1361.6 1535.04 Q1361.53 1530.23 1358.89 1527.37 Q1356.28 1524.5 1351.95 1524.5 Q1347.05 1524.5 1344.09 1527.27 Q1341.16 1530.04 1340.72 1535.07 L1361.6 1535.04 Z" fill="#000000" fill-rule="evenodd" fill-opacity="1" /><path clip-path="url(#clip630)" d="M 0 0 M1389.8 1538.12 Q1382.7 1538.12 1379.96 1539.75 Q1377.22 1541.37 1377.22 1545.29 Q1377.22 1548.4 1379.26 1550.25 Q1381.33 1552.07 1384.86 1552.07 Q1389.73 1552.07 1392.66 1548.63 Q1395.62 1545.16 1395.62 1539.43 L1395.62 1538.12 L1389.8 1538.12 M1401.48 1535.71 L1401.48 1556.04 L1395.62 1556.04 L1395.62 1550.63 Q1393.61 1553.88 1390.62 1555.44 Q1387.63 1556.97 1383.3 1556.97 Q1377.83 1556.97 1374.58 1553.91 Q1371.37 1550.82 1371.37 1545.67 Q1371.37 1539.65 1375.38 1536.6 Q1379.42 1533.54 1387.41 1533.54 L1395.62 1533.54 L1395.62 1532.97 Q1395.62 1528.93 1392.95 1526.73 Q1390.3 1524.5 1385.5 1524.5 Q1382.44 1524.5 1379.55 1525.23 Q1376.65 1525.97 1373.98 1527.43 L1373.98 1522.02 Q1377.19 1520.78 1380.21 1520.17 Q1383.24 1519.54 1386.1 1519.54 Q1393.84 1519.54 1397.66 1523.55 Q1401.48 1527.56 1401.48 1535.71 Z" fill="#000000" fill-rule="evenodd" fill-opacity="1" /><path clip-path="url(#clip630)" d="M 0 0 M1431.08 1525.81 L1431.08 1506.52 L1436.93 1506.52 L1436.93 1556.04 L1431.08 1556.04 L1431.08 1550.7 Q1429.23 1553.88 1426.4 1555.44 Q1423.6 1556.97 1419.65 1556.97 Q1413.19 1556.97 1409.12 1551.81 Q1405.07 1546.65 1405.07 1538.25 Q1405.07 1529.85 1409.12 1524.69 Q1413.19 1519.54 1419.65 1519.54 Q1423.6 1519.54 1426.4 1521.1 Q1429.23 1522.62 1431.08 1525.81 M1411.12 1538.25 Q1411.12 1544.71 1413.76 1548.4 Q1416.44 1552.07 1421.08 1552.07 Q1425.73 1552.07 1428.4 1548.4 Q1431.08 1544.71 1431.08 1538.25 Q1431.08 1531.79 1428.4 1528.13 Q1425.73 1524.44 1421.08 1524.44 Q1416.44 1524.44 1413.76 1528.13 Q1411.12 1531.79 1411.12 1538.25 Z" fill="#000000" fill-rule="evenodd" fill-opacity="1" /><path clip-path="url(#clip630)" d="M 0 0 M1465.8 1521.45 L1465.8 1526.98 Q1463.32 1525.71 1460.65 1525.07 Q1457.97 1524.44 1455.11 1524.44 Q1450.75 1524.44 1448.55 1525.77 Q1446.39 1527.11 1446.39 1529.79 Q1446.39 1531.82 1447.95 1533 Q1449.51 1534.15 1454.22 1535.2 L1456.22 1535.64 Q1462.46 1536.98 1465.07 1539.43 Q1467.71 1541.85 1467.71 1546.21 Q1467.71 1551.17 1463.76 1554.07 Q1459.85 1556.97 1452.97 1556.97 Q1450.11 1556.97 1446.99 1556.39 Q1443.9 1555.85 1440.47 1554.74 L1440.47 1548.69 Q1443.71 1550.38 1446.86 1551.24 Q1450.01 1552.07 1453.1 1552.07 Q1457.24 1552.07 1459.47 1550.66 Q1461.7 1549.23 1461.7 1546.65 Q1461.7 1544.27 1460.07 1542.99 Q1458.48 1541.72 1453.04 1540.54 L1451 1540.07 Q1445.56 1538.92 1443.14 1536.56 Q1440.72 1534.18 1440.72 1530.04 Q1440.72 1525.01 1444.29 1522.27 Q1447.85 1519.54 1454.41 1519.54 Q1457.65 1519.54 1460.52 1520.01 Q1463.38 1520.49 1465.8 1521.45 Z" fill="#000000" fill-rule="evenodd" fill-opacity="1" /><polyline clip-path="url(#clip632)" style="stroke:#000000; stroke-width:2; stroke-opacity:0.1; fill:none" points="
  173.861,1332.51 2352.76,1332.51 
  "/>
<polyline clip-path="url(#clip632)" style="stroke:#000000; stroke-width:2; stroke-opacity:0.1; fill:none" points="
  173.861,988.353 2352.76,988.353 
  "/>
<polyline clip-path="url(#clip632)" style="stroke:#000000; stroke-width:2; stroke-opacity:0.1; fill:none" points="
  173.861,644.195 2352.76,644.195 
  "/>
<polyline clip-path="url(#clip632)" style="stroke:#000000; stroke-width:2; stroke-opacity:0.1; fill:none" points="
  173.861,300.036 2352.76,300.036 
  "/>
<polyline clip-path="url(#clip630)" style="stroke:#000000; stroke-width:4; stroke-opacity:1; fill:none" points="
  173.861,1423.18 173.861,47.2441 
  "/>
<polyline clip-path="url(#clip630)" style="stroke:#000000; stroke-width:4; stroke-opacity:1; fill:none" points="
  173.861,1332.51 200.008,1332.51 
  "/>
<polyline clip-path="url(#clip630)" style="stroke:#000000; stroke-width:4; stroke-opacity:1; fill:none" points="
  173.861,988.353 200.008,988.353 
  "/>
<polyline clip-path="url(#clip630)" style="stroke:#000000; stroke-width:4; stroke-opacity:1; fill:none" points="
  173.861,644.195 200.008,644.195 
  "/>
<polyline clip-path="url(#clip630)" style="stroke:#000000; stroke-width:4; stroke-opacity:1; fill:none" points="
  173.861,300.036 200.008,300.036 
  "/>
<path clip-path="url(#clip630)" d="M 0 0 M117.954 1345.86 L125.593 1345.86 L125.593 1319.49 L117.283 1321.16 L117.283 1316.9 L125.546 1315.23 L130.222 1315.23 L130.222 1345.86 L137.861 1345.86 L137.861 1349.79 L117.954 1349.79 L117.954 1345.86 Z" fill="#000000" fill-rule="evenodd" fill-opacity="1" /><path clip-path="url(#clip630)" d="M 0 0 M121.542 1001.7 L137.861 1001.7 L137.861 1005.63 L115.917 1005.63 L115.917 1001.7 Q118.579 998.943 123.162 994.314 Q127.769 989.661 128.949 988.318 Q131.195 985.795 132.074 984.059 Q132.977 982.3 132.977 980.61 Q132.977 977.856 131.033 976.119 Q129.111 974.383 126.009 974.383 Q123.81 974.383 121.357 975.147 Q118.926 975.911 116.148 977.462 L116.148 972.74 Q118.972 971.606 121.426 971.027 Q123.88 970.448 125.917 970.448 Q131.287 970.448 134.482 973.133 Q137.676 975.819 137.676 980.309 Q137.676 982.439 136.866 984.36 Q136.079 986.258 133.972 988.851 Q133.394 989.522 130.292 992.74 Q127.19 995.934 121.542 1001.7 Z" fill="#000000" fill-rule="evenodd" fill-opacity="1" /><path clip-path="url(#clip630)" d="M 0 0 M130.732 642.841 Q134.088 643.558 135.963 645.827 Q137.861 648.095 137.861 651.428 Q137.861 656.544 134.343 659.345 Q130.824 662.146 124.343 662.146 Q122.167 662.146 119.852 661.706 Q117.56 661.29 115.107 660.433 L115.107 655.919 Q117.051 657.053 119.366 657.632 Q121.681 658.211 124.204 658.211 Q128.602 658.211 130.894 656.475 Q133.208 654.739 133.208 651.428 Q133.208 648.373 131.056 646.66 Q128.926 644.924 125.107 644.924 L121.079 644.924 L121.079 641.081 L125.292 641.081 Q128.741 641.081 130.57 639.716 Q132.398 638.327 132.398 635.734 Q132.398 633.072 130.5 631.66 Q128.625 630.225 125.107 630.225 Q123.185 630.225 120.986 630.642 Q118.787 631.058 116.148 631.938 L116.148 627.771 Q118.81 627.03 121.125 626.66 Q123.463 626.29 125.523 626.29 Q130.847 626.29 133.949 628.72 Q137.051 631.128 137.051 635.248 Q137.051 638.118 135.408 640.109 Q133.764 642.077 130.732 642.841 Z" fill="#000000" fill-rule="evenodd" fill-opacity="1" /><path clip-path="url(#clip630)" d="M 0 0 M128.278 286.83 L116.472 305.279 L128.278 305.279 L128.278 286.83 M127.051 282.756 L132.931 282.756 L132.931 305.279 L137.861 305.279 L137.861 309.168 L132.931 309.168 L132.931 317.316 L128.278 317.316 L128.278 309.168 L112.676 309.168 L112.676 304.654 L127.051 282.756 Z" fill="#000000" fill-rule="evenodd" fill-opacity="1" /><path clip-path="url(#clip630)" d="M 0 0 M43.177 843.715 L43.177 803.516 L48.5878 803.516 L48.5878 820.385 L90.697 820.385 L90.697 826.846 L48.5878 826.846 L48.5878 843.715 L43.177 843.715 Z" fill="#000000" fill-rule="evenodd" fill-opacity="1" /><path clip-path="url(#clip630)" d="M 0 0 M55.049 799.378 L55.049 793.522 L90.697 793.522 L90.697 799.378 L55.049 799.378 M41.1718 799.378 L41.1718 793.522 L48.5878 793.522 L48.5878 799.378 L41.1718 799.378 Z" fill="#000000" fill-rule="evenodd" fill-opacity="1" /><path clip-path="url(#clip630)" d="M 0 0 M61.8921 759.624 Q57.9454 757.428 56.0675 754.373 Q54.1896 751.317 54.1896 747.179 Q54.1896 741.61 58.1045 738.586 Q61.9876 735.562 69.1809 735.562 L90.697 735.562 L90.697 741.45 L69.3718 741.45 Q64.2474 741.45 61.7648 743.265 Q59.2822 745.079 59.2822 748.803 Q59.2822 753.354 62.3059 755.996 Q65.3296 758.638 70.5495 758.638 L90.697 758.638 L90.697 764.526 L69.3718 764.526 Q64.2156 764.526 61.7648 766.34 Q59.2822 768.155 59.2822 771.942 Q59.2822 776.43 62.3377 779.072 Q65.3614 781.713 70.5495 781.713 L90.697 781.713 L90.697 787.602 L55.049 787.602 L55.049 781.713 L60.5872 781.713 Q57.3088 779.708 55.7492 776.907 Q54.1896 774.106 54.1896 770.255 Q54.1896 766.372 56.163 763.667 Q58.1364 760.929 61.8921 759.624 Z" fill="#000000" fill-rule="evenodd" fill-opacity="1" /><path clip-path="url(#clip630)" d="M 0 0 M71.4089 698.927 L74.2734 698.927 L74.2734 725.854 Q80.3209 725.472 83.5037 722.226 Q86.6547 718.948 86.6547 713.123 Q86.6547 709.749 85.8272 706.598 Q84.9997 703.415 83.3446 700.296 L88.8827 700.296 Q90.2195 703.447 90.9198 706.757 Q91.62 710.067 91.62 713.473 Q91.62 722.003 86.6547 727 Q81.6895 731.965 73.2231 731.965 Q64.4702 731.965 59.3459 727.255 Q54.1896 722.512 54.1896 714.492 Q54.1896 707.298 58.8366 703.129 Q63.4517 698.927 71.4089 698.927 M69.6901 704.784 Q64.884 704.848 62.0194 707.489 Q59.1549 710.099 59.1549 714.428 Q59.1549 719.33 61.924 722.29 Q64.693 725.218 69.722 725.663 L69.6901 704.784 Z" fill="#000000" fill-rule="evenodd" fill-opacity="1" /><path clip-path="url(#clip630)" d="M 0 0 M56.0993 628.618 L61.6375 628.618 Q60.3644 631.101 59.7278 633.774 Q59.0912 636.448 59.0912 639.313 Q59.0912 643.673 60.428 645.869 Q61.7648 648.034 64.4384 648.034 Q66.4754 648.034 67.6531 646.474 Q68.7989 644.914 69.8493 640.204 L70.2949 638.199 Q71.6317 631.96 74.0825 629.35 Q76.5014 626.708 80.8619 626.708 Q85.8272 626.708 88.7236 630.655 Q91.62 634.57 91.62 641.445 Q91.62 644.31 91.0471 647.429 Q90.506 650.516 89.392 653.954 L83.3446 653.954 Q85.0315 650.707 85.8908 647.556 Q86.7184 644.405 86.7184 641.318 Q86.7184 637.18 85.3179 634.952 Q83.8857 632.724 81.3075 632.724 Q78.9204 632.724 77.6473 634.347 Q76.3741 635.939 75.1965 641.381 L74.719 643.418 Q73.5732 648.861 71.2179 651.28 Q68.8308 653.699 64.693 653.699 Q59.6641 653.699 56.9269 650.134 Q54.1896 646.57 54.1896 640.013 Q54.1896 636.766 54.6671 633.902 Q55.1445 631.037 56.0993 628.618 Z" fill="#000000" fill-rule="evenodd" fill-opacity="1" /><polyline clip-path="url(#clip632)" style="stroke:#0000ff; stroke-width:12; stroke-opacity:1; fill:none" points="
  235.528,191.696 529.18,920.829 822.831,1164.84 1116.48,1226.03 1410.13,1281.81 1703.79,1334.97 1997.44,1365.81 2291.09,1384.24 
  "/>
<circle clip-path="url(#clip632)" cx="235.528" cy="191.696" r="14" fill="#0000ff" fill-rule="evenodd" fill-opacity="1" stroke="#000000" stroke-opacity="1" stroke-width="3.2"/>
<circle clip-path="url(#clip632)" cx="529.18" cy="920.829" r="14" fill="#0000ff" fill-rule="evenodd" fill-opacity="1" stroke="#000000" stroke-opacity="1" stroke-width="3.2"/>
<circle clip-path="url(#clip632)" cx="822.831" cy="1164.84" r="14" fill="#0000ff" fill-rule="evenodd" fill-opacity="1" stroke="#000000" stroke-opacity="1" stroke-width="3.2"/>
<circle clip-path="url(#clip632)" cx="1116.48" cy="1226.03" r="14" fill="#0000ff" fill-rule="evenodd" fill-opacity="1" stroke="#000000" stroke-opacity="1" stroke-width="3.2"/>
<circle clip-path="url(#clip632)" cx="1410.13" cy="1281.81" r="14" fill="#0000ff" fill-rule="evenodd" fill-opacity="1" stroke="#000000" stroke-opacity="1" stroke-width="3.2"/>
<circle clip-path="url(#clip632)" cx="1703.79" cy="1334.97" r="14" fill="#0000ff" fill-rule="evenodd" fill-opacity="1" stroke="#000000" stroke-opacity="1" stroke-width="3.2"/>
<circle clip-path="url(#clip632)" cx="1997.44" cy="1365.81" r="14" fill="#0000ff" fill-rule="evenodd" fill-opacity="1" stroke="#000000" stroke-opacity="1" stroke-width="3.2"/>
<circle clip-path="url(#clip632)" cx="2291.09" cy="1384.24" r="14" fill="#0000ff" fill-rule="evenodd" fill-opacity="1" stroke="#000000" stroke-opacity="1" stroke-width="3.2"/>
<polyline clip-path="url(#clip632)" style="stroke:#ff0000; stroke-width:12; stroke-opacity:1; fill:none" points="
  235.528,86.1857 529.18,804.862 822.831,993.656 1116.48,1142.5 1410.13,1163.94 1703.79,1173.88 1997.44,1200.85 2291.09,1212.54 
  "/>
<circle clip-path="url(#clip632)" cx="235.528" cy="86.1857" r="14" fill="#ff0000" fill-rule="evenodd" fill-opacity="1" stroke="#000000" stroke-opacity="1" stroke-width="3.2"/>
<circle clip-path="url(#clip632)" cx="529.18" cy="804.862" r="14" fill="#ff0000" fill-rule="evenodd" fill-opacity="1" stroke="#000000" stroke-opacity="1" stroke-width="3.2"/>
<circle clip-path="url(#clip632)" cx="822.831" cy="993.656" r="14" fill="#ff0000" fill-rule="evenodd" fill-opacity="1" stroke="#000000" stroke-opacity="1" stroke-width="3.2"/>
<circle clip-path="url(#clip632)" cx="1116.48" cy="1142.5" r="14" fill="#ff0000" fill-rule="evenodd" fill-opacity="1" stroke="#000000" stroke-opacity="1" stroke-width="3.2"/>
<circle clip-path="url(#clip632)" cx="1410.13" cy="1163.94" r="14" fill="#ff0000" fill-rule="evenodd" fill-opacity="1" stroke="#000000" stroke-opacity="1" stroke-width="3.2"/>
<circle clip-path="url(#clip632)" cx="1703.79" cy="1173.88" r="14" fill="#ff0000" fill-rule="evenodd" fill-opacity="1" stroke="#000000" stroke-opacity="1" stroke-width="3.2"/>
<circle clip-path="url(#clip632)" cx="1997.44" cy="1200.85" r="14" fill="#ff0000" fill-rule="evenodd" fill-opacity="1" stroke="#000000" stroke-opacity="1" stroke-width="3.2"/>
<circle clip-path="url(#clip632)" cx="2291.09" cy="1212.54" r="14" fill="#ff0000" fill-rule="evenodd" fill-opacity="1" stroke="#000000" stroke-opacity="1" stroke-width="3.2"/>
<path clip-path="url(#clip630)" d="
M1498.33 274.549 L2280.13 274.549 L2280.13 93.1086 L1498.33 93.1086  Z
  " fill="#ffffff" fill-rule="evenodd" fill-opacity="1"/>
<polyline clip-path="url(#clip630)" style="stroke:#000000; stroke-width:4; stroke-opacity:1; fill:none" points="
  1498.33,274.549 2280.13,274.549 2280.13,93.1086 1498.33,93.1086 1498.33,274.549 
  "/>
<polyline clip-path="url(#clip630)" style="stroke:#0000ff; stroke-width:4; stroke-opacity:1; fill:none" points="
  1522.54,153.589 1667.8,153.589 
  "/>
<path clip-path="url(#clip630)" d="M 0 0 M1692.01 136.309 L1721.25 136.309 L1721.25 140.244 L1708.98 140.244 L1708.98 170.869 L1704.28 170.869 L1704.28 140.244 L1692.01 140.244 L1692.01 136.309 Z" fill="#000000" fill-rule="evenodd" fill-opacity="1" /><path clip-path="url(#clip630)" d="M 0 0 M1724.26 144.943 L1728.51 144.943 L1728.51 170.869 L1724.26 170.869 L1724.26 144.943 M1724.26 134.85 L1728.51 134.85 L1728.51 140.244 L1724.26 140.244 L1724.26 134.85 Z" fill="#000000" fill-rule="evenodd" fill-opacity="1" /><path clip-path="url(#clip630)" d="M 0 0 M1753.17 149.92 Q1754.76 147.049 1756.99 145.684 Q1759.21 144.318 1762.22 144.318 Q1766.27 144.318 1768.47 147.165 Q1770.67 149.989 1770.67 155.221 L1770.67 170.869 L1766.38 170.869 L1766.38 155.359 Q1766.38 151.633 1765.07 149.827 Q1763.75 148.022 1761.04 148.022 Q1757.73 148.022 1755.81 150.221 Q1753.88 152.42 1753.88 156.216 L1753.88 170.869 L1749.6 170.869 L1749.6 155.359 Q1749.6 151.609 1748.28 149.827 Q1746.96 148.022 1744.21 148.022 Q1740.94 148.022 1739.02 150.244 Q1737.1 152.443 1737.1 156.216 L1737.1 170.869 L1732.82 170.869 L1732.82 144.943 L1737.1 144.943 L1737.1 148.971 Q1738.56 146.586 1740.6 145.452 Q1742.63 144.318 1745.44 144.318 Q1748.26 144.318 1750.23 145.753 Q1752.22 147.188 1753.17 149.92 Z" fill="#000000" fill-rule="evenodd" fill-opacity="1" /><path clip-path="url(#clip630)" d="M 0 0 M1797.31 156.841 L1797.31 158.924 L1777.73 158.924 Q1778 163.322 1780.37 165.637 Q1782.75 167.929 1786.99 167.929 Q1789.44 167.929 1791.73 167.327 Q1794.05 166.725 1796.32 165.521 L1796.32 169.549 Q1794.02 170.521 1791.62 171.031 Q1789.21 171.54 1786.73 171.54 Q1780.53 171.54 1776.89 167.929 Q1773.28 164.318 1773.28 158.16 Q1773.28 151.795 1776.71 148.068 Q1780.16 144.318 1785.99 144.318 Q1791.22 144.318 1794.25 147.697 Q1797.31 151.054 1797.31 156.841 M1793.05 155.591 Q1793 152.096 1791.08 150.012 Q1789.19 147.929 1786.04 147.929 Q1782.47 147.929 1780.32 149.943 Q1778.19 151.957 1777.87 155.614 L1793.05 155.591 Z" fill="#000000" fill-rule="evenodd" fill-opacity="1" /><path clip-path="url(#clip630)" d="M 0 0 M1816.85 144.943 L1821.11 144.943 L1821.11 170.869 L1816.85 170.869 L1816.85 144.943 M1816.85 134.85 L1821.11 134.85 L1821.11 140.244 L1816.85 140.244 L1816.85 134.85 Z" fill="#000000" fill-rule="evenodd" fill-opacity="1" /><path clip-path="url(#clip630)" d="M 0 0 M1847.12 155.221 L1847.12 170.869 L1842.87 170.869 L1842.87 155.359 Q1842.87 151.679 1841.43 149.85 Q1840 148.022 1837.12 148.022 Q1833.68 148.022 1831.69 150.221 Q1829.69 152.42 1829.69 156.216 L1829.69 170.869 L1825.41 170.869 L1825.41 144.943 L1829.69 144.943 L1829.69 148.971 Q1831.22 146.633 1833.28 145.475 Q1835.37 144.318 1838.07 144.318 Q1842.54 144.318 1844.83 147.096 Q1847.12 149.85 1847.12 155.221 Z" fill="#000000" fill-rule="evenodd" fill-opacity="1" /><path clip-path="url(#clip630)" d="M 0 0 M1866.85 136.309 L1871.52 136.309 L1871.52 168.461 Q1871.52 174.711 1869.14 177.535 Q1866.78 180.359 1861.52 180.359 L1859.74 180.359 L1859.74 176.424 L1861.2 176.424 Q1864.3 176.424 1865.57 174.688 Q1866.85 172.952 1866.85 168.461 L1866.85 136.309 Z" fill="#000000" fill-rule="evenodd" fill-opacity="1" /><path clip-path="url(#clip630)" d="M 0 0 M1875.55 160.637 L1875.55 144.943 L1879.81 144.943 L1879.81 160.475 Q1879.81 164.156 1881.25 166.008 Q1882.68 167.836 1885.55 167.836 Q1889 167.836 1890.99 165.637 Q1893 163.438 1893 159.642 L1893 144.943 L1897.26 144.943 L1897.26 170.869 L1893 170.869 L1893 166.887 Q1891.45 169.248 1889.39 170.406 Q1887.36 171.54 1884.65 171.54 Q1880.18 171.54 1877.87 168.762 Q1875.55 165.984 1875.55 160.637 M1886.27 144.318 L1886.27 144.318 Z" fill="#000000" fill-rule="evenodd" fill-opacity="1" /><path clip-path="url(#clip630)" d="M 0 0 M1901.73 134.85 L1905.99 134.85 L1905.99 170.869 L1901.73 170.869 L1901.73 134.85 Z" fill="#000000" fill-rule="evenodd" fill-opacity="1" /><path clip-path="url(#clip630)" d="M 0 0 M1910.46 144.943 L1914.72 144.943 L1914.72 170.869 L1910.46 170.869 L1910.46 144.943 M1910.46 134.85 L1914.72 134.85 L1914.72 140.244 L1910.46 140.244 L1910.46 134.85 Z" fill="#000000" fill-rule="evenodd" fill-opacity="1" /><path clip-path="url(#clip630)" d="M 0 0 M1930.97 157.836 Q1925.81 157.836 1923.81 159.017 Q1921.82 160.197 1921.82 163.045 Q1921.82 165.313 1923.31 166.656 Q1924.81 167.975 1927.38 167.975 Q1930.92 167.975 1933.05 165.475 Q1935.2 162.952 1935.2 158.785 L1935.2 157.836 L1930.97 157.836 M1939.46 156.077 L1939.46 170.869 L1935.2 170.869 L1935.2 166.933 Q1933.74 169.295 1931.57 170.429 Q1929.39 171.54 1926.24 171.54 Q1922.26 171.54 1919.9 169.318 Q1917.56 167.072 1917.56 163.322 Q1917.56 158.947 1920.48 156.725 Q1923.42 154.503 1929.23 154.503 L1935.2 154.503 L1935.2 154.086 Q1935.2 151.147 1933.26 149.549 Q1931.34 147.929 1927.84 147.929 Q1925.62 147.929 1923.51 148.461 Q1921.41 148.994 1919.46 150.059 L1919.46 146.123 Q1921.8 145.221 1924 144.781 Q1926.2 144.318 1928.28 144.318 Q1933.91 144.318 1936.68 147.234 Q1939.46 150.151 1939.46 156.077 Z" fill="#000000" fill-rule="evenodd" fill-opacity="1" /><path clip-path="url(#clip630)" d="M 0 0 M1956.52 144.943 L1960.78 144.943 L1966.11 165.174 L1971.41 144.943 L1976.43 144.943 L1981.75 165.174 L1987.05 144.943 L1991.31 144.943 L1984.53 170.869 L1979.51 170.869 L1973.93 149.619 L1968.33 170.869 L1963.3 170.869 L1956.52 144.943 Z" fill="#000000" fill-rule="evenodd" fill-opacity="1" /><path clip-path="url(#clip630)" d="M 0 0 M1995.78 144.943 L2000.04 144.943 L2000.04 170.869 L1995.78 170.869 L1995.78 144.943 M1995.78 134.85 L2000.04 134.85 L2000.04 140.244 L1995.78 140.244 L1995.78 134.85 Z" fill="#000000" fill-rule="evenodd" fill-opacity="1" /><path clip-path="url(#clip630)" d="M 0 0 M2008.72 137.582 L2008.72 144.943 L2017.49 144.943 L2017.49 148.253 L2008.72 148.253 L2008.72 162.327 Q2008.72 165.498 2009.58 166.401 Q2010.46 167.304 2013.12 167.304 L2017.49 167.304 L2017.49 170.869 L2013.12 170.869 Q2008.19 170.869 2006.31 169.04 Q2004.44 167.188 2004.44 162.327 L2004.44 148.253 L2001.31 148.253 L2001.31 144.943 L2004.44 144.943 L2004.44 137.582 L2008.72 137.582 Z" fill="#000000" fill-rule="evenodd" fill-opacity="1" /><path clip-path="url(#clip630)" d="M 0 0 M2043.51 155.221 L2043.51 170.869 L2039.25 170.869 L2039.25 155.359 Q2039.25 151.679 2037.82 149.85 Q2036.38 148.022 2033.51 148.022 Q2030.06 148.022 2028.07 150.221 Q2026.08 152.42 2026.08 156.216 L2026.08 170.869 L2021.8 170.869 L2021.8 134.85 L2026.08 134.85 L2026.08 148.971 Q2027.61 146.633 2029.67 145.475 Q2031.75 144.318 2034.46 144.318 Q2038.93 144.318 2041.22 147.096 Q2043.51 149.85 2043.51 155.221 Z" fill="#000000" fill-rule="evenodd" fill-opacity="1" /><path clip-path="url(#clip630)" d="M 0 0 M2058.44 136.309 L2087.68 136.309 L2087.68 140.244 L2075.41 140.244 L2075.41 170.869 L2070.71 170.869 L2070.71 140.244 L2058.44 140.244 L2058.44 136.309 Z" fill="#000000" fill-rule="evenodd" fill-opacity="1" /><path clip-path="url(#clip630)" d="M 0 0 M2113.7 155.221 L2113.7 170.869 L2109.44 170.869 L2109.44 155.359 Q2109.44 151.679 2108 149.85 Q2106.57 148.022 2103.7 148.022 Q2100.25 148.022 2098.26 150.221 Q2096.27 152.42 2096.27 156.216 L2096.27 170.869 L2091.98 170.869 L2091.98 134.85 L2096.27 134.85 L2096.27 148.971 Q2097.79 146.633 2099.86 145.475 Q2101.94 144.318 2104.65 144.318 Q2109.11 144.318 2111.41 147.096 Q2113.7 149.85 2113.7 155.221 Z" fill="#000000" fill-rule="evenodd" fill-opacity="1" /><path clip-path="url(#clip630)" d="M 0 0 M2133.19 148.924 Q2132.47 148.508 2131.61 148.322 Q2130.78 148.114 2129.76 148.114 Q2126.15 148.114 2124.21 150.475 Q2122.29 152.813 2122.29 157.211 L2122.29 170.869 L2118 170.869 L2118 144.943 L2122.29 144.943 L2122.29 148.971 Q2123.63 146.609 2125.78 145.475 Q2127.93 144.318 2131.01 144.318 Q2131.45 144.318 2131.98 144.387 Q2132.52 144.434 2133.17 144.549 L2133.19 148.924 Z" fill="#000000" fill-rule="evenodd" fill-opacity="1" /><path clip-path="url(#clip630)" d="M 0 0 M2158.79 156.841 L2158.79 158.924 L2139.21 158.924 Q2139.48 163.322 2141.85 165.637 Q2144.23 167.929 2148.47 167.929 Q2150.92 167.929 2153.21 167.327 Q2155.53 166.725 2157.79 165.521 L2157.79 169.549 Q2155.5 170.521 2153.1 171.031 Q2150.69 171.54 2148.21 171.54 Q2142.01 171.54 2138.37 167.929 Q2134.76 164.318 2134.76 158.16 Q2134.76 151.795 2138.19 148.068 Q2141.64 144.318 2147.47 144.318 Q2152.7 144.318 2155.73 147.697 Q2158.79 151.054 2158.79 156.841 M2154.53 155.591 Q2154.48 152.096 2152.56 150.012 Q2150.66 147.929 2147.52 147.929 Q2143.95 147.929 2141.8 149.943 Q2139.67 151.957 2139.35 155.614 L2154.53 155.591 Z" fill="#000000" fill-rule="evenodd" fill-opacity="1" /><path clip-path="url(#clip630)" d="M 0 0 M2175.04 157.836 Q2169.88 157.836 2167.89 159.017 Q2165.9 160.197 2165.9 163.045 Q2165.9 165.313 2167.38 166.656 Q2168.88 167.975 2171.45 167.975 Q2174.99 167.975 2177.12 165.475 Q2179.28 162.952 2179.28 158.785 L2179.28 157.836 L2175.04 157.836 M2183.54 156.077 L2183.54 170.869 L2179.28 170.869 L2179.28 166.933 Q2177.82 169.295 2175.64 170.429 Q2173.47 171.54 2170.32 171.54 Q2166.34 171.54 2163.98 169.318 Q2161.64 167.072 2161.64 163.322 Q2161.64 158.947 2164.55 156.725 Q2167.49 154.503 2173.3 154.503 L2179.28 154.503 L2179.28 154.086 Q2179.28 151.147 2177.33 149.549 Q2175.41 147.929 2171.91 147.929 Q2169.69 147.929 2167.59 148.461 Q2165.48 148.994 2163.54 150.059 L2163.54 146.123 Q2165.87 145.221 2168.07 144.781 Q2170.27 144.318 2172.35 144.318 Q2177.98 144.318 2180.76 147.234 Q2183.54 150.151 2183.54 156.077 Z" fill="#000000" fill-rule="evenodd" fill-opacity="1" /><path clip-path="url(#clip630)" d="M 0 0 M2205.06 148.878 L2205.06 134.85 L2209.32 134.85 L2209.32 170.869 L2205.06 170.869 L2205.06 166.98 Q2203.72 169.295 2201.66 170.429 Q2199.62 171.54 2196.75 171.54 Q2192.05 171.54 2189.09 167.79 Q2186.15 164.04 2186.15 157.929 Q2186.15 151.818 2189.09 148.068 Q2192.05 144.318 2196.75 144.318 Q2199.62 144.318 2201.66 145.452 Q2203.72 146.563 2205.06 148.878 M2190.55 157.929 Q2190.55 162.628 2192.47 165.313 Q2194.41 167.975 2197.79 167.975 Q2201.17 167.975 2203.12 165.313 Q2205.06 162.628 2205.06 157.929 Q2205.06 153.23 2203.12 150.568 Q2201.17 147.883 2197.79 147.883 Q2194.41 147.883 2192.47 150.568 Q2190.55 153.23 2190.55 157.929 Z" fill="#000000" fill-rule="evenodd" fill-opacity="1" /><path clip-path="url(#clip630)" d="M 0 0 M2230.32 145.707 L2230.32 149.734 Q2228.51 148.809 2226.57 148.346 Q2224.62 147.883 2222.54 147.883 Q2219.37 147.883 2217.77 148.855 Q2216.2 149.827 2216.2 151.771 Q2216.2 153.253 2217.33 154.109 Q2218.47 154.943 2221.89 155.707 L2223.35 156.031 Q2227.89 157.003 2229.78 158.785 Q2231.71 160.545 2231.71 163.716 Q2231.71 167.327 2228.84 169.433 Q2225.99 171.54 2220.99 171.54 Q2218.91 171.54 2216.64 171.123 Q2214.39 170.73 2211.89 169.92 L2211.89 165.521 Q2214.25 166.748 2216.54 167.373 Q2218.84 167.975 2221.08 167.975 Q2224.09 167.975 2225.71 166.957 Q2227.33 165.915 2227.33 164.04 Q2227.33 162.304 2226.15 161.378 Q2224.99 160.452 2221.03 159.596 L2219.55 159.248 Q2215.6 158.415 2213.84 156.702 Q2212.08 154.966 2212.08 151.957 Q2212.08 148.299 2214.67 146.309 Q2217.26 144.318 2222.03 144.318 Q2224.39 144.318 2226.47 144.665 Q2228.56 145.012 2230.32 145.707 Z" fill="#000000" fill-rule="evenodd" fill-opacity="1" /><polyline clip-path="url(#clip630)" style="stroke:#ff0000; stroke-width:4; stroke-opacity:1; fill:none" points="
  1522.54,214.069 1667.8,214.069 
  "/>
<path clip-path="url(#clip630)" d="M 0 0 M1692.01 196.789 L1721.25 196.789 L1721.25 200.724 L1708.98 200.724 L1708.98 231.349 L1704.28 231.349 L1704.28 200.724 L1692.01 200.724 L1692.01 196.789 Z" fill="#000000" fill-rule="evenodd" fill-opacity="1" /><path clip-path="url(#clip630)" d="M 0 0 M1724.26 205.423 L1728.51 205.423 L1728.51 231.349 L1724.26 231.349 L1724.26 205.423 M1724.26 195.33 L1728.51 195.33 L1728.51 200.724 L1724.26 200.724 L1724.26 195.33 Z" fill="#000000" fill-rule="evenodd" fill-opacity="1" /><path clip-path="url(#clip630)" d="M 0 0 M1753.17 210.4 Q1754.76 207.529 1756.99 206.164 Q1759.21 204.798 1762.22 204.798 Q1766.27 204.798 1768.47 207.645 Q1770.67 210.469 1770.67 215.701 L1770.67 231.349 L1766.38 231.349 L1766.38 215.839 Q1766.38 212.113 1765.07 210.307 Q1763.75 208.502 1761.04 208.502 Q1757.73 208.502 1755.81 210.701 Q1753.88 212.9 1753.88 216.696 L1753.88 231.349 L1749.6 231.349 L1749.6 215.839 Q1749.6 212.089 1748.28 210.307 Q1746.96 208.502 1744.21 208.502 Q1740.94 208.502 1739.02 210.724 Q1737.1 212.923 1737.1 216.696 L1737.1 231.349 L1732.82 231.349 L1732.82 205.423 L1737.1 205.423 L1737.1 209.451 Q1738.56 207.066 1740.6 205.932 Q1742.63 204.798 1745.44 204.798 Q1748.26 204.798 1750.23 206.233 Q1752.22 207.668 1753.17 210.4 Z" fill="#000000" fill-rule="evenodd" fill-opacity="1" /><path clip-path="url(#clip630)" d="M 0 0 M1797.31 217.321 L1797.31 219.404 L1777.73 219.404 Q1778 223.802 1780.37 226.117 Q1782.75 228.409 1786.99 228.409 Q1789.44 228.409 1791.73 227.807 Q1794.05 227.205 1796.32 226.001 L1796.32 230.029 Q1794.02 231.001 1791.62 231.511 Q1789.21 232.02 1786.73 232.02 Q1780.53 232.02 1776.89 228.409 Q1773.28 224.798 1773.28 218.64 Q1773.28 212.275 1776.71 208.548 Q1780.16 204.798 1785.99 204.798 Q1791.22 204.798 1794.25 208.177 Q1797.31 211.534 1797.31 217.321 M1793.05 216.071 Q1793 212.576 1791.08 210.492 Q1789.19 208.409 1786.04 208.409 Q1782.47 208.409 1780.32 210.423 Q1778.19 212.437 1777.87 216.094 L1793.05 216.071 Z" fill="#000000" fill-rule="evenodd" fill-opacity="1" /><path clip-path="url(#clip630)" d="M 0 0 M1816.85 205.423 L1821.11 205.423 L1821.11 231.349 L1816.85 231.349 L1816.85 205.423 M1816.85 195.33 L1821.11 195.33 L1821.11 200.724 L1816.85 200.724 L1816.85 195.33 Z" fill="#000000" fill-rule="evenodd" fill-opacity="1" /><path clip-path="url(#clip630)" d="M 0 0 M1847.12 215.701 L1847.12 231.349 L1842.87 231.349 L1842.87 215.839 Q1842.87 212.159 1841.43 210.33 Q1840 208.502 1837.12 208.502 Q1833.68 208.502 1831.69 210.701 Q1829.69 212.9 1829.69 216.696 L1829.69 231.349 L1825.41 231.349 L1825.41 205.423 L1829.69 205.423 L1829.69 209.451 Q1831.22 207.113 1833.28 205.955 Q1835.37 204.798 1838.07 204.798 Q1842.54 204.798 1844.83 207.576 Q1847.12 210.33 1847.12 215.701 Z" fill="#000000" fill-rule="evenodd" fill-opacity="1" /><path clip-path="url(#clip630)" d="M 0 0 M1892.73 199.451 L1892.73 204.381 Q1890.37 202.182 1887.68 201.094 Q1885.02 200.006 1882.01 200.006 Q1876.08 200.006 1872.93 203.64 Q1869.79 207.252 1869.79 214.103 Q1869.79 220.932 1872.93 224.566 Q1876.08 228.177 1882.01 228.177 Q1885.02 228.177 1887.68 227.089 Q1890.37 226.001 1892.73 223.802 L1892.73 228.687 Q1890.27 230.353 1887.52 231.187 Q1884.79 232.02 1881.73 232.02 Q1873.88 232.02 1869.37 227.228 Q1864.86 222.413 1864.86 214.103 Q1864.86 205.77 1869.37 200.978 Q1873.88 196.164 1881.73 196.164 Q1884.83 196.164 1887.56 196.997 Q1890.32 197.807 1892.73 199.451 Z" fill="#000000" fill-rule="evenodd" fill-opacity="1" /><path clip-path="url(#clip630)" d="M 0 0 M1909.79 205.423 L1914.05 205.423 L1919.37 225.654 L1924.67 205.423 L1929.69 205.423 L1935.02 225.654 L1940.32 205.423 L1944.58 205.423 L1937.8 231.349 L1932.77 231.349 L1927.19 210.099 L1921.59 231.349 L1916.57 231.349 L1909.79 205.423 Z" fill="#000000" fill-rule="evenodd" fill-opacity="1" /><path clip-path="url(#clip630)" d="M 0 0 M1949.05 205.423 L1953.3 205.423 L1953.3 231.349 L1949.05 231.349 L1949.05 205.423 M1949.05 195.33 L1953.3 195.33 L1953.3 200.724 L1949.05 200.724 L1949.05 195.33 Z" fill="#000000" fill-rule="evenodd" fill-opacity="1" /><path clip-path="url(#clip630)" d="M 0 0 M1961.99 198.062 L1961.99 205.423 L1970.76 205.423 L1970.76 208.733 L1961.99 208.733 L1961.99 222.807 Q1961.99 225.978 1962.84 226.881 Q1963.72 227.784 1966.38 227.784 L1970.76 227.784 L1970.76 231.349 L1966.38 231.349 Q1961.45 231.349 1959.58 229.52 Q1957.7 227.668 1957.7 222.807 L1957.7 208.733 L1954.58 208.733 L1954.58 205.423 L1957.7 205.423 L1957.7 198.062 L1961.99 198.062 Z" fill="#000000" fill-rule="evenodd" fill-opacity="1" /><path clip-path="url(#clip630)" d="M 0 0 M1996.78 215.701 L1996.78 231.349 L1992.52 231.349 L1992.52 215.839 Q1992.52 212.159 1991.08 210.33 Q1989.65 208.502 1986.78 208.502 Q1983.33 208.502 1981.34 210.701 Q1979.35 212.9 1979.35 216.696 L1979.35 231.349 L1975.06 231.349 L1975.06 195.33 L1979.35 195.33 L1979.35 209.451 Q1980.87 207.113 1982.93 205.955 Q1985.02 204.798 1987.73 204.798 Q1992.19 204.798 1994.49 207.576 Q1996.78 210.33 1996.78 215.701 Z" fill="#000000" fill-rule="evenodd" fill-opacity="1" /><path clip-path="url(#clip630)" d="M 0 0 M2030.53 199.96 Q2025.43 199.96 2022.42 203.756 Q2019.44 207.552 2019.44 214.103 Q2019.44 220.631 2022.42 224.427 Q2025.43 228.224 2030.53 228.224 Q2035.62 228.224 2038.58 224.427 Q2041.57 220.631 2041.57 214.103 Q2041.57 207.552 2038.58 203.756 Q2035.62 199.96 2030.53 199.96 M2030.53 196.164 Q2037.8 196.164 2042.15 201.048 Q2046.5 205.909 2046.5 214.103 Q2046.5 222.275 2042.15 227.159 Q2037.8 232.02 2030.53 232.02 Q2023.24 232.02 2018.86 227.159 Q2014.51 222.298 2014.51 214.103 Q2014.51 205.909 2018.86 201.048 Q2023.24 196.164 2030.53 196.164 Z" fill="#000000" fill-rule="evenodd" fill-opacity="1" /><path clip-path="url(#clip630)" d="M 0 0 M2055.09 227.46 L2055.09 241.21 L2050.8 241.21 L2050.8 205.423 L2055.09 205.423 L2055.09 209.358 Q2056.43 207.043 2058.47 205.932 Q2060.53 204.798 2063.37 204.798 Q2068.1 204.798 2071.04 208.548 Q2074 212.298 2074 218.409 Q2074 224.52 2071.04 228.27 Q2068.1 232.02 2063.37 232.02 Q2060.53 232.02 2058.47 230.909 Q2056.43 229.775 2055.09 227.46 M2069.58 218.409 Q2069.58 213.71 2067.63 211.048 Q2065.71 208.363 2062.33 208.363 Q2058.95 208.363 2057.01 211.048 Q2055.09 213.71 2055.09 218.409 Q2055.09 223.108 2057.01 225.793 Q2058.95 228.455 2062.33 228.455 Q2065.71 228.455 2067.63 225.793 Q2069.58 223.108 2069.58 218.409 Z" fill="#000000" fill-rule="evenodd" fill-opacity="1" /><path clip-path="url(#clip630)" d="M 0 0 M2100.64 217.321 L2100.64 219.404 L2081.06 219.404 Q2081.34 223.802 2083.7 226.117 Q2086.08 228.409 2090.32 228.409 Q2092.77 228.409 2095.06 227.807 Q2097.38 227.205 2099.65 226.001 L2099.65 230.029 Q2097.36 231.001 2094.95 231.511 Q2092.54 232.02 2090.06 232.02 Q2083.86 232.02 2080.23 228.409 Q2076.61 224.798 2076.61 218.64 Q2076.61 212.275 2080.04 208.548 Q2083.49 204.798 2089.32 204.798 Q2094.55 204.798 2097.59 208.177 Q2100.64 211.534 2100.64 217.321 M2096.38 216.071 Q2096.34 212.576 2094.42 210.492 Q2092.52 208.409 2089.37 208.409 Q2085.8 208.409 2083.65 210.423 Q2081.52 212.437 2081.2 216.094 L2096.38 216.071 Z" fill="#000000" fill-rule="evenodd" fill-opacity="1" /><path clip-path="url(#clip630)" d="M 0 0 M2126.66 215.701 L2126.66 231.349 L2122.4 231.349 L2122.4 215.839 Q2122.4 212.159 2120.97 210.33 Q2119.53 208.502 2116.66 208.502 Q2113.21 208.502 2111.22 210.701 Q2109.23 212.9 2109.23 216.696 L2109.23 231.349 L2104.95 231.349 L2104.95 205.423 L2109.23 205.423 L2109.23 209.451 Q2110.76 207.113 2112.82 205.955 Q2114.9 204.798 2117.61 204.798 Q2122.08 204.798 2124.37 207.576 Q2126.66 210.33 2126.66 215.701 Z" fill="#000000" fill-rule="evenodd" fill-opacity="1" /><path clip-path="url(#clip630)" d="M 0 0 M2131.31 196.789 L2138.28 196.789 L2147.1 220.307 L2155.97 196.789 L2162.93 196.789 L2162.93 231.349 L2158.37 231.349 L2158.37 201.002 L2149.46 224.705 L2144.76 224.705 L2135.85 201.002 L2135.85 231.349 L2131.31 231.349 L2131.31 196.789 Z" fill="#000000" fill-rule="evenodd" fill-opacity="1" /><path clip-path="url(#clip630)" d="M 0 0 M2172.26 200.631 L2172.26 213.617 L2178.14 213.617 Q2181.41 213.617 2183.19 211.927 Q2184.97 210.238 2184.97 207.113 Q2184.97 204.011 2183.19 202.321 Q2181.41 200.631 2178.14 200.631 L2172.26 200.631 M2167.59 196.789 L2178.14 196.789 Q2183.95 196.789 2186.91 199.427 Q2189.9 202.043 2189.9 207.113 Q2189.9 212.228 2186.91 214.844 Q2183.95 217.46 2178.14 217.46 L2172.26 217.46 L2172.26 231.349 L2167.59 231.349 L2167.59 196.789 Z" fill="#000000" fill-rule="evenodd" fill-opacity="1" /></svg>
