<?xml version="1.0" encoding="utf-8"?>
<svg xmlns="http://www.w3.org/2000/svg" xmlns:xlink="http://www.w3.org/1999/xlink" width="600" height="400" viewBox="0 0 2400 1600">
<defs>
  <clipPath id="clip990">
    <rect x="0" y="0" width="2400" height="1600"/>
  </clipPath>
</defs>
<path clip-path="url(#clip990)" d="
M0 1600 L2400 1600 L2400 0 L0 0  Z
  " fill="#ffffff" fill-rule="evenodd" fill-opacity="1"/>
<defs>
  <clipPath id="clip991">
    <rect x="480" y="0" width="1681" height="1600"/>
  </clipPath>
</defs>
<path clip-path="url(#clip990)" d="
M173.861 1423.18 L2352.76 1423.18 L2352.76 47.2441 L173.861 47.2441  Z
  " fill="#ffffff" fill-rule="evenodd" fill-opacity="1"/>
<defs>
  <clipPath id="clip992">
    <rect x="173" y="47" width="2180" height="1377"/>
  </clipPath>
</defs>
<polyline clip-path="url(#clip992)" style="stroke:#000000; stroke-width:2; stroke-opacity:0.1; fill:none" points="
  529.18,1423.18 529.18,47.2441 
  "/>
<polyline clip-path="url(#clip992)" style="stroke:#000000; stroke-width:2; stroke-opacity:0.1; fill:none" points="
  1116.48,1423.18 1116.48,47.2441 
  "/>
<polyline clip-path="url(#clip992)" style="stroke:#000000; stroke-width:2; stroke-opacity:0.1; fill:none" points="
  1703.79,1423.18 1703.79,47.2441 
  "/>
<polyline clip-path="url(#clip992)" style="stroke:#000000; stroke-width:2; stroke-opacity:0.1; fill:none" points="
  2291.09,1423.18 2291.09,47.2441 
  "/>
<polyline clip-path="url(#clip990)" style="stroke:#000000; stroke-width:4; stroke-opacity:1; fill:none" points="
  173.861,1423.18 2352.76,1423.18 
  "/>
<polyline clip-path="url(#clip990)" style="stroke:#000000; stroke-width:4; stroke-opacity:1; fill:none" points="
  529.18,1423.18 529.18,1406.67 
  "/>
<polyline clip-path="url(#clip990)" style="stroke:#000000; stroke-width:4; stroke-opacity:1; fill:none" points="
  1116.48,1423.18 1116.48,1406.67 
  "/>
<polyline clip-path="url(#clip990)" style="stroke:#000000; stroke-width:4; stroke-opacity:1; fill:none" points="
  1703.79,1423.18 1703.79,1406.67 
  "/>
<polyline clip-path="url(#clip990)" style="stroke:#000000; stroke-width:4; stroke-opacity:1; fill:none" points="
  2291.09,1423.18 2291.09,1406.67 
  "/>
<path clip-path="url(#clip990)" d="M 0 0 M523.832 1479.92 L540.152 1479.92 L540.152 1483.85 L518.207 1483.85 L518.207 1479.92 Q520.869 1477.16 525.453 1472.53 Q530.059 1467.88 531.24 1466.54 Q533.485 1464.01 534.365 1462.28 Q535.268 1460.52 535.268 1458.83 Q535.268 1456.07 533.323 1454.34 Q531.402 1452.6 528.3 1452.6 Q526.101 1452.6 523.647 1453.37 Q521.217 1454.13 518.439 1455.68 L518.439 1450.96 Q521.263 1449.82 523.717 1449.25 Q526.17 1448.67 528.207 1448.67 Q533.578 1448.67 536.772 1451.35 Q539.967 1454.04 539.967 1458.53 Q539.967 1460.66 539.156 1462.58 Q538.369 1464.48 536.263 1467.07 Q535.684 1467.74 532.582 1470.96 Q529.481 1474.15 523.832 1479.92 Z" fill="#000000" fill-rule="evenodd" fill-opacity="1" /><path clip-path="url(#clip990)" d="M 0 0 M1119.49 1453.37 L1107.69 1471.81 L1119.49 1471.81 L1119.49 1453.37 M1118.27 1449.29 L1124.14 1449.29 L1124.14 1471.81 L1129.08 1471.81 L1129.08 1475.7 L1124.14 1475.7 L1124.14 1483.85 L1119.49 1483.85 L1119.49 1475.7 L1103.89 1475.7 L1103.89 1471.19 L1118.27 1449.29 Z" fill="#000000" fill-rule="evenodd" fill-opacity="1" /><path clip-path="url(#clip990)" d="M 0 0 M1704.19 1464.71 Q1701.04 1464.71 1699.19 1466.86 Q1697.36 1469.01 1697.36 1472.76 Q1697.36 1476.49 1699.19 1478.67 Q1701.04 1480.82 1704.19 1480.82 Q1707.34 1480.82 1709.17 1478.67 Q1711.02 1476.49 1711.02 1472.76 Q1711.02 1469.01 1709.17 1466.86 Q1707.34 1464.71 1704.19 1464.71 M1713.47 1450.06 L1713.47 1454.31 Q1711.71 1453.48 1709.91 1453.04 Q1708.13 1452.6 1706.37 1452.6 Q1701.74 1452.6 1699.28 1455.73 Q1696.85 1458.85 1696.51 1465.17 Q1697.87 1463.16 1699.93 1462.09 Q1701.99 1461 1704.47 1461 Q1709.68 1461 1712.69 1464.18 Q1715.72 1467.32 1715.72 1472.76 Q1715.72 1478.09 1712.57 1481.31 Q1709.42 1484.52 1704.19 1484.52 Q1698.2 1484.52 1695.02 1479.94 Q1691.85 1475.33 1691.85 1466.61 Q1691.85 1458.41 1695.74 1453.55 Q1699.63 1448.67 1706.18 1448.67 Q1707.94 1448.67 1709.72 1449.01 Q1711.53 1449.36 1713.47 1450.06 Z" fill="#000000" fill-rule="evenodd" fill-opacity="1" /><path clip-path="url(#clip990)" d="M 0 0 M2291.09 1467.44 Q2287.76 1467.44 2285.83 1469.22 Q2283.94 1471 2283.94 1474.13 Q2283.94 1477.25 2285.83 1479.04 Q2287.76 1480.82 2291.09 1480.82 Q2294.42 1480.82 2296.34 1479.04 Q2298.26 1477.23 2298.26 1474.13 Q2298.26 1471 2296.34 1469.22 Q2294.45 1467.44 2291.09 1467.44 M2286.41 1465.45 Q2283.4 1464.71 2281.71 1462.65 Q2280.05 1460.59 2280.05 1457.63 Q2280.05 1453.48 2282.99 1451.07 Q2285.95 1448.67 2291.09 1448.67 Q2296.25 1448.67 2299.19 1451.07 Q2302.13 1453.48 2302.13 1457.63 Q2302.13 1460.59 2300.44 1462.65 Q2298.77 1464.71 2295.79 1465.45 Q2299.17 1466.24 2301.04 1468.53 Q2302.94 1470.82 2302.94 1474.13 Q2302.94 1479.15 2299.86 1481.84 Q2296.81 1484.52 2291.09 1484.52 Q2285.37 1484.52 2282.29 1481.84 Q2279.24 1479.15 2279.24 1474.13 Q2279.24 1470.82 2281.14 1468.53 Q2283.03 1466.24 2286.41 1465.45 M2284.7 1458.06 Q2284.7 1460.75 2286.37 1462.25 Q2288.06 1463.76 2291.09 1463.76 Q2294.1 1463.76 2295.79 1462.25 Q2297.5 1460.75 2297.5 1458.06 Q2297.5 1455.38 2295.79 1453.88 Q2294.1 1452.37 2291.09 1452.37 Q2288.06 1452.37 2286.37 1453.88 Q2284.7 1455.38 2284.7 1458.06 Z" fill="#000000" fill-rule="evenodd" fill-opacity="1" /><path clip-path="url(#clip990)" d="M 0 0 M1058.91 1508.52 L1067.56 1508.52 L1088.63 1548.28 L1088.63 1508.52 L1094.87 1508.52 L1094.87 1556.04 L1086.21 1556.04 L1065.14 1516.29 L1065.14 1556.04 L1058.91 1556.04 L1058.91 1508.52 Z" fill="#000000" fill-rule="evenodd" fill-opacity="1" /><path clip-path="url(#clip990)" d="M 0 0 M1114.83 1524.5 Q1110.12 1524.5 1107.38 1528.19 Q1104.64 1531.85 1104.64 1538.25 Q1104.64 1544.65 1107.35 1548.34 Q1110.09 1552 1114.83 1552 Q1119.51 1552 1122.24 1548.31 Q1124.98 1544.62 1124.98 1538.25 Q1124.98 1531.92 1122.24 1528.23 Q1119.51 1524.5 1114.83 1524.5 M1114.83 1519.54 Q1122.47 1519.54 1126.83 1524.5 Q1131.19 1529.47 1131.19 1538.25 Q1131.19 1547 1126.83 1552 Q1122.47 1556.97 1114.83 1556.97 Q1107.16 1556.97 1102.8 1552 Q1098.47 1547 1098.47 1538.25 Q1098.47 1529.47 1102.8 1524.5 Q1107.16 1519.54 1114.83 1519.54 Z" fill="#000000" fill-rule="evenodd" fill-opacity="1" /><path clip-path="url(#clip990)" d="M 0 0 M1137.01 1547.96 L1143.73 1547.96 L1143.73 1556.04 L1137.01 1556.04 L1137.01 1547.96 Z" fill="#000000" fill-rule="evenodd" fill-opacity="1" /><path clip-path="url(#clip990)" d="M 0 0 M1184.41 1524.5 Q1179.7 1524.5 1176.96 1528.19 Q1174.22 1531.85 1174.22 1538.25 Q1174.22 1544.65 1176.93 1548.34 Q1179.66 1552 1184.41 1552 Q1189.08 1552 1191.82 1548.31 Q1194.56 1544.62 1194.56 1538.25 Q1194.56 1531.92 1191.82 1528.23 Q1189.08 1524.5 1184.41 1524.5 M1184.41 1519.54 Q1192.04 1519.54 1196.4 1524.5 Q1200.77 1529.47 1200.77 1538.25 Q1200.77 1547 1196.4 1552 Q1192.04 1556.97 1184.41 1556.97 Q1176.73 1556.97 1172.37 1552 Q1168.05 1547 1168.05 1538.25 Q1168.05 1529.47 1172.37 1524.5 Q1176.73 1519.54 1184.41 1519.54 Z" fill="#000000" fill-rule="evenodd" fill-opacity="1" /><path clip-path="url(#clip990)" d="M 0 0 M1224.96 1506.52 L1224.96 1511.39 L1219.35 1511.39 Q1216.2 1511.39 1214.96 1512.66 Q1213.75 1513.93 1213.75 1517.24 L1213.75 1520.4 L1223.4 1520.4 L1223.4 1524.95 L1213.75 1524.95 L1213.75 1556.04 L1207.86 1556.04 L1207.86 1524.95 L1202.26 1524.95 L1202.26 1520.4 L1207.86 1520.4 L1207.86 1517.91 Q1207.86 1511.96 1210.63 1509.26 Q1213.4 1506.52 1219.42 1506.52 L1224.96 1506.52 Z" fill="#000000" fill-rule="evenodd" fill-opacity="1" /><path clip-path="url(#clip990)" d="M 0 0 M1257.61 1510.27 L1257.61 1520.4 L1269.67 1520.4 L1269.67 1524.95 L1257.61 1524.95 L1257.61 1544.3 Q1257.61 1548.66 1258.79 1549.9 Q1260 1551.14 1263.66 1551.14 L1269.67 1551.14 L1269.67 1556.04 L1263.66 1556.04 Q1256.88 1556.04 1254.3 1553.53 Q1251.72 1550.98 1251.72 1544.3 L1251.72 1524.95 L1247.43 1524.95 L1247.43 1520.4 L1251.72 1520.4 L1251.72 1510.27 L1257.61 1510.27 Z" fill="#000000" fill-rule="evenodd" fill-opacity="1" /><path clip-path="url(#clip990)" d="M 0 0 M1305.45 1534.53 L1305.45 1556.04 L1299.59 1556.04 L1299.59 1534.72 Q1299.59 1529.66 1297.62 1527.14 Q1295.65 1524.63 1291.7 1524.63 Q1286.96 1524.63 1284.22 1527.65 Q1281.48 1530.68 1281.48 1535.9 L1281.48 1556.04 L1275.59 1556.04 L1275.59 1506.52 L1281.48 1506.52 L1281.48 1525.93 Q1283.58 1522.72 1286.42 1521.13 Q1289.28 1519.54 1293 1519.54 Q1299.15 1519.54 1302.3 1523.36 Q1305.45 1527.14 1305.45 1534.53 Z" fill="#000000" fill-rule="evenodd" fill-opacity="1" /><path clip-path="url(#clip990)" d="M 0 0 M1332.25 1525.87 Q1331.26 1525.3 1330.08 1525.04 Q1328.94 1524.76 1327.54 1524.76 Q1322.57 1524.76 1319.9 1528 Q1317.26 1531.22 1317.26 1537.27 L1317.26 1556.04 L1311.37 1556.04 L1311.37 1520.4 L1317.26 1520.4 L1317.26 1525.93 Q1319.1 1522.69 1322.06 1521.13 Q1325.02 1519.54 1329.26 1519.54 Q1329.86 1519.54 1330.59 1519.63 Q1331.33 1519.7 1332.22 1519.85 L1332.25 1525.87 Z" fill="#000000" fill-rule="evenodd" fill-opacity="1" /><path clip-path="url(#clip990)" d="M 0 0 M1367.45 1536.76 L1367.45 1539.62 L1340.52 1539.62 Q1340.91 1545.67 1344.15 1548.85 Q1347.43 1552 1353.26 1552 Q1356.63 1552 1359.78 1551.17 Q1362.96 1550.35 1366.08 1548.69 L1366.08 1554.23 Q1362.93 1555.57 1359.62 1556.27 Q1356.31 1556.97 1352.91 1556.97 Q1344.38 1556.97 1339.38 1552 Q1334.41 1547.04 1334.41 1538.57 Q1334.41 1529.82 1339.12 1524.69 Q1343.87 1519.54 1351.89 1519.54 Q1359.08 1519.54 1363.25 1524.18 Q1367.45 1528.8 1367.45 1536.76 M1361.6 1535.04 Q1361.53 1530.23 1358.89 1527.37 Q1356.28 1524.5 1351.95 1524.5 Q1347.05 1524.5 1344.09 1527.27 Q1341.16 1530.04 1340.72 1535.07 L1361.6 1535.04 Z" fill="#000000" fill-rule="evenodd" fill-opacity="1" /><path clip-path="url(#clip990)" d="M 0 0 M1389.8 1538.12 Q1382.7 1538.12 1379.96 1539.75 Q1377.22 1541.37 1377.22 1545.29 Q1377.22 1548.4 1379.26 1550.25 Q1381.33 1552.07 1384.86 1552.07 Q1389.73 1552.07 1392.66 1548.63 Q1395.62 1545.16 1395.62 1539.43 L1395.62 1538.12 L1389.8 1538.12 M1401.48 1535.71 L1401.48 1556.04 L1395.62 1556.04 L1395.62 1550.63 Q1393.61 1553.88 1390.62 1555.44 Q1387.63 1556.97 1383.3 1556.97 Q1377.83 1556.97 1374.58 1553.91 Q1371.37 1550.82 1371.37 1545.67 Q1371.37 1539.65 1375.38 1536.6 Q1379.42 1533.54 1387.41 1533.54 L1395.62 1533.54 L1395.62 1532.97 Q1395.62 1528.93 1392.95 1526.73 Q1390.3 1524.5 1385.5 1524.5 Q1382.44 1524.5 1379.55 1525.23 Q1376.65 1525.97 1373.98 1527.43 L1373.98 1522.02 Q1377.19 1520.78 1380.21 1520.17 Q1383.24 1519.54 1386.1 1519.54 Q1393.84 1519.54 1397.66 1523.55 Q1401.48 1527.56 1401.48 1535.71 Z" fill="#000000" fill-rule="evenodd" fill-opacity="1" /><path clip-path="url(#clip990)" d="M 0 0 M1431.08 1525.81 L1431.08 1506.52 L1436.93 1506.52 L1436.93 1556.04 L1431.08 1556.04 L1431.08 1550.7 Q1429.23 1553.88 1426.4 1555.44 Q1423.6 1556.97 1419.65 1556.97 Q1413.19 1556.97 1409.12 1551.81 Q1405.07 1546.65 1405.07 1538.25 Q1405.07 1529.85 1409.12 1524.69 Q1413.19 1519.54 1419.65 1519.54 Q1423.6 1519.54 1426.4 1521.1 Q1429.23 1522.62 1431.08 1525.81 M1411.12 1538.25 Q1411.12 1544.71 1413.76 1548.4 Q1416.44 1552.07 1421.08 1552.07 Q1425.73 1552.07 1428.4 1548.4 Q1431.08 1544.71 1431.08 1538.25 Q1431.08 1531.79 1428.4 1528.13 Q1425.73 1524.44 1421.08 1524.44 Q1416.44 1524.44 1413.76 1528.13 Q1411.12 1531.79 1411.12 1538.25 Z" fill="#000000" fill-rule="evenodd" fill-opacity="1" /><path clip-path="url(#clip990)" d="M 0 0 M1465.8 1521.45 L1465.8 1526.98 Q1463.32 1525.71 1460.65 1525.07 Q1457.97 1524.44 1455.11 1524.44 Q1450.75 1524.44 1448.55 1525.77 Q1446.39 1527.11 1446.39 1529.79 Q1446.39 1531.82 1447.95 1533 Q1449.51 1534.15 1454.22 1535.2 L1456.22 1535.64 Q1462.46 1536.98 1465.07 1539.43 Q1467.71 1541.85 1467.71 1546.21 Q1467.71 1551.17 1463.76 1554.07 Q1459.85 1556.97 1452.97 1556.97 Q1450.11 1556.97 1446.99 1556.39 Q1443.9 1555.85 1440.47 1554.74 L1440.47 1548.69 Q1443.71 1550.38 1446.86 1551.24 Q1450.01 1552.07 1453.1 1552.07 Q1457.24 1552.07 1459.47 1550.66 Q1461.7 1549.23 1461.7 1546.65 Q1461.7 1544.27 1460.07 1542.99 Q1458.48 1541.72 1453.04 1540.54 L1451 1540.07 Q1445.56 1538.92 1443.14 1536.56 Q1440.72 1534.18 1440.72 1530.04 Q1440.72 1525.01 1444.29 1522.27 Q1447.85 1519.54 1454.41 1519.54 Q1457.65 1519.54 1460.52 1520.01 Q1463.38 1520.49 1465.8 1521.45 Z" fill="#000000" fill-rule="evenodd" fill-opacity="1" /><polyline clip-path="url(#clip992)" style="stroke:#000000; stroke-width:2; stroke-opacity:0.1; fill:none" points="
  173.861,1346.62 2352.76,1346.62 
  "/>
<polyline clip-path="url(#clip992)" style="stroke:#000000; stroke-width:2; stroke-opacity:0.1; fill:none" points="
  173.861,1035.38 2352.76,1035.38 
  "/>
<polyline clip-path="url(#clip992)" style="stroke:#000000; stroke-width:2; stroke-opacity:0.1; fill:none" points="
  173.861,724.148 2352.76,724.148 
  "/>
<polyline clip-path="url(#clip992)" style="stroke:#000000; stroke-width:2; stroke-opacity:0.1; fill:none" points="
  173.861,412.911 2352.76,412.911 
  "/>
<polyline clip-path="url(#clip992)" style="stroke:#000000; stroke-width:2; stroke-opacity:0.1; fill:none" points="
  173.861,101.675 2352.76,101.675 
  "/>
<polyline clip-path="url(#clip990)" style="stroke:#000000; stroke-width:4; stroke-opacity:1; fill:none" points="
  173.861,1423.18 173.861,47.2441 
  "/>
<polyline clip-path="url(#clip990)" style="stroke:#000000; stroke-width:4; stroke-opacity:1; fill:none" points="
  173.861,1346.62 200.008,1346.62 
  "/>
<polyline clip-path="url(#clip990)" style="stroke:#000000; stroke-width:4; stroke-opacity:1; fill:none" points="
  173.861,1035.38 200.008,1035.38 
  "/>
<polyline clip-path="url(#clip990)" style="stroke:#000000; stroke-width:4; stroke-opacity:1; fill:none" points="
  173.861,724.148 200.008,724.148 
  "/>
<polyline clip-path="url(#clip990)" style="stroke:#000000; stroke-width:4; stroke-opacity:1; fill:none" points="
  173.861,412.911 200.008,412.911 
  "/>
<polyline clip-path="url(#clip990)" style="stroke:#000000; stroke-width:4; stroke-opacity:1; fill:none" points="
  173.861,101.675 200.008,101.675 
  "/>
<path clip-path="url(#clip990)" d="M 0 0 M117.954 1359.97 L125.593 1359.97 L125.593 1333.6 L117.283 1335.27 L117.283 1331.01 L125.546 1329.34 L130.222 1329.34 L130.222 1359.97 L137.861 1359.97 L137.861 1363.9 L117.954 1363.9 L117.954 1359.97 Z" fill="#000000" fill-rule="evenodd" fill-opacity="1" /><path clip-path="url(#clip990)" d="M 0 0 M121.542 1048.73 L137.861 1048.73 L137.861 1052.66 L115.917 1052.66 L115.917 1048.73 Q118.579 1045.97 123.162 1041.34 Q127.769 1036.69 128.949 1035.35 Q131.195 1032.83 132.074 1031.09 Q132.977 1029.33 132.977 1027.64 Q132.977 1024.89 131.033 1023.15 Q129.111 1021.41 126.009 1021.41 Q123.81 1021.41 121.357 1022.18 Q118.926 1022.94 116.148 1024.49 L116.148 1019.77 Q118.972 1018.64 121.426 1018.06 Q123.88 1017.48 125.917 1017.48 Q131.287 1017.48 134.482 1020.16 Q137.676 1022.85 137.676 1027.34 Q137.676 1029.47 136.866 1031.39 Q136.079 1033.29 133.972 1035.88 Q133.394 1036.55 130.292 1039.77 Q127.19 1042.97 121.542 1048.73 Z" fill="#000000" fill-rule="evenodd" fill-opacity="1" /><path clip-path="url(#clip990)" d="M 0 0 M130.732 722.794 Q134.088 723.511 135.963 725.78 Q137.861 728.048 137.861 731.382 Q137.861 736.497 134.343 739.298 Q130.824 742.099 124.343 742.099 Q122.167 742.099 119.852 741.659 Q117.56 741.243 115.107 740.386 L115.107 735.872 Q117.051 737.007 119.366 737.585 Q121.681 738.164 124.204 738.164 Q128.602 738.164 130.894 736.428 Q133.208 734.692 133.208 731.382 Q133.208 728.326 131.056 726.613 Q128.926 724.877 125.107 724.877 L121.079 724.877 L121.079 721.034 L125.292 721.034 Q128.741 721.034 130.57 719.669 Q132.398 718.28 132.398 715.687 Q132.398 713.025 130.5 711.613 Q128.625 710.178 125.107 710.178 Q123.185 710.178 120.986 710.595 Q118.787 711.011 116.148 711.891 L116.148 707.724 Q118.81 706.984 121.125 706.613 Q123.463 706.243 125.523 706.243 Q130.847 706.243 133.949 708.673 Q137.051 711.081 137.051 715.201 Q137.051 718.071 135.408 720.062 Q133.764 722.03 130.732 722.794 Z" fill="#000000" fill-rule="evenodd" fill-opacity="1" /><path clip-path="url(#clip990)" d="M 0 0 M128.278 399.706 L116.472 418.154 L128.278 418.154 L128.278 399.706 M127.051 395.631 L132.931 395.631 L132.931 418.154 L137.861 418.154 L137.861 422.043 L132.931 422.043 L132.931 430.191 L128.278 430.191 L128.278 422.043 L112.676 422.043 L112.676 417.529 L127.051 395.631 Z" fill="#000000" fill-rule="evenodd" fill-opacity="1" /><path clip-path="url(#clip990)" d="M 0 0 M116.959 84.3951 L135.315 84.3951 L135.315 88.3303 L121.241 88.3303 L121.241 96.8024 Q122.259 96.4552 123.278 96.2932 Q124.296 96.108 125.315 96.108 Q131.102 96.108 134.482 99.2793 Q137.861 102.451 137.861 107.867 Q137.861 113.446 134.389 116.548 Q130.917 119.626 124.597 119.626 Q122.421 119.626 120.153 119.256 Q117.908 118.886 115.5 118.145 L115.5 113.446 Q117.584 114.58 119.806 115.136 Q122.028 115.691 124.505 115.691 Q128.509 115.691 130.847 113.585 Q133.185 111.478 133.185 107.867 Q133.185 104.256 130.847 102.15 Q128.509 100.043 124.505 100.043 Q122.63 100.043 120.755 100.46 Q118.903 100.876 116.959 101.756 L116.959 84.3951 Z" fill="#000000" fill-rule="evenodd" fill-opacity="1" /><path clip-path="url(#clip990)" d="M 0 0 M43.177 843.715 L43.177 803.516 L48.5878 803.516 L48.5878 820.385 L90.697 820.385 L90.697 826.846 L48.5878 826.846 L48.5878 843.715 L43.177 843.715 Z" fill="#000000" fill-rule="evenodd" fill-opacity="1" /><path clip-path="url(#clip990)" d="M 0 0 M55.049 799.378 L55.049 793.522 L90.697 793.522 L90.697 799.378 L55.049 799.378 M41.1718 799.378 L41.1718 793.522 L48.5878 793.522 L48.5878 799.378 L41.1718 799.378 Z" fill="#000000" fill-rule="evenodd" fill-opacity="1" /><path clip-path="url(#clip990)" d="M 0 0 M61.8921 759.624 Q57.9454 757.428 56.0675 754.373 Q54.1896 751.317 54.1896 747.179 Q54.1896 741.61 58.1045 738.586 Q61.9876 735.562 69.1809 735.562 L90.697 735.562 L90.697 741.45 L69.3718 741.45 Q64.2474 741.45 61.7648 743.265 Q59.2822 745.079 59.2822 748.803 Q59.2822 753.354 62.3059 755.996 Q65.3296 758.638 70.5495 758.638 L90.697 758.638 L90.697 764.526 L69.3718 764.526 Q64.2156 764.526 61.7648 766.34 Q59.2822 768.155 59.2822 771.942 Q59.2822 776.43 62.3377 779.072 Q65.3614 781.713 70.5495 781.713 L90.697 781.713 L90.697 787.602 L55.049 787.602 L55.049 781.713 L60.5872 781.713 Q57.3088 779.708 55.7492 776.907 Q54.1896 774.106 54.1896 770.255 Q54.1896 766.372 56.163 763.667 Q58.1364 760.929 61.8921 759.624 Z" fill="#000000" fill-rule="evenodd" fill-opacity="1" /><path clip-path="url(#clip990)" d="M 0 0 M71.4089 698.927 L74.2734 698.927 L74.2734 725.854 Q80.3209 725.472 83.5037 722.226 Q86.6547 718.948 86.6547 713.123 Q86.6547 709.749 85.8272 706.598 Q84.9997 703.415 83.3446 700.296 L88.8827 700.296 Q90.2195 703.447 90.9198 706.757 Q91.62 710.067 91.62 713.473 Q91.62 722.003 86.6547 727 Q81.6895 731.965 73.2231 731.965 Q64.4702 731.965 59.3459 727.255 Q54.1896 722.512 54.1896 714.492 Q54.1896 707.298 58.8366 703.129 Q63.4517 698.927 71.4089 698.927 M69.6901 704.784 Q64.884 704.848 62.0194 707.489 Q59.1549 710.099 59.1549 714.428 Q59.1549 719.33 61.924 722.29 Q64.693 725.218 69.722 725.663 L69.6901 704.784 Z" fill="#000000" fill-rule="evenodd" fill-opacity="1" /><path clip-path="url(#clip990)" d="M 0 0 M56.0993 628.618 L61.6375 628.618 Q60.3644 631.101 59.7278 633.774 Q59.0912 636.448 59.0912 639.313 Q59.0912 643.673 60.428 645.869 Q61.7648 648.034 64.4384 648.034 Q66.4754 648.034 67.6531 646.474 Q68.7989 644.914 69.8493 640.204 L70.2949 638.199 Q71.6317 631.96 74.0825 629.35 Q76.5014 626.708 80.8619 626.708 Q85.8272 626.708 88.7236 630.655 Q91.62 634.57 91.62 641.445 Q91.62 644.31 91.0471 647.429 Q90.506 650.516 89.392 653.954 L83.3446 653.954 Q85.0315 650.707 85.8908 647.556 Q86.7184 644.405 86.7184 641.318 Q86.7184 637.18 85.3179 634.952 Q83.8857 632.724 81.3075 632.724 Q78.9204 632.724 77.6473 634.347 Q76.3741 635.939 75.1965 641.381 L74.719 643.418 Q73.5732 648.861 71.2179 651.28 Q68.8308 653.699 64.693 653.699 Q59.6641 653.699 56.9269 650.134 Q54.1896 646.57 54.1896 640.013 Q54.1896 636.766 54.6671 633.902 Q55.1445 631.037 56.0993 628.618 Z" fill="#000000" fill-rule="evenodd" fill-opacity="1" /><polyline clip-path="url(#clip992)" style="stroke:#0000ff; stroke-width:8; stroke-opacity:1; fill:none" points="
  235.528,231.686 529.18,931.097 822.831,1156.9 1116.48,1250.05 1410.13,1256.66 1703.79,1317.71 1997.44,1340.09 2291.09,1343.89 
  "/>
<polyline clip-path="url(#clip992)" style="stroke:#000000; stroke-width:4; stroke-opacity:1; fill:none" points="
  235.528,254.813 235.528,208.558 
  "/>
<polyline clip-path="url(#clip992)" style="stroke:#000000; stroke-width:4; stroke-opacity:1; fill:none" points="
  529.18,949.644 529.18,912.55 
  "/>
<polyline clip-path="url(#clip992)" style="stroke:#000000; stroke-width:4; stroke-opacity:1; fill:none" points="
  822.831,1175.08 822.831,1138.72 
  "/>
<polyline clip-path="url(#clip992)" style="stroke:#000000; stroke-width:4; stroke-opacity:1; fill:none" points="
  1116.48,1285.35 1116.48,1214.74 
  "/>
<polyline clip-path="url(#clip992)" style="stroke:#000000; stroke-width:4; stroke-opacity:1; fill:none" points="
  1410.13,1295.47 1410.13,1217.85 
  "/>
<polyline clip-path="url(#clip992)" style="stroke:#000000; stroke-width:4; stroke-opacity:1; fill:none" points="
  1703.79,1328.53 1703.79,1306.89 
  "/>
<polyline clip-path="url(#clip992)" style="stroke:#000000; stroke-width:4; stroke-opacity:1; fill:none" points="
  1997.44,1355.39 1997.44,1324.8 
  "/>
<polyline clip-path="url(#clip992)" style="stroke:#000000; stroke-width:4; stroke-opacity:1; fill:none" points="
  2291.09,1384.24 2291.09,1303.54 
  "/>
<line clip-path="url(#clip992)" x1="251.528" y1="254.813" x2="219.528" y2="254.813" style="stroke:#000000; stroke-width:3.2; stroke-opacity:1"/>
<line clip-path="url(#clip992)" x1="251.528" y1="208.558" x2="219.528" y2="208.558" style="stroke:#000000; stroke-width:3.2; stroke-opacity:1"/>
<line clip-path="url(#clip992)" x1="545.18" y1="949.644" x2="513.18" y2="949.644" style="stroke:#000000; stroke-width:3.2; stroke-opacity:1"/>
<line clip-path="url(#clip992)" x1="545.18" y1="912.55" x2="513.18" y2="912.55" style="stroke:#000000; stroke-width:3.2; stroke-opacity:1"/>
<line clip-path="url(#clip992)" x1="838.831" y1="1175.08" x2="806.831" y2="1175.08" style="stroke:#000000; stroke-width:3.2; stroke-opacity:1"/>
<line clip-path="url(#clip992)" x1="838.831" y1="1138.72" x2="806.831" y2="1138.72" style="stroke:#000000; stroke-width:3.2; stroke-opacity:1"/>
<line clip-path="url(#clip992)" x1="1132.48" y1="1285.35" x2="1100.48" y2="1285.35" style="stroke:#000000; stroke-width:3.2; stroke-opacity:1"/>
<line clip-path="url(#clip992)" x1="1132.48" y1="1214.74" x2="1100.48" y2="1214.74" style="stroke:#000000; stroke-width:3.2; stroke-opacity:1"/>
<line clip-path="url(#clip992)" x1="1426.13" y1="1295.47" x2="1394.13" y2="1295.47" style="stroke:#000000; stroke-width:3.2; stroke-opacity:1"/>
<line clip-path="url(#clip992)" x1="1426.13" y1="1217.85" x2="1394.13" y2="1217.85" style="stroke:#000000; stroke-width:3.2; stroke-opacity:1"/>
<line clip-path="url(#clip992)" x1="1719.79" y1="1328.53" x2="1687.79" y2="1328.53" style="stroke:#000000; stroke-width:3.2; stroke-opacity:1"/>
<line clip-path="url(#clip992)" x1="1719.79" y1="1306.89" x2="1687.79" y2="1306.89" style="stroke:#000000; stroke-width:3.2; stroke-opacity:1"/>
<line clip-path="url(#clip992)" x1="2013.44" y1="1355.39" x2="1981.44" y2="1355.39" style="stroke:#000000; stroke-width:3.2; stroke-opacity:1"/>
<line clip-path="url(#clip992)" x1="2013.44" y1="1324.8" x2="1981.44" y2="1324.8" style="stroke:#000000; stroke-width:3.2; stroke-opacity:1"/>
<line clip-path="url(#clip992)" x1="2307.09" y1="1384.24" x2="2275.09" y2="1384.24" style="stroke:#000000; stroke-width:3.2; stroke-opacity:1"/>
<line clip-path="url(#clip992)" x1="2307.09" y1="1303.54" x2="2275.09" y2="1303.54" style="stroke:#000000; stroke-width:3.2; stroke-opacity:1"/>
<polyline clip-path="url(#clip992)" style="stroke:#ff0000; stroke-width:8; stroke-opacity:1; fill:none" points="
  235.528,121.957 529.18,817.721 822.831,1059 1116.48,1167.48 1410.13,1156.14 1703.79,1169.1 1997.44,1195.98 2291.09,1200.64 
  "/>
<polyline clip-path="url(#clip992)" style="stroke:#000000; stroke-width:4; stroke-opacity:1; fill:none" points="
  235.528,157.728 235.528,86.1857 
  "/>
<polyline clip-path="url(#clip992)" style="stroke:#000000; stroke-width:4; stroke-opacity:1; fill:none" points="
  529.18,841.239 529.18,794.202 
  "/>
<polyline clip-path="url(#clip992)" style="stroke:#000000; stroke-width:4; stroke-opacity:1; fill:none" points="
  822.831,1101.27 822.831,1016.72 
  "/>
<polyline clip-path="url(#clip992)" style="stroke:#000000; stroke-width:4; stroke-opacity:1; fill:none" points="
  1116.48,1210.17 1116.48,1124.8 
  "/>
<polyline clip-path="url(#clip992)" style="stroke:#000000; stroke-width:4; stroke-opacity:1; fill:none" points="
  1410.13,1201.13 1410.13,1111.14 
  "/>
<polyline clip-path="url(#clip992)" style="stroke:#000000; stroke-width:4; stroke-opacity:1; fill:none" points="
  1703.79,1182.85 1703.79,1155.34 
  "/>
<polyline clip-path="url(#clip992)" style="stroke:#000000; stroke-width:4; stroke-opacity:1; fill:none" points="
  1997.44,1210.03 1997.44,1181.93 
  "/>
<polyline clip-path="url(#clip992)" style="stroke:#000000; stroke-width:4; stroke-opacity:1; fill:none" points="
  2291.09,1228.14 2291.09,1173.13 
  "/>
<line clip-path="url(#clip992)" x1="251.528" y1="157.728" x2="219.528" y2="157.728" style="stroke:#000000; stroke-width:3.2; stroke-opacity:1"/>
<line clip-path="url(#clip992)" x1="251.528" y1="86.1857" x2="219.528" y2="86.1857" style="stroke:#000000; stroke-width:3.2; stroke-opacity:1"/>
<line clip-path="url(#clip992)" x1="545.18" y1="841.239" x2="513.18" y2="841.239" style="stroke:#000000; stroke-width:3.2; stroke-opacity:1"/>
<line clip-path="url(#clip992)" x1="545.18" y1="794.202" x2="513.18" y2="794.202" style="stroke:#000000; stroke-width:3.2; stroke-opacity:1"/>
<line clip-path="url(#clip992)" x1="838.831" y1="1101.27" x2="806.831" y2="1101.27" style="stroke:#000000; stroke-width:3.2; stroke-opacity:1"/>
<line clip-path="url(#clip992)" x1="838.831" y1="1016.72" x2="806.831" y2="1016.72" style="stroke:#000000; stroke-width:3.2; stroke-opacity:1"/>
<line clip-path="url(#clip992)" x1="1132.48" y1="1210.17" x2="1100.48" y2="1210.17" style="stroke:#000000; stroke-width:3.2; stroke-opacity:1"/>
<line clip-path="url(#clip992)" x1="1132.48" y1="1124.8" x2="1100.48" y2="1124.8" style="stroke:#000000; stroke-width:3.2; stroke-opacity:1"/>
<line clip-path="url(#clip992)" x1="1426.13" y1="1201.13" x2="1394.13" y2="1201.13" style="stroke:#000000; stroke-width:3.2; stroke-opacity:1"/>
<line clip-path="url(#clip992)" x1="1426.13" y1="1111.14" x2="1394.13" y2="1111.14" style="stroke:#000000; stroke-width:3.2; stroke-opacity:1"/>
<line clip-path="url(#clip992)" x1="1719.79" y1="1182.85" x2="1687.79" y2="1182.85" style="stroke:#000000; stroke-width:3.2; stroke-opacity:1"/>
<line clip-path="url(#clip992)" x1="1719.79" y1="1155.34" x2="1687.79" y2="1155.34" style="stroke:#000000; stroke-width:3.2; stroke-opacity:1"/>
<line clip-path="url(#clip992)" x1="2013.44" y1="1210.03" x2="1981.44" y2="1210.03" style="stroke:#000000; stroke-width:3.2; stroke-opacity:1"/>
<line clip-path="url(#clip992)" x1="2013.44" y1="1181.93" x2="1981.44" y2="1181.93" style="stroke:#000000; stroke-width:3.2; stroke-opacity:1"/>
<line clip-path="url(#clip992)" x1="2307.09" y1="1228.14" x2="2275.09" y2="1228.14" style="stroke:#000000; stroke-width:3.2; stroke-opacity:1"/>
<line clip-path="url(#clip992)" x1="2307.09" y1="1173.13" x2="2275.09" y2="1173.13" style="stroke:#000000; stroke-width:3.2; stroke-opacity:1"/>
<path clip-path="url(#clip990)" d="
M1478.65 274.549 L2280.13 274.549 L2280.13 93.1086 L1478.65 93.1086  Z
  " fill="#ffffff" fill-rule="evenodd" fill-opacity="1"/>
<polyline clip-path="url(#clip990)" style="stroke:#000000; stroke-width:4; stroke-opacity:1; fill:none" points="
  1478.65,274.549 2280.13,274.549 2280.13,93.1086 1478.65,93.1086 1478.65,274.549 
  "/>
<polyline clip-path="url(#clip990)" style="stroke:#0000ff; stroke-width:4; stroke-opacity:1; fill:none" points="
  1502.86,153.589 1648.12,153.589 
  "/>
<path clip-path="url(#clip990)" d="M 0 0 M1672.33 136.309 L1701.57 136.309 L1701.57 140.244 L1689.3 140.244 L1689.3 170.869 L1684.6 170.869 L1684.6 140.244 L1672.33 140.244 L1672.33 136.309 Z" fill="#000000" fill-rule="evenodd" fill-opacity="1" /><path clip-path="url(#clip990)" d="M 0 0 M1704.58 144.943 L1708.84 144.943 L1708.84 170.869 L1704.58 170.869 L1704.58 144.943 M1704.58 134.85 L1708.84 134.85 L1708.84 140.244 L1704.58 140.244 L1704.58 134.85 Z" fill="#000000" fill-rule="evenodd" fill-opacity="1" /><path clip-path="url(#clip990)" d="M 0 0 M1733.49 149.92 Q1735.09 147.049 1737.31 145.684 Q1739.53 144.318 1742.54 144.318 Q1746.59 144.318 1748.79 147.165 Q1750.99 149.989 1750.99 155.221 L1750.99 170.869 L1746.71 170.869 L1746.71 155.359 Q1746.71 151.633 1745.39 149.827 Q1744.07 148.022 1741.36 148.022 Q1738.05 148.022 1736.13 150.221 Q1734.21 152.42 1734.21 156.216 L1734.21 170.869 L1729.93 170.869 L1729.93 155.359 Q1729.93 151.609 1728.61 149.827 Q1727.29 148.022 1724.53 148.022 Q1721.27 148.022 1719.35 150.244 Q1717.43 152.443 1717.43 156.216 L1717.43 170.869 L1713.14 170.869 L1713.14 144.943 L1717.43 144.943 L1717.43 148.971 Q1718.88 146.586 1720.92 145.452 Q1722.96 144.318 1725.76 144.318 Q1728.58 144.318 1730.55 145.753 Q1732.54 147.188 1733.49 149.92 Z" fill="#000000" fill-rule="evenodd" fill-opacity="1" /><path clip-path="url(#clip990)" d="M 0 0 M1777.63 156.841 L1777.63 158.924 L1758.05 158.924 Q1758.33 163.322 1760.69 165.637 Q1763.07 167.929 1767.31 167.929 Q1769.76 167.929 1772.06 167.327 Q1774.37 166.725 1776.64 165.521 L1776.64 169.549 Q1774.35 170.521 1771.94 171.031 Q1769.53 171.54 1767.06 171.54 Q1760.85 171.54 1757.22 167.929 Q1753.61 164.318 1753.61 158.16 Q1753.61 151.795 1757.03 148.068 Q1760.48 144.318 1766.32 144.318 Q1771.55 144.318 1774.58 147.697 Q1777.63 151.054 1777.63 156.841 M1773.38 155.591 Q1773.33 152.096 1771.41 150.012 Q1769.51 147.929 1766.36 147.929 Q1762.8 147.929 1760.64 149.943 Q1758.51 151.957 1758.19 155.614 L1773.38 155.591 Z" fill="#000000" fill-rule="evenodd" fill-opacity="1" /><path clip-path="url(#clip990)" d="M 0 0 M1797.17 144.943 L1801.43 144.943 L1801.43 170.869 L1797.17 170.869 L1797.17 144.943 M1797.17 134.85 L1801.43 134.85 L1801.43 140.244 L1797.17 140.244 L1797.17 134.85 Z" fill="#000000" fill-rule="evenodd" fill-opacity="1" /><path clip-path="url(#clip990)" d="M 0 0 M1827.45 155.221 L1827.45 170.869 L1823.19 170.869 L1823.19 155.359 Q1823.19 151.679 1821.75 149.85 Q1820.32 148.022 1817.45 148.022 Q1814 148.022 1812.01 150.221 Q1810.02 152.42 1810.02 156.216 L1810.02 170.869 L1805.74 170.869 L1805.74 144.943 L1810.02 144.943 L1810.02 148.971 Q1811.55 146.633 1813.61 145.475 Q1815.69 144.318 1818.4 144.318 Q1822.87 144.318 1825.16 147.096 Q1827.45 149.85 1827.45 155.221 Z" fill="#000000" fill-rule="evenodd" fill-opacity="1" /><path clip-path="url(#clip990)" d="M 0 0 M1847.17 136.309 L1851.85 136.309 L1851.85 168.461 Q1851.85 174.711 1849.46 177.535 Q1847.1 180.359 1841.85 180.359 L1840.06 180.359 L1840.06 176.424 L1841.52 176.424 Q1844.62 176.424 1845.9 174.688 Q1847.17 172.952 1847.17 168.461 L1847.17 136.309 Z" fill="#000000" fill-rule="evenodd" fill-opacity="1" /><path clip-path="url(#clip990)" d="M 0 0 M1855.87 160.637 L1855.87 144.943 L1860.13 144.943 L1860.13 160.475 Q1860.13 164.156 1861.57 166.008 Q1863 167.836 1865.87 167.836 Q1869.32 167.836 1871.31 165.637 Q1873.33 163.438 1873.33 159.642 L1873.33 144.943 L1877.59 144.943 L1877.59 170.869 L1873.33 170.869 L1873.33 166.887 Q1871.78 169.248 1869.72 170.406 Q1867.68 171.54 1864.97 171.54 Q1860.5 171.54 1858.19 168.762 Q1855.87 165.984 1855.87 160.637 M1866.59 144.318 L1866.59 144.318 Z" fill="#000000" fill-rule="evenodd" fill-opacity="1" /><path clip-path="url(#clip990)" d="M 0 0 M1882.06 134.85 L1886.31 134.85 L1886.31 170.869 L1882.06 170.869 L1882.06 134.85 Z" fill="#000000" fill-rule="evenodd" fill-opacity="1" /><path clip-path="url(#clip990)" d="M 0 0 M1890.78 144.943 L1895.04 144.943 L1895.04 170.869 L1890.78 170.869 L1890.78 144.943 M1890.78 134.85 L1895.04 134.85 L1895.04 140.244 L1890.78 140.244 L1890.78 134.85 Z" fill="#000000" fill-rule="evenodd" fill-opacity="1" /><path clip-path="url(#clip990)" d="M 0 0 M1911.29 157.836 Q1906.13 157.836 1904.14 159.017 Q1902.15 160.197 1902.15 163.045 Q1902.15 165.313 1903.63 166.656 Q1905.13 167.975 1907.7 167.975 Q1911.24 167.975 1913.37 165.475 Q1915.53 162.952 1915.53 158.785 L1915.53 157.836 L1911.29 157.836 M1919.79 156.077 L1919.79 170.869 L1915.53 170.869 L1915.53 166.933 Q1914.07 169.295 1911.89 170.429 Q1909.72 171.54 1906.57 171.54 Q1902.59 171.54 1900.23 169.318 Q1897.89 167.072 1897.89 163.322 Q1897.89 158.947 1900.81 156.725 Q1903.74 154.503 1909.56 154.503 L1915.53 154.503 L1915.53 154.086 Q1915.53 151.147 1913.58 149.549 Q1911.66 147.929 1908.17 147.929 Q1905.94 147.929 1903.84 148.461 Q1901.73 148.994 1899.79 150.059 L1899.79 146.123 Q1902.12 145.221 1904.32 144.781 Q1906.52 144.318 1908.61 144.318 Q1914.23 144.318 1917.01 147.234 Q1919.79 150.151 1919.79 156.077 Z" fill="#000000" fill-rule="evenodd" fill-opacity="1" /><path clip-path="url(#clip990)" d="M 0 0 M1938.88 160.637 L1938.88 144.943 L1943.14 144.943 L1943.14 160.475 Q1943.14 164.156 1944.58 166.008 Q1946.01 167.836 1948.88 167.836 Q1952.33 167.836 1954.32 165.637 Q1956.34 163.438 1956.34 159.642 L1956.34 144.943 L1960.6 144.943 L1960.6 170.869 L1956.34 170.869 L1956.34 166.887 Q1954.79 169.248 1952.73 170.406 Q1950.69 171.54 1947.98 171.54 Q1943.51 171.54 1941.2 168.762 Q1938.88 165.984 1938.88 160.637 M1949.6 144.318 L1949.6 144.318 Z" fill="#000000" fill-rule="evenodd" fill-opacity="1" /><path clip-path="url(#clip990)" d="M 0 0 M1981.59 145.707 L1981.59 149.734 Q1979.79 148.809 1977.84 148.346 Q1975.9 147.883 1973.81 147.883 Q1970.64 147.883 1969.05 148.855 Q1967.47 149.827 1967.47 151.771 Q1967.47 153.253 1968.61 154.109 Q1969.74 154.943 1973.17 155.707 L1974.62 156.031 Q1979.16 157.003 1981.06 158.785 Q1982.98 160.545 1982.98 163.716 Q1982.98 167.327 1980.11 169.433 Q1977.26 171.54 1972.26 171.54 Q1970.18 171.54 1967.91 171.123 Q1965.67 170.73 1963.17 169.92 L1963.17 165.521 Q1965.53 166.748 1967.82 167.373 Q1970.11 167.975 1972.36 167.975 Q1975.36 167.975 1976.99 166.957 Q1978.61 165.915 1978.61 164.04 Q1978.61 162.304 1977.43 161.378 Q1976.27 160.452 1972.31 159.596 L1970.83 159.248 Q1966.87 158.415 1965.11 156.702 Q1963.35 154.966 1963.35 151.957 Q1963.35 148.299 1965.94 146.309 Q1968.54 144.318 1973.3 144.318 Q1975.67 144.318 1977.75 144.665 Q1979.83 145.012 1981.59 145.707 Z" fill="#000000" fill-rule="evenodd" fill-opacity="1" /><path clip-path="url(#clip990)" d="M 0 0 M1987.45 144.943 L1991.71 144.943 L1991.71 170.869 L1987.45 170.869 L1987.45 144.943 M1987.45 134.85 L1991.71 134.85 L1991.71 140.244 L1987.45 140.244 L1987.45 134.85 Z" fill="#000000" fill-rule="evenodd" fill-opacity="1" /><path clip-path="url(#clip990)" d="M 0 0 M2017.73 155.221 L2017.73 170.869 L2013.47 170.869 L2013.47 155.359 Q2013.47 151.679 2012.03 149.85 Q2010.6 148.022 2007.73 148.022 Q2004.28 148.022 2002.29 150.221 Q2000.3 152.42 2000.3 156.216 L2000.3 170.869 L1996.01 170.869 L1996.01 144.943 L2000.3 144.943 L2000.3 148.971 Q2001.82 146.633 2003.88 145.475 Q2005.97 144.318 2008.67 144.318 Q2013.14 144.318 2015.43 147.096 Q2017.73 149.85 2017.73 155.221 Z" fill="#000000" fill-rule="evenodd" fill-opacity="1" /><path clip-path="url(#clip990)" d="M 0 0 M2039.25 157.605 Q2039.25 152.975 2037.33 150.429 Q2035.43 147.883 2031.99 147.883 Q2028.56 147.883 2026.64 150.429 Q2024.74 152.975 2024.74 157.605 Q2024.74 162.211 2026.64 164.758 Q2028.56 167.304 2031.99 167.304 Q2035.43 167.304 2037.33 164.758 Q2039.25 162.211 2039.25 157.605 M2043.51 167.651 Q2043.51 174.271 2040.57 177.489 Q2037.63 180.73 2031.57 180.73 Q2029.32 180.73 2027.33 180.382 Q2025.34 180.058 2023.47 179.364 L2023.47 175.22 Q2025.34 176.239 2027.17 176.725 Q2029 177.211 2030.9 177.211 Q2035.09 177.211 2037.17 175.012 Q2039.25 172.836 2039.25 168.415 L2039.25 166.308 Q2037.93 168.6 2035.87 169.734 Q2033.81 170.869 2030.94 170.869 Q2026.17 170.869 2023.26 167.234 Q2020.34 163.6 2020.34 157.605 Q2020.34 151.586 2023.26 147.952 Q2026.17 144.318 2030.94 144.318 Q2033.81 144.318 2035.87 145.452 Q2037.93 146.586 2039.25 148.878 L2039.25 144.943 L2043.51 144.943 L2043.51 167.651 Z" fill="#000000" fill-rule="evenodd" fill-opacity="1" /><path clip-path="url(#clip990)" d="M 0 0 M2058.44 136.309 L2087.68 136.309 L2087.68 140.244 L2075.41 140.244 L2075.41 170.869 L2070.71 170.869 L2070.71 140.244 L2058.44 140.244 L2058.44 136.309 Z" fill="#000000" fill-rule="evenodd" fill-opacity="1" /><path clip-path="url(#clip990)" d="M 0 0 M2113.7 155.221 L2113.7 170.869 L2109.44 170.869 L2109.44 155.359 Q2109.44 151.679 2108 149.85 Q2106.57 148.022 2103.7 148.022 Q2100.25 148.022 2098.26 150.221 Q2096.27 152.42 2096.27 156.216 L2096.27 170.869 L2091.98 170.869 L2091.98 134.85 L2096.27 134.85 L2096.27 148.971 Q2097.79 146.633 2099.86 145.475 Q2101.94 144.318 2104.65 144.318 Q2109.11 144.318 2111.41 147.096 Q2113.7 149.85 2113.7 155.221 Z" fill="#000000" fill-rule="evenodd" fill-opacity="1" /><path clip-path="url(#clip990)" d="M 0 0 M2133.19 148.924 Q2132.47 148.508 2131.61 148.322 Q2130.78 148.114 2129.76 148.114 Q2126.15 148.114 2124.21 150.475 Q2122.29 152.813 2122.29 157.211 L2122.29 170.869 L2118 170.869 L2118 144.943 L2122.29 144.943 L2122.29 148.971 Q2123.63 146.609 2125.78 145.475 Q2127.93 144.318 2131.01 144.318 Q2131.45 144.318 2131.98 144.387 Q2132.52 144.434 2133.17 144.549 L2133.19 148.924 Z" fill="#000000" fill-rule="evenodd" fill-opacity="1" /><path clip-path="url(#clip990)" d="M 0 0 M2158.79 156.841 L2158.79 158.924 L2139.21 158.924 Q2139.48 163.322 2141.85 165.637 Q2144.23 167.929 2148.47 167.929 Q2150.92 167.929 2153.21 167.327 Q2155.53 166.725 2157.79 165.521 L2157.79 169.549 Q2155.5 170.521 2153.1 171.031 Q2150.69 171.54 2148.21 171.54 Q2142.01 171.54 2138.37 167.929 Q2134.76 164.318 2134.76 158.16 Q2134.76 151.795 2138.19 148.068 Q2141.64 144.318 2147.47 144.318 Q2152.7 144.318 2155.73 147.697 Q2158.79 151.054 2158.79 156.841 M2154.53 155.591 Q2154.48 152.096 2152.56 150.012 Q2150.66 147.929 2147.52 147.929 Q2143.95 147.929 2141.8 149.943 Q2139.67 151.957 2139.35 155.614 L2154.53 155.591 Z" fill="#000000" fill-rule="evenodd" fill-opacity="1" /><path clip-path="url(#clip990)" d="M 0 0 M2175.04 157.836 Q2169.88 157.836 2167.89 159.017 Q2165.9 160.197 2165.9 163.045 Q2165.9 165.313 2167.38 166.656 Q2168.88 167.975 2171.45 167.975 Q2174.99 167.975 2177.12 165.475 Q2179.28 162.952 2179.28 158.785 L2179.28 157.836 L2175.04 157.836 M2183.54 156.077 L2183.54 170.869 L2179.28 170.869 L2179.28 166.933 Q2177.82 169.295 2175.64 170.429 Q2173.47 171.54 2170.32 171.54 Q2166.34 171.54 2163.98 169.318 Q2161.64 167.072 2161.64 163.322 Q2161.64 158.947 2164.55 156.725 Q2167.49 154.503 2173.3 154.503 L2179.28 154.503 L2179.28 154.086 Q2179.28 151.147 2177.33 149.549 Q2175.41 147.929 2171.91 147.929 Q2169.69 147.929 2167.59 148.461 Q2165.48 148.994 2163.54 150.059 L2163.54 146.123 Q2165.87 145.221 2168.07 144.781 Q2170.27 144.318 2172.35 144.318 Q2177.98 144.318 2180.76 147.234 Q2183.54 150.151 2183.54 156.077 Z" fill="#000000" fill-rule="evenodd" fill-opacity="1" /><path clip-path="url(#clip990)" d="M 0 0 M2205.06 148.878 L2205.06 134.85 L2209.32 134.85 L2209.32 170.869 L2205.06 170.869 L2205.06 166.98 Q2203.72 169.295 2201.66 170.429 Q2199.62 171.54 2196.75 171.54 Q2192.05 171.54 2189.09 167.79 Q2186.15 164.04 2186.15 157.929 Q2186.15 151.818 2189.09 148.068 Q2192.05 144.318 2196.75 144.318 Q2199.62 144.318 2201.66 145.452 Q2203.72 146.563 2205.06 148.878 M2190.55 157.929 Q2190.55 162.628 2192.47 165.313 Q2194.41 167.975 2197.79 167.975 Q2201.17 167.975 2203.12 165.313 Q2205.06 162.628 2205.06 157.929 Q2205.06 153.23 2203.12 150.568 Q2201.17 147.883 2197.79 147.883 Q2194.41 147.883 2192.47 150.568 Q2190.55 153.23 2190.55 157.929 Z" fill="#000000" fill-rule="evenodd" fill-opacity="1" /><path clip-path="url(#clip990)" d="M 0 0 M2230.32 145.707 L2230.32 149.734 Q2228.51 148.809 2226.57 148.346 Q2224.62 147.883 2222.54 147.883 Q2219.37 147.883 2217.77 148.855 Q2216.2 149.827 2216.2 151.771 Q2216.2 153.253 2217.33 154.109 Q2218.47 154.943 2221.89 155.707 L2223.35 156.031 Q2227.89 157.003 2229.78 158.785 Q2231.71 160.545 2231.71 163.716 Q2231.71 167.327 2228.84 169.433 Q2225.99 171.54 2220.99 171.54 Q2218.91 171.54 2216.64 171.123 Q2214.39 170.73 2211.89 169.92 L2211.89 165.521 Q2214.25 166.748 2216.54 167.373 Q2218.84 167.975 2221.08 167.975 Q2224.09 167.975 2225.71 166.957 Q2227.33 165.915 2227.33 164.04 Q2227.33 162.304 2226.15 161.378 Q2224.99 160.452 2221.03 159.596 L2219.55 159.248 Q2215.6 158.415 2213.84 156.702 Q2212.08 154.966 2212.08 151.957 Q2212.08 148.299 2214.67 146.309 Q2217.26 144.318 2222.03 144.318 Q2224.39 144.318 2226.47 144.665 Q2228.56 145.012 2230.32 145.707 Z" fill="#000000" fill-rule="evenodd" fill-opacity="1" /><polyline clip-path="url(#clip990)" style="stroke:#ff0000; stroke-width:4; stroke-opacity:1; fill:none" points="
  1502.86,214.069 1648.12,214.069 
  "/>
<path clip-path="url(#clip990)" d="M 0 0 M1672.33 196.789 L1701.57 196.789 L1701.57 200.724 L1689.3 200.724 L1689.3 231.349 L1684.6 231.349 L1684.6 200.724 L1672.33 200.724 L1672.33 196.789 Z" fill="#000000" fill-rule="evenodd" fill-opacity="1" /><path clip-path="url(#clip990)" d="M 0 0 M1704.58 205.423 L1708.84 205.423 L1708.84 231.349 L1704.58 231.349 L1704.58 205.423 M1704.58 195.33 L1708.84 195.33 L1708.84 200.724 L1704.58 200.724 L1704.58 195.33 Z" fill="#000000" fill-rule="evenodd" fill-opacity="1" /><path clip-path="url(#clip990)" d="M 0 0 M1733.49 210.4 Q1735.09 207.529 1737.31 206.164 Q1739.53 204.798 1742.54 204.798 Q1746.59 204.798 1748.79 207.645 Q1750.99 210.469 1750.99 215.701 L1750.99 231.349 L1746.71 231.349 L1746.71 215.839 Q1746.71 212.113 1745.39 210.307 Q1744.07 208.502 1741.36 208.502 Q1738.05 208.502 1736.13 210.701 Q1734.21 212.9 1734.21 216.696 L1734.21 231.349 L1729.93 231.349 L1729.93 215.839 Q1729.93 212.089 1728.61 210.307 Q1727.29 208.502 1724.53 208.502 Q1721.27 208.502 1719.35 210.724 Q1717.43 212.923 1717.43 216.696 L1717.43 231.349 L1713.14 231.349 L1713.14 205.423 L1717.43 205.423 L1717.43 209.451 Q1718.88 207.066 1720.92 205.932 Q1722.96 204.798 1725.76 204.798 Q1728.58 204.798 1730.55 206.233 Q1732.54 207.668 1733.49 210.4 Z" fill="#000000" fill-rule="evenodd" fill-opacity="1" /><path clip-path="url(#clip990)" d="M 0 0 M1777.63 217.321 L1777.63 219.404 L1758.05 219.404 Q1758.33 223.802 1760.69 226.117 Q1763.07 228.409 1767.31 228.409 Q1769.76 228.409 1772.06 227.807 Q1774.37 227.205 1776.64 226.001 L1776.64 230.029 Q1774.35 231.001 1771.94 231.511 Q1769.53 232.02 1767.06 232.02 Q1760.85 232.02 1757.22 228.409 Q1753.61 224.798 1753.61 218.64 Q1753.61 212.275 1757.03 208.548 Q1760.48 204.798 1766.32 204.798 Q1771.55 204.798 1774.58 208.177 Q1777.63 211.534 1777.63 217.321 M1773.38 216.071 Q1773.33 212.576 1771.41 210.492 Q1769.51 208.409 1766.36 208.409 Q1762.8 208.409 1760.64 210.423 Q1758.51 212.437 1758.19 216.094 L1773.38 216.071 Z" fill="#000000" fill-rule="evenodd" fill-opacity="1" /><path clip-path="url(#clip990)" d="M 0 0 M1797.17 205.423 L1801.43 205.423 L1801.43 231.349 L1797.17 231.349 L1797.17 205.423 M1797.17 195.33 L1801.43 195.33 L1801.43 200.724 L1797.17 200.724 L1797.17 195.33 Z" fill="#000000" fill-rule="evenodd" fill-opacity="1" /><path clip-path="url(#clip990)" d="M 0 0 M1827.45 215.701 L1827.45 231.349 L1823.19 231.349 L1823.19 215.839 Q1823.19 212.159 1821.75 210.33 Q1820.32 208.502 1817.45 208.502 Q1814 208.502 1812.01 210.701 Q1810.02 212.9 1810.02 216.696 L1810.02 231.349 L1805.74 231.349 L1805.74 205.423 L1810.02 205.423 L1810.02 209.451 Q1811.55 207.113 1813.61 205.955 Q1815.69 204.798 1818.4 204.798 Q1822.87 204.798 1825.16 207.576 Q1827.45 210.33 1827.45 215.701 Z" fill="#000000" fill-rule="evenodd" fill-opacity="1" /><path clip-path="url(#clip990)" d="M 0 0 M1873.05 199.451 L1873.05 204.381 Q1870.69 202.182 1868 201.094 Q1865.34 200.006 1862.33 200.006 Q1856.41 200.006 1853.26 203.64 Q1850.11 207.252 1850.11 214.103 Q1850.11 220.932 1853.26 224.566 Q1856.41 228.177 1862.33 228.177 Q1865.34 228.177 1868 227.089 Q1870.69 226.001 1873.05 223.802 L1873.05 228.687 Q1870.6 230.353 1867.84 231.187 Q1865.11 232.02 1862.06 232.02 Q1854.21 232.02 1849.69 227.228 Q1845.18 222.413 1845.18 214.103 Q1845.18 205.77 1849.69 200.978 Q1854.21 196.164 1862.06 196.164 Q1865.16 196.164 1867.89 196.997 Q1870.64 197.807 1873.05 199.451 Z" fill="#000000" fill-rule="evenodd" fill-opacity="1" /><path clip-path="url(#clip990)" d="M 0 0 M1892.15 221.117 L1892.15 205.423 L1896.41 205.423 L1896.41 220.955 Q1896.41 224.636 1897.84 226.488 Q1899.28 228.316 1902.15 228.316 Q1905.6 228.316 1907.59 226.117 Q1909.6 223.918 1909.6 220.122 L1909.6 205.423 L1913.86 205.423 L1913.86 231.349 L1909.6 231.349 L1909.6 227.367 Q1908.05 229.728 1905.99 230.886 Q1903.95 232.02 1901.25 232.02 Q1896.78 232.02 1894.46 229.242 Q1892.15 226.464 1892.15 221.117 M1902.87 204.798 L1902.87 204.798 Z" fill="#000000" fill-rule="evenodd" fill-opacity="1" /><path clip-path="url(#clip990)" d="M 0 0 M1934.86 206.187 L1934.86 210.214 Q1933.05 209.289 1931.11 208.826 Q1929.16 208.363 1927.08 208.363 Q1923.91 208.363 1922.31 209.335 Q1920.74 210.307 1920.74 212.251 Q1920.74 213.733 1921.87 214.589 Q1923 215.423 1926.43 216.187 L1927.89 216.511 Q1932.43 217.483 1934.32 219.265 Q1936.24 221.025 1936.24 224.196 Q1936.24 227.807 1933.37 229.913 Q1930.53 232.02 1925.53 232.02 Q1923.44 232.02 1921.18 231.603 Q1918.93 231.21 1916.43 230.4 L1916.43 226.001 Q1918.79 227.228 1921.08 227.853 Q1923.37 228.455 1925.62 228.455 Q1928.63 228.455 1930.25 227.437 Q1931.87 226.395 1931.87 224.52 Q1931.87 222.784 1930.69 221.858 Q1929.53 220.932 1925.57 220.076 L1924.09 219.728 Q1920.13 218.895 1918.37 217.182 Q1916.62 215.446 1916.62 212.437 Q1916.62 208.779 1919.21 206.789 Q1921.8 204.798 1926.57 204.798 Q1928.93 204.798 1931.01 205.145 Q1933.1 205.492 1934.86 206.187 Z" fill="#000000" fill-rule="evenodd" fill-opacity="1" /><path clip-path="url(#clip990)" d="M 0 0 M1940.71 205.423 L1944.97 205.423 L1944.97 231.349 L1940.71 231.349 L1940.71 205.423 M1940.71 195.33 L1944.97 195.33 L1944.97 200.724 L1940.71 200.724 L1940.71 195.33 Z" fill="#000000" fill-rule="evenodd" fill-opacity="1" /><path clip-path="url(#clip990)" d="M 0 0 M1970.99 215.701 L1970.99 231.349 L1966.73 231.349 L1966.73 215.839 Q1966.73 212.159 1965.3 210.33 Q1963.86 208.502 1960.99 208.502 Q1957.54 208.502 1955.55 210.701 Q1953.56 212.9 1953.56 216.696 L1953.56 231.349 L1949.28 231.349 L1949.28 205.423 L1953.56 205.423 L1953.56 209.451 Q1955.09 207.113 1957.15 205.955 Q1959.23 204.798 1961.94 204.798 Q1966.41 204.798 1968.7 207.576 Q1970.99 210.33 1970.99 215.701 Z" fill="#000000" fill-rule="evenodd" fill-opacity="1" /><path clip-path="url(#clip990)" d="M 0 0 M1992.52 218.085 Q1992.52 213.455 1990.6 210.909 Q1988.7 208.363 1985.25 208.363 Q1981.82 208.363 1979.9 210.909 Q1978 213.455 1978 218.085 Q1978 222.691 1979.9 225.238 Q1981.82 227.784 1985.25 227.784 Q1988.7 227.784 1990.6 225.238 Q1992.52 222.691 1992.52 218.085 M1996.78 228.131 Q1996.78 234.751 1993.84 237.969 Q1990.9 241.21 1984.83 241.21 Q1982.59 241.21 1980.6 240.862 Q1978.61 240.538 1976.73 239.844 L1976.73 235.7 Q1978.61 236.719 1980.43 237.205 Q1982.26 237.691 1984.16 237.691 Q1988.35 237.691 1990.43 235.492 Q1992.52 233.316 1992.52 228.895 L1992.52 226.788 Q1991.2 229.08 1989.14 230.214 Q1987.08 231.349 1984.21 231.349 Q1979.44 231.349 1976.52 227.714 Q1973.61 224.08 1973.61 218.085 Q1973.61 212.066 1976.52 208.432 Q1979.44 204.798 1984.21 204.798 Q1987.08 204.798 1989.14 205.932 Q1991.2 207.066 1992.52 209.358 L1992.52 205.423 L1996.78 205.423 L1996.78 228.131 Z" fill="#000000" fill-rule="evenodd" fill-opacity="1" /><path clip-path="url(#clip990)" d="M 0 0 M2030.53 199.96 Q2025.43 199.96 2022.42 203.756 Q2019.44 207.552 2019.44 214.103 Q2019.44 220.631 2022.42 224.427 Q2025.43 228.224 2030.53 228.224 Q2035.62 228.224 2038.58 224.427 Q2041.57 220.631 2041.57 214.103 Q2041.57 207.552 2038.58 203.756 Q2035.62 199.96 2030.53 199.96 M2030.53 196.164 Q2037.8 196.164 2042.15 201.048 Q2046.5 205.909 2046.5 214.103 Q2046.5 222.275 2042.15 227.159 Q2037.8 232.02 2030.53 232.02 Q2023.24 232.02 2018.86 227.159 Q2014.51 222.298 2014.51 214.103 Q2014.51 205.909 2018.86 201.048 Q2023.24 196.164 2030.53 196.164 Z" fill="#000000" fill-rule="evenodd" fill-opacity="1" /><path clip-path="url(#clip990)" d="M 0 0 M2055.09 227.46 L2055.09 241.21 L2050.8 241.21 L2050.8 205.423 L2055.09 205.423 L2055.09 209.358 Q2056.43 207.043 2058.47 205.932 Q2060.53 204.798 2063.37 204.798 Q2068.1 204.798 2071.04 208.548 Q2074 212.298 2074 218.409 Q2074 224.52 2071.04 228.27 Q2068.1 232.02 2063.37 232.02 Q2060.53 232.02 2058.47 230.909 Q2056.43 229.775 2055.09 227.46 M2069.58 218.409 Q2069.58 213.71 2067.63 211.048 Q2065.71 208.363 2062.33 208.363 Q2058.95 208.363 2057.01 211.048 Q2055.09 213.71 2055.09 218.409 Q2055.09 223.108 2057.01 225.793 Q2058.95 228.455 2062.33 228.455 Q2065.71 228.455 2067.63 225.793 Q2069.58 223.108 2069.58 218.409 Z" fill="#000000" fill-rule="evenodd" fill-opacity="1" /><path clip-path="url(#clip990)" d="M 0 0 M2100.64 217.321 L2100.64 219.404 L2081.06 219.404 Q2081.34 223.802 2083.7 226.117 Q2086.08 228.409 2090.32 228.409 Q2092.77 228.409 2095.06 227.807 Q2097.38 227.205 2099.65 226.001 L2099.65 230.029 Q2097.36 231.001 2094.95 231.511 Q2092.54 232.02 2090.06 232.02 Q2083.86 232.02 2080.23 228.409 Q2076.61 224.798 2076.61 218.64 Q2076.61 212.275 2080.04 208.548 Q2083.49 204.798 2089.32 204.798 Q2094.55 204.798 2097.59 208.177 Q2100.64 211.534 2100.64 217.321 M2096.38 216.071 Q2096.34 212.576 2094.42 210.492 Q2092.52 208.409 2089.37 208.409 Q2085.8 208.409 2083.65 210.423 Q2081.52 212.437 2081.2 216.094 L2096.38 216.071 Z" fill="#000000" fill-rule="evenodd" fill-opacity="1" /><path clip-path="url(#clip990)" d="M 0 0 M2126.66 215.701 L2126.66 231.349 L2122.4 231.349 L2122.4 215.839 Q2122.4 212.159 2120.97 210.33 Q2119.53 208.502 2116.66 208.502 Q2113.21 208.502 2111.22 210.701 Q2109.23 212.9 2109.23 216.696 L2109.23 231.349 L2104.95 231.349 L2104.95 205.423 L2109.23 205.423 L2109.23 209.451 Q2110.76 207.113 2112.82 205.955 Q2114.9 204.798 2117.61 204.798 Q2122.08 204.798 2124.37 207.576 Q2126.66 210.33 2126.66 215.701 Z" fill="#000000" fill-rule="evenodd" fill-opacity="1" /><path clip-path="url(#clip990)" d="M 0 0 M2131.31 196.789 L2138.28 196.789 L2147.1 220.307 L2155.97 196.789 L2162.93 196.789 L2162.93 231.349 L2158.37 231.349 L2158.37 201.002 L2149.46 224.705 L2144.76 224.705 L2135.85 201.002 L2135.85 231.349 L2131.31 231.349 L2131.31 196.789 Z" fill="#000000" fill-rule="evenodd" fill-opacity="1" /><path clip-path="url(#clip990)" d="M 0 0 M2172.26 200.631 L2172.26 213.617 L2178.14 213.617 Q2181.41 213.617 2183.19 211.927 Q2184.97 210.238 2184.97 207.113 Q2184.97 204.011 2183.19 202.321 Q2181.41 200.631 2178.14 200.631 L2172.26 200.631 M2167.59 196.789 L2178.14 196.789 Q2183.95 196.789 2186.91 199.427 Q2189.9 202.043 2189.9 207.113 Q2189.9 212.228 2186.91 214.844 Q2183.95 217.46 2178.14 217.46 L2172.26 217.46 L2172.26 231.349 L2167.59 231.349 L2167.59 196.789 Z" fill="#000000" fill-rule="evenodd" fill-opacity="1" /></svg>
